<svg xmlns="http://www.w3.org/2000/svg" xmlns:xlink="http://www.w3.org/1999/xlink" width="2000" zoomAndPan="magnify" viewBox="400 400 700 700" height="2000" preserveAspectRatio="xMidYMid meet" version="1.0"><path fill="#ac6d46" d="M 585.230469 470.507812 C 586.832031 470.667969 588.753906 469.707031 589.394531 469.867188 C 590.035156 470.027344 592.441406 470.1875 594.042969 470.347656 C 595.644531 470.507812 596.605469 469.546875 596.605469 469.546875 C 596.605469 469.546875 598.046875 470.667969 599.328125 471.308594 C 600.613281 471.949219 605.738281 471.308594 607.660156 470.1875 C 609.582031 469.066406 611.1875 466.34375 611.984375 465.539062 C 612.789062 464.738281 615.671875 464.738281 615.671875 464.738281 L 617.753906 463.777344 C 619.035156 464.417969 619.515625 463.777344 620.640625 462.65625 C 621.761719 461.535156 623.203125 461.054688 624.164062 460.734375 C 625.125 460.414062 624.804688 459.933594 627.851562 458.328125 C 630.894531 456.726562 640.667969 456.726562 640.667969 456.726562 L 643.230469 454.964844 C 643.230469 454.964844 645.15625 455.285156 646.4375 455.285156 C 647.71875 455.285156 649.800781 454.324219 649.800781 454.324219 L 657.972656 454.484375 L 659.898438 455.765625 L 661.980469 456.085938 C 661.980469 456.085938 663.421875 454.964844 665.34375 454.324219 C 667.265625 453.683594 668.386719 451.921875 668.386719 451.921875 C 668.386719 451.921875 673.355469 453.84375 674.316406 453.683594 C 675.277344 453.523438 676.078125 452.082031 676.078125 452.082031 L 678.160156 452.882812 L 680.5625 454.003906 L 682.96875 453.203125 C 682.96875 453.203125 684.089844 453.363281 685.210938 453.683594 C 686.332031 454.003906 687.773438 453.203125 687.773438 453.203125 C 689.859375 451.121094 694.023438 450 695.304688 450 C 696.585938 450 698.351562 450.960938 698.351562 450.960938 C 698.191406 451.921875 699.789062 453.523438 699.789062 453.523438 L 699.3125 454.484375 L 700.59375 455.125 L 701.230469 454.804688 C 701.230469 454.804688 702.03125 454.164062 702.675781 454.003906 C 703.316406 453.84375 703.632812 453.363281 703.632812 452.5625 C 703.632812 451.761719 704.753906 452.722656 704.753906 452.722656 L 705.710938 454.164062 L 704.902344 456.25 C 704.902344 456.25 703.925781 457.371094 702.164062 458.652344 C 700.402344 459.933594 701.011719 463.136719 701.652344 464.261719 C 702.292969 465.382812 703.195312 464.421875 703.195312 464.421875 L 703.554688 465.222656 L 704.597656 467.144531 C 704.597656 467.144531 704.597656 466.984375 704.597656 467.945312 C 704.597656 468.90625 705.480469 470.828125 705.480469 470.828125 C 705.480469 470.828125 703.636719 473.875 702.675781 475.316406 C 701.710938 476.757812 697.867188 479.003906 697.867188 479.003906 L 697.546875 480.925781 L 695.785156 480.765625 L 696.265625 483.648438 C 696.265625 483.648438 697.546875 484.929688 698.667969 485.089844 C 699.789062 485.25 700.429688 484.929688 700.429688 484.929688 L 701.550781 486.375 L 703.316406 485.894531 L 704.597656 488.9375 L 707.160156 489.417969 C 707.160156 489.417969 714.210938 492.941406 715.972656 493.105469 C 717.734375 493.265625 718.695312 492.140625 720.617188 491.980469 C 722.542969 491.820312 722.863281 492.78125 723.824219 493.105469 C 724.785156 493.425781 726.066406 492.78125 727.1875 493.585938 C 728.308594 494.386719 733.277344 496.148438 736 497.429688 C 738.722656 498.710938 737.761719 502.238281 737.761719 502.238281 C 737.761719 502.238281 741.605469 506.242188 743.207031 507.042969 C 744.8125 507.84375 751.058594 508.324219 752.5 508.644531 C 753.941406 508.964844 757.789062 511.050781 757.789062 511.050781 L 760.03125 511.691406 C 760.03125 511.691406 761.632812 513.453125 762.597656 514.253906 C 763.558594 515.054688 765.320312 516.175781 767.5625 516.015625 C 769.804688 515.855469 772.851562 512.328125 773.8125 511.046875 C 774.773438 509.765625 774.773438 508.644531 774.132812 507.363281 C 773.492188 506.082031 773.492188 505.121094 773.171875 504 C 772.851562 502.878906 773.492188 499.03125 774.933594 497.910156 C 776.375 496.789062 780.382812 493.421875 782.144531 492.941406 C 783.90625 492.460938 785.507812 492.140625 785.507812 492.140625 C 785.507812 492.140625 789.675781 491.820312 792.398438 492.941406 C 795.121094 494.0625 796.085938 493.582031 796.085938 493.582031 L 797.367188 495.023438 L 797.367188 496.949219 C 797.367188 496.949219 798.328125 498.230469 799.289062 498.550781 C 800.25 498.871094 803.453125 499.191406 804.738281 499.832031 C 806.019531 500.476562 807.78125 500.476562 809.703125 500.957031 C 811.628906 501.4375 813.070312 501.597656 813.070312 501.597656 C 814.191406 504.003906 814.992188 504.484375 816.753906 504.164062 C 818.515625 503.84375 826.046875 504.492188 828.128906 504.972656 C 830.210938 505.449219 834.859375 508.027344 837.582031 509.148438 C 840.308594 510.269531 844.472656 511.414062 844.472656 511.414062 L 850.722656 507.453125 C 850.722656 507.453125 852.804688 506.421875 854.566406 505.941406 C 856.332031 505.460938 860.65625 505.484375 860.65625 505.484375 C 860.65625 505.484375 863.058594 505.484375 864.820312 505.484375 C 866.585938 505.484375 867.707031 504.738281 867.707031 504.738281 C 867.707031 504.738281 867.707031 504.476562 868.347656 505.597656 C 868.988281 506.71875 870.75 507.683594 870.75 507.683594 L 872.351562 508.804688 C 872.351562 508.804688 877.800781 509.285156 879.242188 509.125 C 880.683594 508.964844 884.53125 506.878906 884.53125 506.878906 L 890.460938 524.828125 C 890.460938 524.828125 887.894531 531.234375 887.414062 532.835938 C 886.933594 534.441406 887.414062 535.722656 885.972656 537.484375 C 884.53125 539.246094 881.167969 534.4375 880.6875 534.121094 C 880.207031 533.796875 877.640625 531.394531 877.640625 529.152344 C 877.640625 526.910156 874.4375 523.542969 874.4375 523.542969 C 874.4375 523.542969 872.996094 517.9375 872.355469 518.257812 C 871.714844 518.578125 872.03125 519.378906 872.03125 519.378906 L 871.554688 522.101562 C 871.554688 522.101562 872.515625 523.703125 872.996094 524.988281 C 873.476562 526.269531 873.636719 529.152344 875.078125 531.554688 C 876.519531 533.960938 879.882812 536.84375 879.882812 536.84375 C 879.882812 536.84375 879.882812 538.765625 880.363281 540.371094 C 880.84375 541.972656 882.125 542.613281 882.925781 546.136719 C 883.726562 549.664062 887.253906 555.589844 887.253906 555.589844 C 887.253906 555.589844 891.257812 563.601562 891.578125 564.402344 C 891.902344 565.203125 895.105469 571.292969 895.105469 571.292969 C 895.105469 571.292969 895.105469 574.175781 895.585938 576.582031 C 896.066406 578.984375 898.46875 580.585938 898.46875 580.585938 C 898.46875 580.585938 901.515625 582.507812 903.917969 584.75 C 906.320312 586.996094 906 589.878906 906.320312 591.160156 C 906.640625 592.441406 909.046875 594.683594 909.046875 594.683594 C 909.046875 594.683594 908.882812 604.941406 909.046875 609.589844 C 909.207031 614.234375 911.929688 614.394531 914.171875 615.195312 C 916.414062 615.996094 916.574219 618.082031 916.574219 618.082031 L 918.175781 618.40625 L 918.980469 619.535156 L 921.382812 623.390625 L 922.023438 626.621094 C 922.023438 626.621094 922.824219 631.15625 923.464844 634.523438 C 924.105469 637.886719 925.867188 638.464844 925.867188 638.464844 L 926.027344 640.425781 L 927.46875 640.425781 L 928.429688 643.59375 L 929.390625 643.074219 L 928.910156 641.632812 L 929.550781 640.832031 L 931.15625 641.632812 C 931.15625 641.632812 930.835938 642.433594 931.636719 644.195312 C 932.433594 645.960938 933.71875 644.515625 934.199219 644.675781 C 934.679688 644.835938 935.960938 646.441406 936.601562 646.921875 C 937.242188 647.402344 940.125 648.042969 940.125 648.042969 L 944.292969 653.488281 L 946.054688 653.648438 L 946.535156 655.410156 L 947.976562 656.054688 C 947.976562 656.054688 948.777344 657.496094 949.417969 658.777344 C 950.058594 660.058594 951.660156 660.058594 951.660156 660.058594 C 952.304688 661.980469 954.226562 661.660156 954.226562 661.660156 L 956.46875 665.667969 L 956.789062 668.230469 C 956.789062 668.230469 955.347656 668.710938 954.546875 669.191406 C 953.746094 669.671875 953.585938 670.3125 952.785156 670.472656 C 951.980469 670.632812 951.019531 672.234375 951.019531 672.234375 L 955.347656 671.914062 C 955.347656 671.914062 959.03125 675.921875 960.636719 677.683594 C 962.238281 679.445312 965.28125 681.367188 965.28125 681.367188 L 969.609375 681.207031 C 969.609375 681.207031 971.371094 679.925781 972.8125 679.285156 C 974.253906 678.644531 975.375 677.363281 975.375 677.363281 C 975.375 677.363281 976.816406 677.84375 977.777344 678.164062 C 978.738281 678.484375 980.019531 678.964844 982.105469 678.804688 C 984.1875 678.644531 983.867188 677.203125 984.667969 677.042969 C 985.46875 676.882812 986.433594 675.921875 986.433594 675.921875 C 986.433594 675.921875 989.316406 675.121094 990.597656 675.601562 C 991.878906 676.082031 991.558594 675.441406 993.480469 675.441406 C 995.40625 675.441406 996.046875 674.476562 996.6875 674 C 997.328125 673.519531 999.570312 674.800781 999.570312 674.800781 C 999.570312 674.800781 1001.8125 673.839844 1002.933594 673.359375 C 1004.058594 672.878906 1006.621094 672.71875 1008.222656 672.234375 C 1009.824219 671.757812 1011.910156 670.476562 1011.910156 670.476562 C 1011.910156 670.476562 1012.390625 669.351562 1013.671875 669.03125 C 1014.953125 668.710938 1016.554688 670.152344 1016.554688 670.152344 L 1017.996094 670.476562 L 1017.519531 672.078125 C 1017.039062 672.878906 1016.71875 674.640625 1016.71875 674.640625 L 1017.679688 676.722656 L 1017.355469 679.609375 L 1015.753906 682.332031 L 1013.992188 691.625 L 1011.109375 695.152344 C 1011.109375 695.152344 1009.667969 697.714844 1008.0625 699.476562 C 1006.460938 701.238281 1006.621094 703.960938 1005.660156 705.726562 C 1004.699219 707.488281 1001.816406 712.777344 1001.175781 715.660156 C 1000.53125 718.542969 999.734375 718.382812 997.648438 720.144531 C 995.566406 721.910156 993.964844 724.792969 992.203125 728.15625 C 990.441406 731.519531 987.875 732.964844 986.433594 734.246094 C 984.992188 735.527344 980.34375 740.171875 980.34375 740.171875 L 976.5 744.980469 L 969.609375 747.542969 C 969.609375 747.542969 955.671875 760.203125 953.90625 762.125 C 952.144531 764.046875 951.023438 763.085938 951.023438 763.085938 L 950.703125 765.007812 L 942.371094 775.585938 C 942.371094 775.585938 941.089844 776.0625 939.484375 776.707031 C 937.882812 777.347656 937.242188 780.230469 937.242188 780.230469 L 934.039062 782.957031 L 932.277344 786.960938 C 932.277344 786.960938 929.234375 793.53125 929.074219 794.011719 C 928.910156 794.492188 925.867188 797.214844 925.867188 797.214844 C 925.867188 797.214844 925.066406 801.21875 923.625 804.585938 C 922.183594 807.949219 922.34375 811.15625 922.34375 811.15625 C 922.34375 811.15625 924.105469 811.796875 925.226562 813.558594 C 926.351562 815.320312 927.792969 817.242188 927.792969 817.242188 C 927.792969 817.242188 927.152344 817.722656 926.671875 819.808594 C 926.191406 821.890625 927.3125 824.613281 926.191406 825.253906 C 925.070312 825.894531 926.992188 828.941406 927.152344 830.222656 C 927.3125 831.503906 928.433594 833.910156 929.074219 835.511719 C 929.714844 837.113281 930.515625 840 930.515625 840 L 935.003906 842.726562 L 935.804688 844.496094 C 935.804688 844.496094 935.804688 848.832031 934.683594 850.753906 C 933.5625 852.679688 933.5625 859.914062 933.5625 859.914062 L 933.882812 872.9375 L 935.964844 875.597656 L 933.402344 881.394531 L 934.363281 881.394531 L 934.203125 883.046875 L 933.242188 883.257812 L 930.195312 887.746094 L 928.113281 888.867188 L 928.273438 890.628906 C 928.273438 890.628906 923.949219 893.835938 923.46875 894.15625 C 922.988281 894.476562 922.988281 894.957031 922.507812 895.597656 C 922.027344 896.238281 919.621094 896.71875 918.980469 896.71875 C 918.339844 896.71875 914.816406 898.320312 910.96875 899.921875 C 907.125 901.523438 905.523438 904.890625 905.523438 904.890625 L 903.441406 905.371094 L 904.082031 906.972656 L 901.039062 910.496094 L 899.433594 908.734375 L 898.792969 911.136719 C 898.792969 911.136719 897.992188 911.78125 897.511719 911.941406 C 897.03125 912.101562 893.988281 916.265625 893.027344 916.746094 C 892.0625 917.226562 890.785156 918.667969 890.785156 918.667969 L 888.699219 919.632812 L 888.859375 924.757812 L 891.425781 927.960938 C 891.425781 927.960938 891.425781 927.960938 891.746094 929.5625 C 892.066406 931.167969 893.828125 935.171875 893.828125 935.171875 L 894.148438 938.214844 L 894.628906 937.09375 L 895.269531 937.894531 C 895.269531 937.894531 895.269531 945.746094 894.148438 948.3125 C 893.027344 950.875 893.347656 954.238281 893.347656 954.238281 C 893.347656 954.238281 893.988281 952.636719 894.625 951.996094 C 895.269531 951.355469 893.503906 956 892.382812 958.085938 C 891.261719 960.167969 887.097656 960.96875 885.816406 961.289062 C 884.535156 961.609375 882.128906 961.609375 880.367188 963.371094 C 878.605469 965.136719 875.882812 965.617188 874.921875 966.417969 C 873.957031 967.21875 872.355469 970.421875 872.355469 970.421875 L 874.117188 972.183594 L 875.082031 971.382812 C 875.082031 971.382812 874.757812 975.390625 874.921875 976.992188 C 875.082031 978.59375 873.640625 981.15625 873.640625 981.15625 C 873.640625 981.15625 872.996094 985.964844 872.835938 986.925781 C 872.675781 987.886719 871.398438 990.449219 871.398438 991.890625 C 871.398438 993.332031 869.472656 993.976562 868.511719 994.777344 C 867.550781 995.578125 865.148438 996.859375 865.148438 996.859375 L 859.539062 1005.667969 L 853.289062 1015.445312 L 848.324219 1020.410156 L 843.355469 1027.300781 C 843.355469 1027.300781 836.304688 1033.871094 832.140625 1037.074219 C 827.972656 1040.277344 824.449219 1039.796875 822.367188 1039.636719 C 820.285156 1039.476562 818.839844 1040.597656 818.839844 1040.597656 L 819.160156 1043.003906 C 819.160156 1043.003906 816.117188 1042.523438 814.675781 1042.203125 C 813.234375 1041.878906 813.714844 1042.84375 812.273438 1043.964844 C 810.832031 1045.085938 802.820312 1042.363281 801.855469 1042.363281 C 800.894531 1042.363281 802.335938 1043.804688 798.492188 1043.324219 C 794.648438 1042.84375 792.082031 1043.003906 792.082031 1043.003906 L 789.199219 1044.765625 L 788.078125 1046.046875 L 782.148438 1045.886719 L 780.226562 1046.367188 L 777.5 1047.488281 C 777.5 1047.488281 777.5 1047.488281 776.058594 1048.769531 C 774.617188 1050.050781 771.414062 1048.128906 771.414062 1048.128906 L 769.492188 1047.808594 L 768.691406 1046.203125 L 765.164062 1045.566406 C 765.164062 1045.566406 765.804688 1043.480469 764.203125 1043.160156 C 762.601562 1042.839844 762.921875 1045.886719 762.921875 1045.886719 C 762.921875 1045.886719 761.320312 1042.523438 761.960938 1041.878906 C 762.601562 1041.238281 762.28125 1039.636719 762.28125 1039.636719 L 760.839844 1037.394531 L 758.917969 1035.152344 C 760.039062 1034.671875 757.636719 1032.265625 757.636719 1032.265625 L 758.277344 1030.183594 L 760.199219 1030.824219 L 761.480469 1029.0625 L 760.519531 1022.171875 C 760.519531 1022.171875 756.992188 1017.203125 756.351562 1015.605469 C 755.710938 1014 755.070312 1012.398438 754.589844 1011.757812 C 754.109375 1011.117188 752.667969 1007.113281 752.667969 1006.632812 C 752.667969 1006.152344 749.300781 997.820312 749.300781 997.820312 L 747.539062 995.09375 C 747.21875 993.492188 746.257812 993.492188 746.257812 993.492188 L 741.289062 988.847656 C 740.488281 987.085938 737.285156 982.597656 737.285156 982.597656 C 737.285156 982.597656 736.480469 977.953125 736.160156 976.347656 C 735.839844 974.746094 735.039062 973.785156 735.039062 972.503906 C 735.039062 971.222656 734.234375 968.976562 734.234375 968.976562 C 734.234375 968.976562 734.390625 963.210938 732.46875 958.242188 C 730.546875 953.277344 731.019531 947.507812 731.179688 943.503906 C 731.339844 939.496094 729.402344 938.054688 728.121094 936.292969 C 726.839844 934.53125 721.84375 924.757812 721.84375 924.757812 C 721.84375 924.757812 715.375 913.058594 714.574219 911.621094 C 713.773438 910.175781 712.375 909.214844 712.375 909.214844 L 709.417969 905.210938 L 709.417969 902.808594 L 709.011719 892.875 L 710.046875 892.550781 L 709.726562 886.945312 L 710.847656 885.503906 L 712.769531 879.894531 C 712.769531 879.894531 714.210938 874.929688 715.332031 870.441406 C 716.453125 865.957031 717.417969 865.476562 718.378906 864.671875 C 719.339844 863.875 719.019531 861.789062 719.019531 861.789062 C 719.019531 861.789062 720.78125 861.148438 722.222656 860.347656 C 723.664062 859.546875 725.585938 855.21875 725.75 852.976562 C 725.910156 850.734375 725.429688 848.011719 726.226562 847.371094 C 727.03125 846.730469 726.386719 844.484375 725.425781 843.683594 C 724.464844 842.882812 723.664062 841.441406 722.703125 839.519531 C 721.742188 837.59375 720.941406 833.429688 720.941406 832.46875 C 720.941406 831.507812 722.703125 830.226562 722.703125 830.226562 L 722.222656 825.738281 C 722.222656 825.738281 721.261719 824.457031 720.460938 823.015625 C 719.660156 821.574219 719.660156 817.566406 719.660156 817.566406 C 719.660156 817.566406 719.660156 817.566406 717.417969 815.003906 C 715.171875 812.441406 715.171875 810.199219 715.171875 810.199219 L 714.691406 807.152344 C 714.210938 806.671875 713.570312 805.550781 713.410156 804.589844 C 713.25 803.628906 712.929688 801.546875 712.449219 800.585938 C 711.96875 799.621094 710.367188 797.21875 709.085938 795.9375 C 707.804688 794.65625 707.964844 794.65625 707.480469 793.855469 C 707 793.054688 705.878906 792.734375 705.878906 792.734375 C 705.878906 792.734375 703.476562 790.171875 702.675781 788.890625 C 701.875 787.605469 696.585938 783.28125 695.304688 781.519531 C 694.023438 779.753906 690.816406 777.351562 690.816406 777.351562 L 686.972656 767.898438 C 686.972656 767.898438 689.054688 766.617188 690.335938 765.496094 C 691.617188 764.375 691.136719 763.414062 691.136719 761.492188 C 691.136719 759.566406 691.617188 760.050781 693.222656 761.011719 C 694.824219 761.972656 695.625 760.53125 695.625 760.53125 C 695.625 760.53125 694.824219 760.210938 693.542969 759.570312 C 692.257812 758.929688 691.457031 757.167969 691.457031 757.167969 L 693.0625 756.367188 C 692.738281 755.242188 693.542969 753.640625 693.542969 753.640625 L 691.777344 751.5625 C 691.777344 751.5625 694.664062 745.636719 694.503906 744.035156 C 694.34375 742.433594 696.105469 737.316406 696.105469 737.316406 L 694.183594 734.289062 L 692.257812 730.960938 L 688.734375 730.074219 L 687.292969 727.183594 L 685.320312 727.183594 L 685.320312 725.28125 L 683.421875 723.839844 L 682.484375 727.363281 C 682.484375 727.363281 677.679688 727.042969 677.199219 727.042969 C 676.71875 727.042969 674.636719 726.082031 674.152344 726.242188 C 673.671875 726.402344 673.511719 727.363281 673.511719 727.363281 L 670.46875 728.488281 L 667.425781 729.289062 L 666.785156 727.851562 L 665.019531 728.179688 L 663.578125 727.074219 C 663.578125 727.074219 661.175781 724.859375 660.855469 723.257812 C 660.535156 721.65625 661.015625 719.953125 661.015625 719.953125 L 659.734375 719.953125 C 659.734375 719.953125 658.773438 718.050781 657.972656 716.449219 C 657.167969 714.847656 654.605469 713.585938 652.683594 712.785156 C 650.761719 711.980469 643.390625 712.621094 639.222656 713.105469 C 635.058594 713.582031 628.808594 715.1875 628.808594 715.1875 L 626.886719 717.589844 C 626.886719 717.589844 625.925781 717.589844 625.285156 717.269531 C 624.644531 716.949219 622.722656 717.910156 621.4375 717.910156 C 620.160156 717.910156 615.351562 720.632812 614.390625 721.273438 C 613.429688 721.914062 608.941406 722.234375 608.140625 723.039062 C 607.335938 723.839844 603.972656 725.601562 603.972656 725.601562 C 603.972656 725.601562 596.285156 723.195312 595.160156 723.039062 C 594.039062 722.878906 590.996094 721.914062 588.433594 721.433594 C 585.871094 720.953125 574.972656 723.359375 571.929688 724 C 568.886719 724.640625 562.476562 728.324219 562.476562 728.324219 L 559.433594 727.523438 C 559.433594 727.523438 557.507812 727.523438 557.027344 726.882812 C 556.546875 726.242188 555.90625 726.5625 554.625 726.242188 C 553.34375 725.921875 550.617188 724.636719 549.976562 723.996094 C 549.335938 723.355469 546.773438 722.074219 546.773438 722.074219 C 546.773438 722.074219 544.53125 719.992188 542.605469 718.230469 C 540.683594 716.46875 537.960938 714.222656 537.960938 714.222656 C 537.960938 714.222656 535.398438 713.261719 534.757812 712.941406 C 534.113281 712.621094 533.152344 710.699219 533.152344 710.699219 L 532.03125 709.578125 C 532.03125 709.578125 532.03125 709.578125 531.550781 709.097656 C 531.070312 708.617188 529.46875 707.492188 529.46875 707.492188 L 522.578125 704.128906 C 522.257812 702.527344 518.734375 700.765625 518.734375 700.765625 C 518.414062 699.484375 517.773438 698.683594 516.96875 698.363281 C 516.167969 698.042969 516.167969 696.597656 516.167969 696.597656 L 517.289062 695.957031 L 516.328125 695.476562 C 516.328125 695.476562 516.328125 695.476562 516.167969 694.195312 C 516.007812 692.914062 515.367188 692.433594 515.367188 692.433594 L 515.847656 690.992188 C 515.847656 690.992188 514.886719 689.710938 513.765625 688.589844 C 512.644531 687.464844 512.324219 687.945312 512.324219 687.945312 C 512.324219 687.945312 512.324219 687.144531 511.363281 685.703125 C 510.402344 684.261719 507.675781 683.300781 506.714844 682.5 C 505.753906 681.695312 506.394531 678.652344 505.273438 678.492188 C 504.152344 678.332031 504.792969 677.210938 504.152344 676.730469 C 503.511719 676.25 503.511719 678.011719 502.550781 678.171875 C 501.589844 678.332031 501.265625 675.449219 501.265625 675.449219 C 501.265625 675.449219 501.265625 675.449219 499.824219 674.96875 C 498.382812 674.488281 499.5 672.886719 499.5 672.886719 L 498.855469 670.640625 C 498.855469 670.640625 500.132812 670.320312 500.773438 670.320312 C 501.414062 670.320312 503.644531 669.679688 503.644531 669.679688 L 503.292969 668.71875 C 503.292969 668.71875 500.03125 669.042969 497.949219 669.84375 C 495.867188 670.644531 494.953125 670.324219 494.953125 670.324219 L 494.953125 669.523438 C 494.953125 669.523438 493.785156 669.203125 492.664062 668.882812 C 491.542969 668.558594 491.972656 667.4375 491.972656 667.4375 C 491.972656 667.4375 491.972656 667.4375 489.410156 666.15625 C 486.847656 664.875 488.609375 662.632812 488.609375 661.03125 C 488.609375 659.429688 487.96875 657.824219 487.96875 657.824219 C 487.96875 657.824219 488.929688 656.703125 489.730469 655.902344 C 490.53125 655.101562 488.769531 653.339844 488.769531 653.339844 L 488.449219 651.414062 C 488.449219 651.414062 487.328125 649.972656 486.367188 649.011719 C 485.40625 648.050781 484.441406 646.609375 484.441406 646.609375 L 483 647.089844 L 482.042969 646.277344 C 484.289062 645.957031 487.332031 642.910156 487.972656 641.949219 C 488.613281 640.988281 489.734375 639.222656 489.734375 639.222656 C 489.734375 639.222656 490.535156 638.742188 490.375 637.140625 C 490.214844 635.539062 491.015625 632.492188 491.976562 629.765625 C 492.9375 627.042969 494.0625 622.230469 494.382812 617.421875 C 494.703125 612.613281 493.257812 611.480469 491.976562 610.039062 C 490.695312 608.597656 491.015625 608.410156 491.015625 608.410156 C 491.015625 608.410156 491.65625 608.351562 491.976562 607.875 C 492.296875 607.394531 492.9375 602.636719 492.9375 601.195312 C 492.9375 599.753906 491.816406 598.253906 491.816406 598.253906 L 490.214844 598.253906 L 488.613281 595.027344 L 487.011719 595.003906 L 487.492188 589.078125 C 487.492188 589.078125 488.773438 585.871094 489.09375 585.230469 C 489.414062 584.589844 491.175781 584.269531 491.175781 584.269531 L 493.902344 578.824219 L 493.257812 577.21875 C 493.257812 577.21875 494.382812 576.097656 495.664062 574.496094 C 496.945312 572.894531 497.050781 570.863281 497.691406 570.222656 C 498.335938 569.582031 500.46875 567.234375 501.539062 565.523438 C 502.609375 563.8125 504.316406 561.464844 504.316406 561.464844 C 504.316406 561.464844 504.101562 559.757812 504.742188 558.261719 C 505.382812 556.765625 506.238281 553.773438 506.878906 552.492188 C 507.519531 551.210938 509.65625 549.5 510.9375 549.074219 C 512.21875 548.644531 514.144531 546.507812 514.144531 546.507812 C 514.144531 546.507812 514.785156 545.015625 515.636719 542.878906 C 516.492188 540.742188 518.253906 537.804688 518.253906 537.804688 L 519.054688 536.683594 C 521.140625 536.523438 528.992188 534.441406 530.753906 532.515625 C 532.515625 530.59375 535.398438 528.832031 536.519531 528.191406 C 537.640625 527.550781 538.28125 526.585938 538.601562 526.105469 C 538.921875 525.625 539.882812 525.625 540.84375 524.023438 C 541.804688 522.421875 543.886719 518.414062 543.886719 518.414062 L 544.039062 515.050781 L 542.746094 512.007812 C 542.746094 512.007812 542.726562 508 542.886719 506.558594 C 543.046875 505.121094 544.121094 504.316406 545.082031 503.035156 C 546.046875 501.753906 545.792969 500.792969 545.792969 500.792969 L 547.050781 500.3125 L 547.972656 496.945312 L 547.972656 494.703125 C 547.972656 494.703125 552.820312 489.585938 553.460938 488.945312 C 554.101562 488.304688 558.789062 486.550781 562.152344 484.949219 C 565.515625 483.347656 566.953125 480.964844 567.597656 479.683594 C 568.238281 478.402344 569.1875 477.800781 570.148438 476.679688 C 571.109375 475.558594 571.570312 472.113281 572.050781 470.511719 C 572.53125 468.910156 573.773438 465.863281 574.253906 465.222656 C 574.734375 464.582031 577.539062 464.742188 577.539062 464.742188 C 578.820312 467.304688 583.628906 470.347656 585.230469 470.507812 Z M 962.574219 903.523438 C 964.015625 905.925781 963.535156 910.734375 965.457031 914.578125 C 967.378906 918.425781 963.535156 919.863281 962.09375 922.269531 C 960.652344 924.671875 958.726562 928.996094 956.804688 932.84375 C 954.882812 936.6875 955.363281 942.457031 956.804688 943.898438 C 958.246094 945.339844 958.246094 949.183594 959.207031 952.550781 C 960.171875 955.914062 960.648438 959.757812 962.574219 963.125 C 964.496094 966.488281 966.417969 965.527344 969.78125 966.96875 C 973.144531 968.410156 973.144531 965.527344 976.992188 965.046875 C 980.835938 964.566406 980.835938 964.085938 983.242188 963.121094 C 985.644531 962.160156 987.085938 958.316406 987.566406 954.953125 C 988.046875 951.585938 991.890625 941.011719 993.335938 936.207031 C 994.773438 931.398438 1000.0625 916.5 1000.542969 913.617188 C 1001.023438 910.730469 1003.90625 901.117188 1002.945312 898.714844 C 1001.984375 896.3125 1005.351562 894.390625 1006.3125 892.464844 C 1007.273438 890.542969 1005.832031 886.699219 1005.832031 883.332031 C 1005.832031 879.96875 1009.195312 886.699219 1009.195312 886.699219 C 1009.195312 886.699219 1010.636719 879.96875 1009.675781 876.605469 C 1008.714844 873.238281 1009.195312 870.835938 1007.273438 866.511719 C 1005.351562 862.183594 1001.984375 857.378906 1001.984375 857.378906 L 999.101562 858.339844 C 999.101562 858.339844 998.621094 861.226562 999.101562 863.148438 C 999.582031 865.070312 996.214844 866.03125 995.257812 867.472656 C 994.292969 868.914062 991.410156 867.953125 991.410156 867.953125 L 990.929688 872.757812 L 990.449219 876.121094 L 986.605469 879.488281 L 985.164062 883.332031 C 985.164062 883.332031 982.761719 882.371094 980.839844 882.851562 C 978.914062 883.332031 981.320312 888.140625 981.320312 888.140625 L 977.472656 885.738281 L 974.589844 884.777344 L 972.1875 888.140625 L 969.785156 887.660156 L 964.496094 889.101562 L 964.015625 893.910156 L 959.691406 899.195312 C 959.691406 899.195312 961.128906 901.121094 962.574219 903.523438 Z M 962.574219 903.523438 " fill-opacity="1" fill-rule="nonzero"/></svg>