<svg xmlns="http://www.w3.org/2000/svg" xmlns:xlink="http://www.w3.org/1999/xlink" width="2000" zoomAndPan="magnify" viewBox="400 400 700 700" height="2000" preserveAspectRatio="xMidYMid meet" version="1.0"><defs><clipPath id="10e7595845"><path d="M 451 520.3125 L 1050 520.3125 L 1050 979 L 451 979 Z M 451 520.3125 " clip-rule="nonzero"/></clipPath></defs><g clip-path="url(#10e7595845)"><path fill="#ac6d46" d="M 713.011719 521.445312 C 714.523438 522.199219 727.359375 525.972656 730.375 527.484375 C 733.398438 528.992188 737.925781 531.257812 737.925781 531.257812 C 737.925781 531.257812 737.925781 531.257812 739.8125 532.769531 C 741.699219 534.277344 748.117188 537.296875 750.003906 539.941406 C 751.890625 542.582031 752.269531 545.601562 752.269531 545.601562 C 752.269531 545.601562 756.421875 547.109375 759.820312 548.621094 C 763.214844 550.132812 765.480469 550.132812 767.367188 551.261719 C 769.253906 552.394531 769.632812 556.925781 768.5 557.679688 C 767.367188 558.433594 763.96875 558.8125 763.96875 558.8125 C 763.96875 558.8125 763.96875 562.210938 765.101562 562.964844 C 766.234375 563.71875 766.988281 565.230469 768.5 566.738281 C 770.007812 568.25 773.40625 570.136719 773.785156 571.269531 C 774.160156 572.402344 774.160156 574.289062 775.671875 575.796875 C 777.183594 577.308594 778.3125 578.816406 778.3125 578.816406 L 782.84375 579.574219 C 782.84375 579.574219 782.464844 582.214844 784.351562 582.96875 C 786.238281 583.726562 789.636719 584.480469 789.636719 584.480469 L 788.882812 586.746094 L 797.566406 589.765625 L 794.921875 592.785156 L 791.902344 593.160156 L 789.261719 590.894531 L 769.257812 587.5 L 762.839844 581.835938 L 762.460938 579.949219 L 760.195312 579.570312 C 760.195312 579.570312 757.933594 578.0625 756.796875 576.175781 C 755.667969 574.289062 755.289062 571.644531 754.15625 570.511719 C 753.023438 569.378906 747.363281 568.246094 745.097656 567.117188 C 742.832031 565.984375 740.570312 565.230469 737.550781 565.605469 C 734.53125 565.984375 733.398438 565.230469 733.398438 565.230469 L 732.640625 568.628906 L 730 570.890625 L 725.46875 572.402344 L 728.488281 577.308594 C 728.488281 577.308594 727.359375 579.195312 726.222656 579.949219 C 725.089844 580.703125 722.828125 581.082031 721.695312 580.328125 C 720.5625 579.574219 716.789062 580.703125 716.789062 580.703125 L 711.125 579.574219 L 707.820312 578.0625 L 707.730469 520.3125 C 707.730469 520.3125 711.503906 520.6875 713.011719 521.445312 Z M 774.160156 545.320312 C 774.160156 545.320312 774.539062 549.425781 777.9375 550.554688 C 781.335938 551.6875 783.222656 552.042969 783.222656 552.042969 C 783.222656 552.042969 784.730469 552.03125 786.238281 552.785156 C 787.75 553.542969 790.390625 553.910156 793.410156 553.15625 C 796.429688 552.402344 800.585938 551.5 802.472656 550.367188 C 804.359375 549.234375 803.605469 546.824219 805.867188 546.824219 C 808.132812 546.824219 808.132812 546.824219 808.132812 546.824219 C 808.132812 546.824219 807 542.34375 808.890625 541.964844 C 810.777344 541.589844 810.777344 537.746094 810.777344 536.613281 C 810.777344 535.480469 810.398438 533.558594 809.265625 534.3125 C 808.132812 535.066406 807.378906 535.804688 805.867188 534.671875 C 804.359375 533.542969 804.738281 536.175781 804.738281 538.0625 C 804.738281 539.949219 803.980469 541.078125 802.472656 541.832031 C 800.960938 542.585938 799.828125 544.472656 797.941406 545.226562 C 796.054688 545.980469 796.054688 545.980469 794.542969 545.980469 C 793.035156 545.980469 791.144531 546.359375 791.144531 546.359375 L 782.464844 547.113281 Z M 703.390625 658.273438 C 703.390625 658.273438 702.164062 659.6875 700.277344 660.066406 C 698.390625 660.441406 697.773438 661.148438 695.886719 660.019531 C 694 658.886719 690.671875 657.351562 689.164062 655.839844 C 687.652344 654.332031 687.3125 652.8125 685.800781 652.054688 C 684.292969 651.300781 678.269531 647.898438 676.007812 647.144531 C 673.742188 646.386719 671.484375 644.121094 671.484375 644.121094 L 665.449219 642.609375 L 662.8125 644.496094 L 662.058594 638.078125 L 658.660156 635.8125 L 656.773438 635.433594 L 655.265625 633.171875 L 659.417969 622.976562 L 657.152344 621.847656 L 659.039062 618.449219 L 660.925781 618.828125 L 663.945312 616.9375 L 663.566406 613.921875 L 666.972656 610.523438 L 663.585938 608.636719 L 663.585938 605.996094 L 661.40625 607.125 L 661.167969 609.769531 L 659.421875 611.277344 L 659.421875 609.015625 L 656.492188 605.996094 C 656.492188 605.996094 653.425781 607.882812 651.914062 608.257812 C 650.40625 608.636719 648.113281 607.125 648.113281 607.125 C 648.113281 607.125 644.328125 607.125 642.441406 605.996094 C 640.554688 604.863281 638.28125 603.730469 638.28125 603.730469 L 631.109375 602.976562 C 631.109375 602.976562 629.21875 601.089844 627.710938 600.332031 C 626.199219 599.578125 622.425781 599.953125 622.425781 599.953125 C 622.425781 599.953125 622.425781 601.84375 623.933594 601.84375 C 625.445312 601.84375 628.085938 602.597656 628.085938 604.484375 C 628.085938 606.371094 627.328125 608.636719 625.441406 608.636719 C 623.554688 608.636719 616.382812 609.015625 616.382812 609.015625 L 613.742188 609.390625 L 610.722656 611.28125 C 610.722656 611.28125 609.210938 612.410156 607.324219 613.167969 C 605.4375 613.921875 605.4375 617.320312 605.4375 617.320312 C 605.4375 617.320312 608.835938 619.960938 605.4375 620.339844 L 603.171875 619.582031 C 603.171875 619.582031 603.925781 621.09375 602.417969 622.980469 C 600.90625 624.867188 598.644531 626 598.644531 626 L 599.023438 629.019531 L 601.664062 632.039062 L 601.285156 633.546875 L 600.910156 636.191406 C 600.910156 636.191406 598.644531 633.925781 596.757812 633.171875 C 594.871094 632.414062 590.339844 632.414062 590.339844 632.414062 L 586.941406 636.191406 L 586.566406 632.039062 C 586.566406 632.039062 585.054688 630.527344 583.921875 628.640625 C 582.792969 626.753906 580.148438 624.488281 578.261719 624.109375 C 576.375 623.734375 574.488281 623.355469 574.488281 623.355469 C 574.488281 623.355469 573.730469 625.242188 572.222656 626 C 570.710938 626.753906 567.691406 627.128906 567.691406 627.128906 L 565.425781 630.90625 L 564.292969 629.394531 L 560.519531 631.28125 C 560.519531 631.28125 559.765625 633.546875 560.519531 634.679688 C 561.277344 635.8125 558.632812 635.570312 558.632812 635.570312 L 557.878906 639.484375 L 555.234375 639.484375 C 555.234375 639.484375 555.992188 641.140625 554.859375 643.40625 C 553.726562 645.671875 552.972656 643.949219 554.101562 647.347656 C 554.101562 647.347656 551.839844 649.125 550.707031 647.996094 C 549.574219 646.863281 549.574219 646.808594 549.574219 646.808594 L 545.796875 645.652344 C 545.796875 645.652344 543.910156 647.523438 545.042969 649.035156 C 546.175781 650.546875 546.929688 652.800781 546.929688 652.800781 L 545.042969 655.0625 L 543.910156 658.835938 L 539.003906 648.269531 C 539.003906 648.269531 538.628906 651.664062 536.738281 652.042969 C 534.851562 652.417969 531.457031 653.550781 531.832031 655.816406 C 532.210938 658.082031 532.964844 663.367188 532.964844 663.367188 L 528.058594 669.78125 L 526.925781 672.800781 L 519.378906 679.21875 C 519.378906 679.21875 514.847656 681.105469 511.449219 681.859375 C 508.054688 682.613281 506.164062 682.238281 503.902344 682.992188 C 501.636719 683.746094 500.125 684.503906 497.484375 685.257812 C 494.84375 686.011719 492.199219 688.652344 489.9375 688.652344 C 487.671875 688.652344 482.386719 686.765625 482.386719 686.765625 C 482.386719 686.765625 477.855469 690.164062 475.96875 690.917969 C 474.082031 691.675781 471.820312 695.449219 470.308594 696.203125 C 468.796875 696.957031 467.667969 698.089844 465.023438 698.847656 C 462.382812 699.601562 460.871094 702.621094 460.117188 703.753906 C 459.363281 704.886719 457.453125 706.019531 457.453125 706.019531 L 457.429688 700.734375 L 457.429688 699.222656 L 454.148438 704.128906 C 454.148438 704.128906 453.550781 706.394531 454.300781 709.792969 C 455.054688 713.1875 455.511719 716.207031 454 717.71875 C 452.492188 719.230469 451.019531 720.742188 451.019531 723.007812 C 451.019531 725.269531 454.058594 730.933594 455.570312 732.0625 C 457.082031 733.195312 458.601562 739.992188 458.601562 741.5 C 458.601562 743.011719 457.472656 746.03125 457.472656 746.03125 C 457.472656 746.03125 455.585938 744.144531 453.699219 742.253906 C 451.8125 740.367188 450.304688 742.632812 452.566406 746.03125 C 454.832031 749.429688 457.476562 752.824219 458.230469 754.710938 C 458.984375 756.597656 460.875 764.902344 460.875 764.902344 C 460.875 764.902344 463.136719 769.8125 464.648438 771.699219 C 466.15625 773.585938 466.15625 779.625 466.535156 782.644531 C 466.914062 785.664062 470.308594 792.835938 470.308594 792.835938 C 470.308594 792.835938 471.441406 798.121094 472.953125 800.007812 C 474.460938 801.894531 473.707031 807.933594 473.707031 809.066406 C 473.707031 810.199219 474.085938 818.125 474.085938 818.125 L 469.179688 822.277344 L 467.667969 821.898438 L 468.046875 827.941406 C 468.046875 827.941406 469.554688 827.941406 471.820312 829.828125 C 474.085938 831.710938 477.480469 834.734375 478.992188 835.488281 C 480.5 836.246094 481.632812 835.867188 483.523438 836.621094 C 485.410156 837.378906 488.050781 836.996094 489.9375 837.378906 C 491.828125 837.757812 494.089844 837.378906 494.089844 837.378906 C 494.089844 837.378906 494.847656 836.621094 497.109375 834.734375 C 499.375 832.847656 503.90625 830.960938 505.414062 830.582031 C 506.925781 830.207031 508.8125 827.941406 508.8125 827.941406 C 508.8125 827.941406 511.832031 823.789062 514.472656 823.789062 C 517.117188 823.789062 522.023438 824.167969 523.152344 824.167969 C 524.285156 824.167969 528.816406 823.035156 530.703125 823.035156 C 532.589844 823.035156 538.25 824.167969 540.515625 824.167969 C 542.78125 824.167969 546.554688 822.65625 546.554688 822.65625 C 546.554688 822.65625 549.953125 820.769531 549.953125 819.257812 C 549.953125 817.75 549.574219 814.730469 553.347656 813.597656 C 557.125 812.464844 558.632812 812.085938 561.652344 810.578125 C 564.671875 809.066406 565.050781 805.671875 569.203125 806.046875 C 573.355469 806.425781 580.527344 806.046875 583.167969 805.671875 C 585.8125 805.292969 588.453125 804.539062 591.472656 802.652344 C 594.492188 800.765625 602.042969 799.253906 606.949219 799.253906 C 611.855469 799.253906 614.496094 798.5 617.515625 799.253906 C 620.535156 800.007812 620.914062 802.273438 625.445312 803.40625 C 629.972656 804.539062 631.863281 805.292969 634.503906 806.046875 C 637.144531 806.804688 638.277344 808.3125 641.296875 809.066406 C 644.316406 809.820312 643.941406 811.707031 643.941406 811.707031 C 643.941406 811.707031 640.542969 812.839844 643.183594 815.105469 C 645.828125 817.371094 648.46875 818.125 648.46875 818.125 C 648.46875 818.125 648.847656 820.011719 650.355469 822.65625 C 651.867188 825.296875 652.621094 827.941406 653.375 829.828125 C 654.132812 831.714844 653 833.226562 653 833.226562 L 658.28125 836.246094 L 660.167969 834.359375 L 659.414062 832.847656 C 659.414062 832.847656 662.433594 828.695312 663.945312 827.1875 C 665.453125 825.675781 666.964844 823.789062 668.472656 823.414062 C 669.984375 823.035156 669.984375 823.035156 669.984375 823.035156 L 674.890625 814.355469 L 676.023438 809.824219 C 676.023438 809.824219 676.777344 812.089844 677.53125 815.109375 C 678.289062 818.125 677.53125 816.996094 677.15625 819.636719 C 676.777344 822.28125 675.644531 821.902344 674.511719 825.300781 C 673.378906 828.695312 674.136719 832.09375 673.003906 833.980469 C 671.871094 835.871094 668.097656 837 668.097656 837 C 668.097656 837 666.210938 838.886719 667.339844 839.265625 C 668.472656 839.644531 670.359375 839.644531 672.625 839.644531 C 674.890625 839.644531 677.15625 834.359375 677.15625 834.359375 L 678.664062 829.074219 C 678.664062 829.074219 684.328125 832.09375 682.816406 837.378906 C 681.308594 842.664062 679.796875 844.925781 679.796875 844.925781 C 679.796875 844.925781 686.96875 841.910156 688.855469 841.53125 C 690.742188 841.152344 689.609375 845.304688 689.609375 845.304688 C 689.609375 845.304688 691.121094 847.191406 693.007812 849.835938 C 694.894531 852.476562 695.273438 856.253906 693.761719 858.515625 C 693.761719 858.515625 694.894531 863.046875 696.027344 864.179688 C 697.160156 865.3125 698.671875 865.3125 699.804688 867.199219 C 700.933594 869.085938 703.578125 870.972656 706.21875 872.105469 C 708.863281 873.238281 709.617188 875.503906 709.617188 875.503906 C 709.617188 875.503906 712.636719 873.617188 715.277344 874.746094 C 717.921875 875.878906 720.5625 875.878906 722.449219 877.011719 C 724.335938 878.144531 727.359375 880.785156 727.359375 880.785156 C 727.359375 880.785156 731.886719 880.03125 733.773438 877.769531 C 735.660156 875.503906 739.8125 873.617188 739.8125 873.617188 L 737.171875 871.730469 L 742.457031 869.464844 L 742.832031 874.746094 L 746.984375 874.371094 C 746.984375 874.371094 746.230469 875.878906 747.363281 877.011719 C 748.496094 878.144531 750.003906 878.523438 751.515625 880.03125 C 753.023438 881.542969 755.539062 883.808594 755.539062 883.808594 L 757.292969 880.785156 L 757.292969 878.523438 C 757.292969 878.523438 759.40625 879.65625 761.292969 878.144531 C 763.179688 876.636719 765.839844 873.992188 769.238281 871.730469 C 772.632812 869.464844 777.550781 867.199219 779.816406 868.332031 C 782.082031 869.464844 785.859375 867.953125 785.859375 867.953125 L 786.238281 865.6875 L 788.882812 862.667969 C 788.882812 862.667969 787.75 859.648438 788.125 858.515625 C 788.503906 857.386719 789.636719 853.609375 789.636719 853.609375 L 791.144531 845.683594 C 791.144531 845.683594 793.789062 840.398438 794.164062 839.265625 C 794.542969 838.136719 797.183594 833.226562 798.316406 830.210938 C 799.449219 827.1875 800.960938 822.660156 800.960938 822.660156 C 800.960938 822.660156 802.46875 816.996094 804.359375 815.109375 C 806.246094 813.222656 808.886719 812.089844 810.773438 808.691406 C 812.660156 805.296875 815.679688 801.898438 816.054688 798.125 C 816.433594 794.351562 817.191406 789.066406 817.945312 785.667969 C 818.699219 782.273438 820.585938 775.101562 820.585938 770.570312 C 820.585938 766.039062 820.210938 761.890625 818.699219 756.226562 C 817.191406 750.566406 816.8125 746.792969 816.433594 743.773438 C 816.054688 740.753906 816.054688 739.996094 814.546875 736.222656 C 813.039062 732.449219 810.773438 727.917969 809.640625 727.542969 C 808.507812 727.164062 808.132812 727.542969 806.625 725.277344 C 805.113281 723.011719 803.226562 721.878906 803.226562 721.878906 L 800.960938 720.746094 C 800.960938 720.746094 796.429688 717.726562 796.050781 715.460938 C 795.675781 713.199219 794.164062 705.648438 794.164062 705.648438 L 792.65625 707.160156 L 789.257812 702.628906 C 789.257812 702.628906 786.992188 703.382812 786.992188 704.515625 C 786.992188 705.648438 785.484375 705.648438 785.484375 705.648438 L 783.597656 697.34375 L 781.332031 695.457031 L 779.824219 690.550781 L 776.046875 688.285156 C 776.046875 688.285156 776.425781 684.890625 777.558594 685.644531 C 778.691406 686.398438 774.539062 682.625 774.539062 682.625 L 773.027344 683.378906 L 767.746094 679.984375 L 764.726562 675.074219 C 764.726562 675.074219 763.601562 677.339844 760.203125 675.074219 C 756.804688 672.8125 754.171875 672.054688 754.171875 672.054688 L 754.171875 667.902344 C 754.171875 667.902344 751.617188 666.773438 751.617188 664.882812 C 751.617188 662.996094 753.261719 659.222656 752.507812 656.957031 C 751.753906 654.695312 750.6875 652.429688 750.6875 652.429688 C 750.6875 652.429688 748.265625 652.804688 747.511719 649.410156 C 746.753906 646.011719 745.839844 638.464844 745.839844 638.464844 L 745.839844 634.6875 C 745.839844 634.6875 743.488281 633.179688 741.601562 630.914062 C 739.714844 628.648438 738.441406 626.761719 738.441406 626.761719 C 738.441406 626.761719 736.109375 627.894531 733.84375 627.894531 C 731.578125 627.894531 730.410156 624.875 730.410156 624.875 C 730.410156 624.875 730.015625 620.34375 729.261719 618.457031 C 728.503906 616.570312 727.742188 614.304688 727.742188 614.304688 L 727.363281 611.660156 L 725.09375 609.863281 L 725.46875 606.175781 L 722.449219 606.175781 L 722.074219 596.179688 L 720.941406 593.730469 L 717.542969 595.902344 C 717.542969 595.902344 717.917969 596.609375 716.789062 598.496094 C 715.65625 600.382812 714.144531 601.871094 714.144531 603.382812 C 714.144531 604.890625 711.878906 607.144531 711.878906 607.144531 L 710.371094 610.914062 C 710.371094 610.914062 712.636719 611.664062 711.878906 613.929688 C 711.125 616.195312 712.257812 617.324219 711.125 620.34375 C 709.992188 623.363281 710.367188 624.496094 710.75 628.269531 C 711.125 632.046875 711.878906 634.308594 710.75 636.953125 C 709.613281 639.59375 709.613281 641.480469 708.105469 645.253906 C 706.597656 649.03125 704.710938 652.425781 704.332031 654.691406 C 703.957031 656.953125 703.390625 658.273438 703.390625 658.273438 Z M 608.082031 600.332031 C 608.082031 600.332031 609.96875 604.109375 611.855469 604.484375 C 613.742188 604.863281 615.628906 603.730469 616.761719 602.597656 C 617.894531 601.464844 617.140625 599.199219 616.007812 599.199219 C 614.875 599.199219 614.496094 600.710938 612.609375 600.332031 C 610.722656 599.957031 608.082031 600.332031 608.082031 600.332031 Z M 605.0625 605.128906 L 608.835938 605.128906 L 606.195312 601.730469 Z M 679.042969 846.8125 L 677.777344 846.25 L 675.648438 845.300781 L 673.382812 843.035156 L 664.699219 846.433594 C 664.699219 846.433594 665.832031 849.078125 668.476562 849.078125 C 671.117188 849.078125 674.136719 849.453125 674.136719 849.453125 C 674.136719 849.453125 673.757812 846.433594 679.042969 846.8125 Z M 740.472656 902.675781 C 740.472656 902.675781 740.519531 907.960938 742.03125 911.359375 C 743.539062 914.753906 745.453125 918.152344 746.582031 920.039062 C 747.714844 921.925781 747.726562 921.925781 747.726562 921.925781 L 746.980469 923.4375 L 745.472656 922.300781 L 746.605469 927.589844 C 746.605469 927.589844 748.589844 930.605469 749.726562 932.117188 C 750.859375 933.628906 752.089844 934.761719 752.089844 934.761719 C 754.171875 934.761719 752.089844 936.269531 752.089844 936.269531 C 752.089844 936.269531 754.351562 938.15625 755.859375 938.15625 C 757.367188 938.15625 759.351562 938.53125 759.351562 938.53125 C 759.351562 938.53125 760.152344 934.382812 761.660156 933.625 C 763.171875 932.871094 764.324219 934 765.082031 932.117188 C 765.835938 930.230469 765.46875 927.964844 767.359375 928.339844 C 769.246094 928.71875 771.136719 927.964844 771.136719 925.699219 C 771.136719 923.433594 772.648438 921.925781 773.027344 919.660156 C 773.40625 917.394531 773.40625 915.507812 773.40625 913.242188 C 773.40625 910.980469 772.652344 906.449219 772.652344 906.449219 L 770.765625 903.429688 C 770.765625 903.429688 770.007812 905.695312 767.746094 904.5625 C 767.746094 904.5625 765.105469 906.828125 763.972656 906.828125 C 762.839844 906.828125 762.839844 906.449219 760.953125 907.207031 C 759.066406 907.960938 759.820312 907.960938 756.421875 907.582031 C 753.023438 907.207031 753.78125 909.09375 751.140625 906.824219 C 748.496094 904.5625 748.496094 904.183594 746.609375 903.808594 C 744.71875 903.429688 744.71875 903.429688 744.71875 903.429688 Z M 991.105469 908.335938 L 989.640625 912.488281 C 989.640625 912.488281 987.777344 913.621094 986.648438 915.132812 C 985.515625 916.640625 984.015625 917.394531 984.015625 919.285156 C 984.015625 921.171875 982.132812 925.699219 980.246094 927.589844 C 978.359375 929.476562 978.363281 931.363281 976.855469 931.363281 C 975.34375 931.363281 973.457031 933.628906 973.457031 933.628906 C 973.457031 933.628906 972.703125 935.890625 970.816406 936.648438 C 968.929688 937.402344 962.136719 942.308594 962.136719 942.308594 L 955.71875 944.574219 C 955.71875 944.574219 955.34375 946.082031 953.832031 947.59375 C 952.320312 949.101562 953.074219 949.480469 951.945312 950.992188 C 950.8125 952.5 949.300781 952.5 949.300781 954.386719 C 949.300781 956.273438 947.039062 956.652344 947.039062 956.652344 L 944.394531 959.292969 C 944.394531 959.292969 942.886719 961.9375 943.261719 963.070312 C 943.640625 964.203125 941.375 967.597656 941.375 967.597656 L 941.753906 970.996094 C 941.753906 970.996094 943.640625 974.394531 946.28125 972.882812 C 948.925781 971.375 951.191406 973.261719 951.191406 973.261719 L 955.71875 975.902344 C 955.71875 975.902344 957.984375 978.546875 959.117188 978.167969 C 960.25 977.789062 962.515625 976.65625 962.515625 976.65625 C 962.515625 976.65625 964.402344 979.675781 967.796875 977.035156 C 971.195312 974.394531 972.707031 974.769531 974.214844 973.261719 C 975.726562 971.75 978.367188 969.863281 978.367188 969.863281 C 978.367188 969.863281 978.367188 966.84375 979.5 964.957031 C 980.632812 963.070312 981.007812 959.671875 981.765625 958.160156 C 982.519531 956.652344 983.652344 952.5 984.027344 950.613281 C 984.410156 948.726562 984.027344 943.0625 985.539062 943.820312 C 987.050781 944.574219 990.445312 942.6875 990.445312 942.6875 L 994.222656 941.554688 L 999.503906 942.308594 L 999.128906 940.421875 L 996.863281 939.667969 L 997.996094 933.628906 C 997.996094 933.628906 998.75 930.988281 1001.769531 928.71875 C 1004.789062 926.457031 1006.300781 922.304688 1007.429688 921.171875 C 1008.5625 920.039062 1010.828125 914 1010.828125 914 C 1010.828125 914 1008.5625 912.113281 1009.320312 910.222656 C 1010.074219 908.335938 1010.074219 908.335938 1010.074219 908.335938 L 1007.054688 909.46875 L 1006.300781 905.695312 C 1006.300781 905.695312 1004.230469 908.335938 1002.34375 909.847656 C 1000.453125 911.355469 999.894531 909.847656 999.894531 908.714844 C 999.894531 907.582031 999.894531 906.074219 999.894531 906.074219 L 997.152344 904.5625 L 996.628906 901.164062 L 994.292969 903.429688 L 990.859375 904.941406 Z M 1015.261719 910.980469 L 1018.707031 912.113281 L 1021.753906 913.246094 L 1025.914062 910.222656 C 1025.914062 910.222656 1030.449219 900.789062 1032.339844 898.902344 C 1034.226562 897.011719 1036.117188 891.726562 1036.117188 891.726562 L 1034.605469 887.953125 C 1034.605469 887.953125 1034.632812 885.3125 1038.027344 884.554688 C 1041.425781 883.804688 1042.582031 883.046875 1042.582031 883.046875 L 1042.582031 884.933594 L 1045.296875 884.179688 L 1044.292969 881.160156 L 1045.113281 878.894531 L 1048.164062 877.386719 C 1048.164062 877.386719 1047.800781 870.96875 1048.9375 868.703125 L 1049.699219 867.195312 L 1045.171875 865.683594 L 1041.019531 867.949219 L 1038.757812 870.214844 C 1038.757812 870.214844 1036.871094 871.347656 1033.476562 869.460938 C 1030.078125 867.574219 1027.4375 867.195312 1027.4375 867.195312 L 1025.167969 864.550781 L 1024.039062 857.003906 L 1021.019531 854.359375 C 1021.019531 854.359375 1022.90625 861.910156 1021.019531 861.53125 C 1019.132812 861.15625 1019.132812 859.265625 1019.132812 859.265625 L 1016.492188 858.511719 L 1014.605469 856.625 L 1015.359375 853.605469 L 1012.339844 847.1875 L 1012.714844 844.925781 L 1010.453125 841.148438 L 1007.433594 836.996094 L 1002.527344 835.109375 L 998.75 833.601562 L 1000.261719 836.996094 L 1001.015625 841.148438 L 1006.300781 849.832031 C 1006.300781 849.832031 1009.699219 849.832031 1010.832031 850.964844 C 1011.964844 852.097656 1011.585938 854.363281 1011.585938 854.363281 L 1012.71875 859.269531 C 1012.71875 859.269531 1016.113281 860.777344 1014.226562 861.15625 C 1012.339844 861.53125 1014.605469 863.421875 1014.605469 863.421875 L 1015.738281 866.0625 L 1016.113281 869.835938 L 1015.738281 872.480469 L 1013.472656 873.234375 C 1013.472656 873.234375 1015.359375 875.878906 1012.714844 879.273438 C 1010.074219 882.671875 1007.808594 884.179688 1006.675781 884.933594 C 1005.542969 885.691406 1005.921875 887.578125 1007.433594 888.332031 C 1008.941406 889.085938 1010.832031 890.21875 1011.964844 891.351562 C 1013.09375 892.484375 1014.605469 893.617188 1016.113281 893.992188 C 1017.625 894.371094 1020.265625 894.75 1019.890625 898.144531 C 1019.511719 901.542969 1018.003906 904.5625 1016.871094 906.074219 C 1015.734375 907.582031 1013.28125 909.46875 1015.261719 910.980469 Z M 1015.261719 910.980469 " fill-opacity="1" fill-rule="nonzero"/></g></svg>