<svg xmlns="http://www.w3.org/2000/svg" xmlns:xlink="http://www.w3.org/1999/xlink" width="2000" zoomAndPan="magnify" viewBox="400 400 700 700" height="2000" preserveAspectRatio="xMidYMid meet" version="1.0"><path fill="#ac6d46" d="M 991.511719 712.632812 C 991.984375 716.316406 993.511719 716.941406 994.214844 718.703125 C 994.921875 720.46875 994.097656 721.289062 993.628906 723.054688 C 993.160156 724.816406 992.574219 726.695312 993.238281 728.148438 C 993.90625 729.597656 996.332031 729.28125 997.46875 729.085938 C 998.605469 728.890625 998.566406 734.925781 998.566406 734.925781 L 997.46875 737.707031 L 994.960938 738.492188 C 994.960938 738.492188 994.6875 739.507812 994.335938 741.15625 C 993.980469 742.800781 992.453125 743.269531 991.160156 743.976562 C 989.871094 744.679688 987.871094 745.855469 985.636719 747.972656 C 983.402344 750.085938 983.636719 753.847656 983.050781 755.023438 C 982.464844 756.199219 980.582031 757.730469 979.289062 758.785156 C 977.996094 759.84375 974 762.429688 973.53125 763.015625 C 973.058594 763.605469 970.710938 767.484375 968.945312 769.246094 C 967.183594 771.011719 965.890625 770.070312 964.480469 770.304688 C 963.070312 770.539062 961.738281 771.558594 961.738281 771.558594 L 962.519531 774.691406 C 962.519531 774.691406 961.777344 778.179688 961.308594 780.296875 C 960.835938 782.410156 959.074219 784.722656 959.074219 784.722656 L 960.71875 791.226562 L 958.914062 798.511719 C 958.914062 798.511719 959.308594 799.921875 959.777344 800.980469 C 960.25 802.039062 959.542969 802.15625 959.425781 803.097656 C 959.308594 804.035156 958.839844 805.683594 958.953125 806.386719 C 959.070312 807.09375 958.953125 809.324219 959.191406 811.207031 C 959.425781 813.089844 959.894531 816.027344 959.777344 818.496094 C 959.660156 820.964844 959.542969 820.609375 959.777344 822.136719 C 960.011719 823.667969 960.246094 824.957031 959.421875 828.015625 C 958.601562 831.070312 957.894531 829.542969 955.308594 832.714844 C 952.722656 835.890625 954.363281 837.769531 956.363281 839.886719 C 958.359375 842 958.945312 843.765625 959.414062 846.234375 C 959.886719 848.703125 958.109375 850.699219 957.050781 852.347656 C 955.996094 853.992188 952.917969 855.988281 952.917969 855.988281 L 949.898438 865.121094 L 950.59375 872.640625 L 955.125 874.367188 L 958.742188 874.679688 L 958.742188 877.851562 C 958.742188 877.851562 959.023438 881.261719 956.910156 882.671875 C 954.792969 884.082031 950.492188 881.730469 950.492188 881.730469 L 947.476562 882.828125 C 947.476562 882.828125 948.613281 885.375 949.433594 886.667969 C 950.257812 887.960938 951.195312 890.546875 952.253906 891.015625 C 953.3125 891.488281 955.078125 891.488281 955.625 891.605469 C 956.171875 891.722656 957.308594 890.191406 958.011719 889.722656 C 958.71875 889.253906 959.894531 888.546875 961.304688 887.960938 C 962.714844 887.371094 963.460938 888.15625 963.460938 888.15625 C 963.460938 888.15625 963.304688 889.136719 962.949219 889.839844 C 962.597656 890.546875 961.890625 893.25 961.65625 893.71875 C 961.421875 894.1875 959.894531 896.539062 958.835938 897.832031 C 957.777344 899.125 956.722656 901.792969 956.722656 901.792969 L 958.484375 910.527344 L 964.402344 911.035156 L 965.496094 915.269531 C 965.496094 915.269531 965.886719 915.582031 966.828125 915.699219 C 967.769531 915.816406 967.691406 917.621094 967.691406 917.621094 C 967.691406 917.621094 969.0625 917.8125 969.652344 917.8125 C 970.238281 917.8125 970.472656 918.519531 971.179688 918.871094 C 971.882812 919.226562 973.175781 919.695312 974.234375 919.929688 C 975.292969 920.164062 973.648438 925.300781 973.648438 925.300781 C 973.648438 925.300781 969.769531 926.394531 968.160156 926.710938 C 966.554688 927.023438 965.8125 925.769531 965.8125 925.769531 C 965.8125 925.769531 964.949219 926.984375 963.773438 927.6875 C 962.597656 928.394531 962.363281 927.335938 961.578125 926.867188 C 960.792969 926.394531 960.246094 926.628906 958.914062 926.394531 C 957.582031 926.160156 957.777344 925.101562 957.503906 924.828125 C 957.230469 924.554688 957.074219 923.105469 954.957031 922.75 C 952.839844 922.398438 953.3125 922.984375 952.136719 923.691406 C 950.960938 924.394531 949.785156 923.105469 949.078125 923.21875 C 948.375 923.339844 947.199219 923.339844 945.90625 923.808594 C 944.613281 924.277344 943.792969 924.394531 942.5 926.277344 C 941.203125 928.15625 940.96875 926.746094 939.324219 926.277344 C 937.679688 925.804688 937.328125 924.863281 936.738281 924.277344 C 936.152344 923.691406 934.464844 923.574219 934.464844 923.574219 C 934.464844 923.574219 934.859375 924.746094 935.210938 925.214844 C 935.5625 925.6875 935.09375 926.390625 935.09375 926.863281 C 935.089844 927.332031 933.800781 926.507812 933.449219 926.15625 C 933.09375 925.804688 933.09375 924.511719 932.742188 923.6875 C 932.390625 922.867188 931.214844 921.925781 930.390625 921.574219 C 929.566406 921.21875 929.332031 920.164062 928.746094 919.457031 C 928.160156 918.75 927.335938 918.515625 926.042969 918.28125 C 924.75 918.046875 923.339844 918.28125 922.632812 918.164062 C 921.929688 918.046875 922.164062 916.753906 921.925781 916.675781 C 921.691406 916.597656 920.515625 916.636719 919.578125 916.871094 C 918.636719 917.105469 918.324219 918.554688 918.324219 918.554688 C 918.324219 918.554688 917.8125 918.398438 917.226562 918.28125 C 916.640625 918.164062 916.285156 918.398438 915.933594 918.046875 C 915.582031 917.691406 915.707031 916.488281 913.589844 916.839844 C 911.476562 917.191406 911.476562 918.601562 909.714844 920.011719 C 907.949219 921.421875 905.003906 922.472656 905.003906 922.472656 L 904.375 924.824219 L 899.988281 927.019531 L 901.867188 932.503906 C 901.867188 932.503906 899.488281 933.765625 898.578125 934.542969 C 897.664062 935.320312 897.019531 929.886719 896.070312 929.683594 C 895.121094 929.480469 894.503906 928.273438 894.503906 928.273438 C 893.042969 927.71875 892.621094 931.25 892.621094 931.25 L 891.027344 934.46875 L 890.273438 937.988281 L 891.378906 939.40625 L 889.617188 941.875 L 888.785156 946.605469 L 891.464844 947.390625 L 893.546875 951.464844 L 895.609375 951.394531 L 897.316406 951.9375 L 900.300781 955.382812 L 901.085938 960.871094 L 899.050781 960.242188 C 895.082031 962.039062 899.996094 963.53125 899.996094 963.53125 L 899.859375 964.792969 L 897.410156 966.90625 L 894.382812 963.0625 L 894.382812 964.792969 C 894.382812 964.792969 894.289062 968.667969 892.175781 971.492188 C 890.058594 974.3125 889.617188 979.25 889.617188 979.25 L 891.730469 980.304688 C 891.730469 980.304688 893.492188 982.773438 893.492188 984.183594 C 893.492188 985.597656 893.492188 987.710938 893.847656 989.828125 C 894.199219 991.941406 896.3125 994.761719 896.3125 994.761719 L 899.515625 999.578125 L 896.226562 1003.339844 L 892.933594 1003.8125 L 891.996094 1001.773438 L 888.910156 998.996094 L 883.84375 996.445312 L 883.6875 994.5625 C 883.6875 994.5625 881.503906 992.648438 878.683594 991.941406 C 875.863281 991.238281 873.972656 993.308594 873.972656 993.308594 L 867.859375 989.238281 L 854.066406 986.257812 L 851.535156 985.949219 L 848.363281 984.890625 C 848.363281 984.890625 842.71875 979.957031 840.957031 978.894531 C 839.195312 977.839844 838.839844 977.132812 836.726562 977.132812 C 834.609375 977.132812 833.90625 973.253906 833.90625 973.253906 L 836.019531 971.84375 L 836.726562 969.730469 C 836.726562 969.730469 838.839844 967.613281 839.195312 966.554688 C 839.546875 965.5 841.660156 965.144531 841.660156 965.144531 C 841.660156 965.144531 841.660156 965.144531 840.953125 963.738281 C 840.25 962.324219 839.1875 960.5625 839.1875 960.5625 L 842.007812 960.914062 L 844.113281 959.152344 L 847.273438 957.390625 L 845.125 955.980469 C 845.125 955.980469 840.480469 957.742188 836.246094 958.449219 C 832.015625 959.152344 830.480469 960.5625 826.957031 962.324219 C 823.429688 964.089844 817.878906 964.476562 817.878906 964.476562 L 817.878906 966.558594 L 819.542969 967.582031 L 822.265625 968.957031 L 823.324219 971.003906 L 826.484375 971.601562 L 832.140625 971.601562 L 830.691406 974.546875 L 826.070312 973.609375 L 823.171875 976.078125 C 823.171875 976.078125 821.257812 975.375 819.140625 977.488281 C 817.023438 979.605469 814.234375 978.816406 814.234375 978.816406 C 814.234375 978.816406 814.234375 977.488281 814.234375 976.078125 C 814.234375 974.667969 813.140625 973.613281 812.082031 972.203125 C 811.023438 970.792969 808.871094 970.441406 808.871094 970.441406 C 808.871094 970.441406 810.632812 969.746094 812.042969 968.6875 C 813.453125 967.628906 813.804688 967.992188 815.921875 967.640625 C 818.035156 967.289062 814.15625 965.550781 814.15625 965.550781 C 814.15625 965.550781 810.984375 966.304688 808.871094 966.304688 C 806.753906 966.304688 805.34375 964.285156 805.34375 964.285156 L 805.09375 963.101562 L 807.105469 963.101562 L 805.34375 961.480469 C 805.34375 961.480469 803.230469 961.269531 801.464844 960.917969 C 799.703125 960.566406 799 963.386719 796.53125 964.796875 C 794.0625 966.207031 794.0625 967.96875 793.003906 969.378906 C 791.945312 970.789062 792.300781 972.199219 791.945312 974.664062 C 791.59375 977.132812 789.125 977.132812 787.714844 978.542969 C 786.304688 979.953125 786.304688 983.125 786.304688 985.242188 C 786.304688 987.359375 785.246094 988.0625 783.835938 988.414062 C 782.429688 988.765625 782.429688 990.878906 782.074219 991.9375 C 781.722656 992.992188 779.960938 995.101562 779.960938 995.101562 C 779.960938 995.101562 781.722656 997.199219 781.722656 998.609375 C 781.722656 1000.019531 782.429688 1000.695312 784.191406 1002.105469 C 785.953125 1003.515625 787.703125 1005.601562 787.703125 1005.601562 C 787.703125 1005.601562 787.71875 1005.601562 786.308594 1005.601562 C 784.894531 1005.601562 781.722656 1004.945312 779.960938 1006.351562 C 778.195312 1007.761719 776.433594 1008.867188 773.964844 1009.21875 C 771.496094 1009.574219 771.851562 1007.457031 769.027344 1007.105469 C 766.207031 1006.753906 765.148438 1006.753906 763.035156 1006.398438 C 760.917969 1006.046875 757.746094 1008.515625 757.746094 1008.515625 C 757.746094 1008.515625 760.566406 1010.628906 759.507812 1010.984375 C 758.449219 1011.335938 756.6875 1013.097656 756.6875 1013.097656 C 756.6875 1013.097656 754.574219 1010.628906 752.457031 1009.574219 C 750.339844 1008.515625 752.105469 1013.804688 753.515625 1015.917969 C 754.925781 1018.035156 754.21875 1018.386719 754.21875 1018.386719 C 753.164062 1018.035156 752.457031 1021.914062 752.457031 1021.914062 L 755.277344 1025.085938 L 759.859375 1027.554688 C 759.859375 1027.554688 758.804688 1029.667969 757.746094 1028.964844 C 756.6875 1028.261719 754.925781 1030.023438 754.925781 1030.023438 L 755.632812 1032.136719 L 752.457031 1032.488281 L 753.867188 1034.953125 L 754.21875 1038.824219 L 752.457031 1037.402344 L 749.636719 1038.082031 L 748.210938 1035.957031 L 745.757812 1035.957031 L 746.109375 1033.863281 C 746.109375 1033.863281 744.347656 1032.117188 743.289062 1030.707031 C 742.230469 1029.296875 744.347656 1028.222656 744.347656 1028.222656 L 747.167969 1027.488281 L 750.796875 1027.457031 L 754.925781 1027.457031 L 751.046875 1025.386719 L 742.9375 1025.085938 L 740.824219 1022.617188 L 743.289062 1021.558594 L 739.410156 1019.089844 C 739.410156 1019.089844 736.589844 1015.566406 735.886719 1014.152344 C 735.179688 1012.746094 732.359375 1010.277344 732.359375 1010.277344 C 732.359375 1010.277344 733.769531 1006.398438 733.417969 1004.636719 C 733.0625 1002.871094 733.0625 999.34375 733.0625 999.34375 C 733.0625 999.34375 722.484375 990.882812 720.722656 989.121094 C 718.960938 987.359375 717.902344 987.359375 715.433594 987.003906 C 712.96875 986.652344 711.910156 984.535156 710.5 983.480469 C 709.089844 982.421875 709.085938 980.304688 709.085938 980.304688 C 709.085938 980.304688 709.441406 978.191406 708.734375 977.132812 C 708.027344 976.074219 706.617188 974.664062 704.855469 972.550781 C 703.09375 970.433594 703.09375 975.371094 701.683594 975.371094 C 700.273438 975.371094 698.859375 972.902344 699.566406 971.492188 C 700.273438 970.082031 698.507812 968.671875 698.507812 968.671875 C 698.507812 968.671875 696.394531 969.730469 693.21875 970.785156 C 690.046875 971.84375 693.21875 974.664062 692.867188 976.429688 C 692.515625 978.191406 692.515625 980.660156 694.628906 982.777344 C 696.746094 984.890625 698.859375 985.59375 700.273438 986.652344 C 701.683594 987.710938 700.980469 989.828125 702.390625 992.648438 C 703.796875 995.46875 704.859375 996.175781 706.265625 997.234375 C 707.679688 998.289062 708.382812 998.996094 710.851562 999.347656 C 713.320312 999.699219 714.378906 1002.167969 714.378906 1002.167969 L 716.144531 1004.28125 L 725.667969 1008.867188 L 728.148438 1011.6875 L 727.460938 1013.097656 L 725.03125 1012.039062 L 720.175781 1008.867188 L 717.15625 1014.507812 L 720.738281 1017.363281 L 720.738281 1020.148438 L 718.617188 1021.558594 L 717.199219 1025.085938 L 715.4375 1025.4375 L 714.027344 1028.609375 L 712.261719 1027.90625 L 713.320312 1024.027344 L 714.378906 1021.914062 L 713.320312 1017.332031 L 711.910156 1012.402344 L 710.148438 1013.46875 L 708.03125 1011.015625 L 707.679688 1008.226562 L 705.210938 1008.648438 L 702.742188 1007.722656 L 700.726562 1004.386719 L 697.101562 1004.386719 L 692.871094 1000.628906 L 688.640625 996.171875 L 685.816406 994.058594 L 682.644531 990.179688 L 680.175781 983.480469 C 680.175781 983.480469 674.890625 980.304688 672.773438 979.601562 C 670.660156 978.894531 669.25 983.480469 669.25 983.480469 C 669.25 983.480469 667.136719 984.890625 665.023438 985.59375 C 662.90625 986.296875 661.503906 988.0625 660.089844 989.472656 C 658.679688 990.882812 655.167969 989.121094 653.054688 988.765625 C 650.9375 988.414062 648.144531 987.707031 648.144531 987.707031 C 648.144531 987.707031 645.730469 986.652344 643.261719 987.707031 C 640.796875 988.765625 641.257812 991.234375 641.257812 991.234375 L 641.808594 995.738281 L 641.808594 998.640625 L 639.484375 1001.105469 C 639.484375 1001.105469 636.101562 1003.574219 632.222656 1005.339844 C 628.34375 1007.101562 627.992188 1009.214844 626.933594 1009.921875 C 625.878906 1010.625 621.648438 1017.679688 621.648438 1017.679688 C 621.648438 1017.679688 622 1019.441406 622.703125 1020.5 C 623.410156 1021.558594 624.117188 1022.261719 624.117188 1022.261719 L 622.703125 1024.023438 C 622.703125 1024.023438 622.703125 1024.023438 620.589844 1025.433594 C 618.472656 1026.847656 619.179688 1030.371094 617.0625 1030.371094 C 614.949219 1030.371094 613.539062 1033.191406 613.183594 1034.601562 C 612.832031 1036.011719 610.363281 1037.070312 608.601562 1036.71875 C 606.835938 1036.367188 603.3125 1037.070312 601.195312 1037.070312 C 599.078125 1037.070312 596.964844 1038.128906 596.964844 1038.128906 C 596.964844 1038.128906 592.378906 1042.359375 590.617188 1042.007812 C 588.855469 1041.652344 587.089844 1038.128906 585.328125 1035.304688 C 583.566406 1032.484375 582.507812 1033.894531 579.335938 1034.601562 C 576.160156 1035.304688 572.636719 1034.601562 572.636719 1034.601562 L 573.691406 1024.726562 L 571.578125 1025.082031 L 569.460938 1021.90625 L 572.988281 1010.976562 C 572.988281 1010.976562 574.046875 1005.335938 574.046875 1004.277344 C 574.046875 1003.21875 572.988281 999.695312 572.988281 999.695312 L 572.636719 995.816406 L 572.28125 993.347656 L 570.167969 991.585938 L 571.929688 989.117188 L 575.808594 988.410156 L 576.160156 986.296875 L 578.277344 985.589844 C 578.277344 985.589844 581.449219 985.589844 582.859375 986.296875 C 584.269531 987 588.855469 985.945312 588.855469 985.945312 C 588.855469 985.945312 592.378906 986.296875 595.90625 986.648438 C 599.433594 987 601.902344 988.058594 604.371094 987.707031 C 606.839844 987.355469 612.480469 989.46875 614.59375 988.761719 C 616.710938 988.058594 617.0625 976.070312 616.710938 972.546875 C 616.355469 969.019531 617.0625 965.140625 617.0625 965.140625 L 613.890625 963.375 C 613.890625 963.375 611.773438 959.851562 611.773438 958.441406 C 611.773438 957.03125 611.421875 955.972656 610.011719 955.617188 C 608.601562 955.265625 606.839844 954.207031 605.074219 953.148438 C 603.3125 952.09375 601.550781 951.738281 600.140625 951.382812 C 598.726562 951.03125 599.433594 949.96875 598.375 949.613281 C 597.316406 949.261719 596.613281 946.078125 596.613281 946.078125 L 605.074219 942.832031 L 608.578125 944.878906 L 610.714844 944.878906 L 614.59375 944.609375 L 613.890625 941.867188 L 612.125 935.167969 L 614.59375 935.875 L 617.769531 939.046875 C 617.769531 939.046875 620.589844 939.753906 622.703125 939.046875 C 624.820312 938.34375 626.230469 937.988281 626.230469 937.988281 L 623.761719 936.578125 C 623.761719 936.578125 626.582031 934.816406 627.640625 934.109375 C 628.699219 933.40625 630.816406 932.347656 632.226562 930.234375 C 633.636719 928.117188 632.578125 924.589844 632.578125 924.589844 C 632.578125 924.589844 636.105469 923.886719 637.867188 923.179688 C 639.628906 922.476562 641.75 920.714844 641.75 920.714844 L 645.277344 919.65625 L 649.519531 917.894531 L 646.714844 916.484375 C 646.714844 916.484375 646.75 916.484375 647.453125 914.015625 C 648.160156 911.546875 649.640625 908.371094 649.640625 908.371094 L 651.523438 906.640625 L 651.523438 910.839844 L 653.507812 911.191406 L 653.730469 906.960938 L 653.027344 905.554688 L 654.4375 902.378906 C 654.4375 902.378906 658.316406 902.027344 660.078125 902.027344 C 661.839844 902.027344 662.546875 901.320312 662.546875 901.320312 L 664.308594 899.558594 L 668.890625 899.910156 L 671.359375 900.96875 C 671.359375 900.96875 671.007812 897.089844 672.417969 896.738281 C 673.828125 896.386719 673.125 894.976562 673.125 893.210938 C 673.125 891.449219 673.476562 890.390625 672.769531 888.628906 C 672.066406 886.867188 671.710938 884.75 671.359375 881.929688 C 671.007812 879.109375 667.890625 882.351562 668.539062 877.699219 C 668.800781 875.816406 668.183594 871.351562 668.539062 869.234375 C 668.890625 867.121094 671.007812 863.59375 673.472656 863.242188 C 675.941406 862.886719 676.296875 862.535156 677.707031 861.832031 C 679.117188 861.125 681.9375 858.304688 681.9375 858.304688 L 681.585938 861.480469 L 681.238281 865.003906 L 680.890625 870.292969 L 683.726562 872.054688 L 681.632812 873.816406 L 680.625 875.933594 L 677.546875 878.753906 L 677.019531 881.484375 L 677.019531 885.808594 L 679.300781 887.960938 L 679.820312 891.167969 L 682.992188 892.304688 L 685.109375 893.160156 L 684.03125 896.308594 L 687.222656 896.308594 L 690.75 893.527344 L 694.980469 892.507812 C 694.980469 892.507812 694.980469 892.507812 696.746094 893.917969 C 698.507812 895.328125 698.859375 894.269531 700.976562 896.386719 C 703.089844 898.5 704.855469 897.792969 704.855469 897.792969 L 703.796875 896.386719 C 703.796875 896.386719 708.027344 893.917969 709.789062 893.5625 C 711.554688 893.210938 713.667969 893.210938 715.078125 892.152344 C 716.488281 891.097656 717.546875 889.683594 721.425781 887.921875 C 725.304688 886.160156 727.421875 887.21875 727.421875 887.21875 L 730.242188 892.507812 C 730.242188 892.507812 730.242188 892.507812 733.414062 891.097656 C 736.589844 889.683594 736.941406 886.160156 736.941406 886.160156 L 742.582031 886.863281 L 743.996094 884.398438 C 743.996094 884.398438 742.9375 875.582031 742.9375 873.464844 C 742.9375 871.351562 742.230469 867.472656 742.9375 866.0625 C 743.640625 864.652344 744.347656 861.832031 746.109375 860.421875 C 747.871094 859.011719 750.695312 857.953125 750.695312 857.953125 L 754.574219 861.480469 C 754.574219 861.480469 755.28125 864.296875 757.394531 865.003906 C 759.511719 865.710938 760.570312 864.296875 760.570312 864.296875 C 760.570312 864.296875 761.988281 854.777344 761.988281 853.71875 C 761.988281 852.664062 761.296875 850.195312 761.296875 850.195312 L 759.203125 851.605469 C 759.203125 851.605469 757.488281 850.902344 756.78125 849.136719 C 756.078125 847.375 757.933594 846.667969 757.933594 846.667969 L 757.164062 845.285156 L 757.164062 841.734375 L 760.453125 839.621094 L 765.855469 837.859375 L 769.734375 836.804688 L 774.316406 837.875 C 774.316406 837.875 776.429688 838.597656 778.546875 838.949219 C 780.660156 839.304688 782.777344 838.28125 782.777344 838.28125 L 782.425781 835.886719 L 785.347656 835.59375 L 787.007812 835.59375 L 789.460938 833.375 C 789.460938 833.375 791.910156 833.625 794.378906 832.566406 C 796.847656 831.507812 789.410156 830.804688 789.410156 830.804688 L 785.09375 827.890625 L 785.09375 824.457031 L 780.9375 826.570312 L 777.136719 826.21875 L 771.492188 827.628906 L 766.558594 829.394531 L 758.800781 832.566406 L 754.214844 831.859375 L 749.28125 827.628906 L 744.699219 824.105469 L 743.992188 819.875 L 745.050781 814.585938 L 743.640625 809.296875 L 742.582031 801.539062 C 742.582031 801.539062 742.9375 799.070312 743.996094 797.660156 C 745.054688 796.25 746.46875 796.25 746.46875 796.25 L 746.121094 794.488281 L 750.015625 793.078125 C 750.015625 793.078125 752.515625 789.199219 753.925781 787.789062 C 755.335938 786.378906 758.925781 780.738281 760.6875 778.972656 C 762.449219 777.210938 763.277344 773.683594 763.984375 772.625 C 764.6875 771.570312 768.09375 772.886719 768.09375 772.886719 C 768.09375 772.886719 768.09375 772.980469 768.09375 771.570312 C 768.09375 770.160156 768.207031 768.042969 767.503906 766.28125 C 766.796875 764.519531 765.148438 762.402344 764.089844 760.992188 C 763.03125 759.582031 760.917969 759.230469 758.449219 759.230469 C 755.980469 759.230469 753.867188 758.523438 751.75 758.523438 C 749.632812 758.523438 748.929688 762.753906 746.8125 763.8125 C 744.699219 764.871094 746.8125 766.984375 745.050781 769.804688 C 743.289062 772.628906 744.347656 774.742188 744.347656 774.742188 C 744.347656 774.742188 745.757812 777.5625 744.699219 778.269531 C 743.644531 778.972656 742.234375 783.203125 740.824219 785.675781 C 739.414062 788.140625 735.542969 789.199219 733.425781 790.257812 C 731.3125 791.316406 729.5625 793.429688 727.796875 795.546875 C 726.035156 797.660156 721.472656 802.597656 721.472656 802.597656 L 721.875 806.125 L 719.503906 812.824219 L 720.734375 822.722656 L 720.734375 825.871094 L 715.617188 830.679688 C 718.085938 831.035156 722.585938 825.882812 722.585938 825.882812 L 724.246094 825.882812 L 725.65625 827.816406 C 725.65625 827.816406 726.011719 829.75 727.421875 831.160156 C 728.832031 832.570312 729.183594 834.683594 729.183594 834.683594 L 726.011719 838.914062 C 726.011719 838.914062 722.835938 838.5625 720.367188 838.210938 C 717.898438 837.859375 715.429688 838.210938 715.429688 838.210938 L 722.125 841.03125 L 727.410156 840.328125 L 722.8125 844.203125 C 722.8125 844.203125 721.378906 845.261719 720.320312 845.96875 C 719.261719 846.671875 714.628906 847.730469 714.628906 847.730469 L 717.09375 849.050781 C 717.09375 849.050781 717.09375 850.902344 717.09375 851.960938 C 717.09375 853.019531 717.144531 856.542969 716.792969 858.660156 C 716.441406 860.777344 716.140625 862.539062 715.789062 865.007812 C 715.433594 867.476562 712.613281 874.175781 712.613281 874.175781 C 712.613281 874.175781 707.675781 873.824219 704.855469 875.234375 C 702.035156 876.644531 703.445312 881.226562 703.445312 881.226562 L 700.273438 881.933594 L 695.6875 880.875 C 695.6875 880.875 697.453125 879.113281 694.984375 878.761719 C 692.515625 878.40625 692.160156 881.226562 692.160156 881.226562 L 694.277344 883.34375 L 692.515625 885.105469 L 690.398438 884.753906 L 687.578125 884.046875 L 684.757812 879.464844 L 687.929688 878.761719 L 688.28125 875.9375 L 691.453125 876.292969 L 693.921875 874.175781 C 693.921875 874.175781 694.628906 872.0625 695.6875 870.296875 C 696.746094 868.535156 693.21875 866.421875 692.160156 864.65625 C 691.101562 862.894531 689.691406 861.484375 689.691406 861.484375 L 689.339844 857.25 C 689.339844 857.25 689.691406 855.84375 689.339844 854.785156 C 688.984375 853.726562 687.222656 852.667969 687.222656 852.667969 L 686.167969 843.5 L 684.402344 841.035156 L 684.050781 838.210938 L 681.582031 836.097656 L 681.9375 839.976562 L 680.171875 843.5 L 678.058594 843.148438 L 676.292969 845.617188 C 676.292969 845.617188 670.652344 850.90625 669.242188 853.019531 C 667.832031 855.136719 662.542969 853.375 660.425781 852.667969 C 658.3125 851.964844 655.140625 849.144531 654.082031 846.320312 C 653.023438 843.5 655.84375 845.265625 656.546875 843.5 C 657.253906 841.738281 658.664062 840.679688 657.605469 839.976562 C 656.546875 839.269531 654.433594 841.386719 653.726562 839.625 C 653.023438 837.859375 652.667969 836.449219 653.726562 834.6875 C 654.785156 832.925781 652.316406 831.160156 652.667969 829.398438 C 653.023438 827.636719 651.964844 826.226562 651.613281 824.109375 C 651.257812 821.996094 653.023438 822.699219 652.667969 820.582031 C 652.316406 818.46875 651.613281 817.765625 652.316406 816.351562 C 653.023438 814.941406 651.964844 812.476562 651.964844 811.066406 C 651.964844 809.65625 652.667969 807.890625 652.667969 807.890625 C 652.667969 807.890625 655.492188 807.890625 657.253906 807.1875 C 659.015625 806.480469 659.015625 806.128906 659.367188 805.070312 C 659.722656 804.015625 660.074219 802.25 660.074219 802.25 C 660.074219 802.25 662.894531 802.957031 665.011719 801.898438 C 667.125 800.839844 663.246094 798.726562 662.894531 797.667969 C 662.542969 796.609375 665.363281 797.316406 665.363281 797.316406 C 665.363281 797.316406 666.421875 794.847656 669.242188 793.789062 C 672.0625 792.730469 671.003906 792.378906 672.414062 791.675781 C 673.824219 790.96875 675.585938 789.558594 676.644531 788.851562 C 677.703125 788.148438 678.761719 791.675781 678.761719 791.675781 C 678.761719 791.675781 681.230469 791.675781 682.640625 790.617188 C 684.050781 789.558594 684.402344 789.207031 684.050781 787.796875 C 683.695312 786.386719 680.875 789.558594 680.875 789.558594 L 678.761719 786.386719 L 680.875 782.15625 L 684.753906 775.808594 L 686.519531 776.867188 L 688.28125 774.75 L 688.988281 770.519531 L 691.457031 769.460938 L 691.8125 767.347656 L 693.230469 765.230469 L 694.300781 761.707031 L 696.085938 759.589844 L 695.785156 757.121094 L 696.585938 753.949219 L 698.878906 752.914062 L 698.878906 749.011719 C 698.878906 749.011719 700.808594 745.839844 701.867188 745.132812 C 702.921875 744.429688 703.089844 742.3125 704.5 740.902344 C 705.910156 739.492188 705.207031 737.378906 705.207031 737.378906 L 708.734375 734.910156 L 710.847656 735.972656 C 710.847656 735.972656 711.90625 734.214844 710.496094 733.507812 C 709.085938 732.800781 710.496094 733.519531 710.496094 732.460938 C 710.496094 731.402344 712.257812 728.25 712.257812 728.25 C 712.257812 728.25 714.375 727.230469 714.726562 725.820312 C 715.078125 724.410156 716.136719 723.429688 716.839844 722.023438 C 717.546875 720.609375 721.425781 723.238281 721.425781 723.238281 L 723.523438 721.460938 L 720.015625 721.460938 L 717.546875 720.074219 C 717.546875 720.074219 721.074219 718.6875 722.132812 717.632812 C 723.1875 716.574219 723.542969 714.457031 723.542969 714.457031 L 722.835938 711.988281 L 725.304688 710.226562 L 726.363281 706.699219 L 729.535156 708.109375 L 729.183594 704.234375 L 733.414062 709.167969 C 733.414062 709.167969 733.765625 707.40625 731.652344 705.996094 C 729.535156 704.585938 730.945312 701.058594 730.945312 701.058594 L 734.117188 700.351562 L 734.824219 704.9375 L 736.234375 698.941406 L 739.054688 697.886719 L 737.996094 704.941406 L 741.875 698.597656 L 745.402344 696.839844 L 748.574219 700.027344 L 747.519531 698.289062 L 747.164062 695.871094 L 745.753906 694.207031 L 745.386719 692.316406 L 748.222656 692.316406 L 751.042969 693.160156 L 753.511719 693.300781 L 753.863281 694.710938 L 754.921875 696.476562 L 755.273438 692.949219 C 755.273438 692.949219 756.683594 691.1875 758.09375 689.777344 C 759.503906 688.363281 760.914062 688.71875 760.914062 688.71875 L 761.621094 686.25 L 762.679688 684.839844 L 761.621094 682.371094 L 765.144531 680.609375 L 766.910156 682.722656 L 768.667969 682.019531 C 768.667969 682.019531 770.429688 682.371094 769.722656 683.429688 C 769.019531 684.488281 766.898438 687.308594 766.546875 689.425781 C 766.195312 691.539062 765.480469 694.359375 765.480469 694.359375 L 767.582031 691.1875 C 767.582031 691.1875 771.074219 685.542969 771.78125 684.132812 C 772.488281 682.722656 774.890625 681.3125 774.890625 681.3125 L 774.160156 685.445312 L 774.160156 689.070312 L 776.355469 688.011719 L 777.488281 685.546875 L 779.25 682.375 L 780.660156 678.148438 L 783.480469 678.515625 L 784.890625 679.949219 L 783.832031 682.113281 L 782.070312 683.265625 L 783.832031 685.570312 L 783.230469 688.671875 L 785.242188 688.671875 L 786.984375 683.40625 L 789.082031 682.367188 L 791.863281 684.484375 L 794.601562 685.1875 L 796.203125 686.953125 L 798.449219 688.972656 L 798.449219 691.183594 C 798.449219 691.183594 798.722656 691.1875 797.3125 691.539062 C 795.902344 691.890625 793 694.714844 793 694.714844 L 786.300781 694.019531 L 788.769531 695.796875 L 791.589844 698.296875 L 794.058594 699.0625 L 791.925781 702.027344 L 796.171875 702.027344 L 796.863281 700.8125 C 796.863281 700.8125 798.992188 700.8125 800.050781 700.8125 C 801.109375 700.8125 803.21875 702.699219 803.21875 702.699219 L 803.5625 700 L 805.664062 697.53125 L 808.464844 698.9375 L 811.234375 701.054688 L 809.71875 702.816406 L 805.738281 700.957031 L 805.738281 702.816406 L 808.714844 704.929688 L 811.691406 705.636719 L 813.453125 708.457031 L 815.921875 707.046875 L 818.742188 708.808594 L 824.03125 709.515625 L 824.382812 708.105469 C 824.382812 708.105469 828.96875 710.21875 831.789062 712.335938 C 834.609375 714.453125 834.960938 715.507812 837.078125 717.625 C 839.191406 719.738281 842.367188 722.910156 842.367188 722.910156 L 845.539062 725.378906 L 848.710938 727.144531 L 850.828125 727.496094 L 854 731.375 L 856.117188 733.136719 L 857.878906 738.78125 L 858.9375 741.953125 C 858.9375 741.953125 857.527344 746.890625 854 750.765625 C 850.476562 754.644531 845.890625 755.703125 843.421875 756.054688 C 840.953125 756.410156 836.371094 754.292969 833.902344 753.589844 C 831.433594 752.882812 829.320312 752.175781 827.554688 751.472656 C 825.789062 750.769531 822.972656 750.0625 821.558594 749.710938 C 820.148438 749.359375 820.148438 747.597656 819.09375 747.246094 C 818.035156 746.890625 814.863281 747.25 813.097656 746.546875 C 811.332031 745.839844 810.628906 743.027344 808.515625 740.914062 C 806.398438 738.796875 806.75 742.34375 806.75 742.34375 L 809.570312 748.023438 L 812.144531 750.59375 L 814.507812 750.59375 L 815.210938 752.972656 L 817.679688 754.644531 L 820.5 756.40625 L 820.851562 758.875 L 820.5 764.515625 L 819.089844 766.632812 L 821.558594 772.980469 L 821.207031 777.207031 L 824.378906 780.023438 L 826.496094 779.664062 L 830.375 783.878906 L 837.425781 787.023438 L 839.644531 785.808594 L 841.65625 785.808594 C 841.65625 785.808594 840.246094 783.742188 839.890625 781.976562 C 839.539062 780.214844 838.46875 778.523438 838.46875 778.523438 L 834.601562 778.523438 L 832.445312 774.769531 L 832.445312 771.921875 L 835.113281 769.101562 L 838.835938 771.921875 L 840.949219 774.742188 L 843.066406 773.332031 C 843.066406 773.332031 845.179688 774.390625 847.648438 775.800781 C 850.117188 777.210938 851.527344 776.855469 851.527344 776.855469 L 855.402344 777.210938 C 855.402344 777.210938 852.585938 769.101562 851.171875 768.042969 C 849.765625 766.984375 850.820312 762.753906 850.820312 762.753906 C 850.820312 762.753906 853.289062 760.640625 854.347656 759.226562 C 855.402344 757.816406 857.167969 756.761719 858.578125 756.054688 C 859.988281 755.347656 861.046875 754.644531 862.105469 753.234375 C 863.160156 751.824219 864.570312 749.707031 864.570312 749.707031 L 867.390625 751.824219 L 870.917969 753.234375 L 873.03125 756.054688 L 874.796875 758.875 C 874.796875 758.875 874.796875 751.824219 875.855469 750.414062 C 876.910156 749.003906 876.207031 747.242188 876.558594 746.183594 C 876.910156 745.125 877.261719 743.714844 876.558594 742.304688 C 875.855469 740.894531 874.441406 740.894531 874.441406 740.894531 C 874.441406 740.894531 873.03125 739.484375 873.386719 737.015625 C 873.738281 734.546875 874.441406 733.136719 874.796875 731.019531 C 875.148438 728.90625 875.148438 724.675781 874.796875 722.910156 C 874.441406 721.148438 872.328125 719.738281 872.328125 719.738281 L 875.5 720.089844 L 883.257812 720.441406 L 886.078125 723.617188 L 888.546875 726.789062 L 887.839844 730.667969 C 887.839844 730.667969 882.199219 732.082031 881.140625 733.488281 C 880.085938 734.902344 879.378906 735.957031 879.378906 735.957031 C 879.378906 735.957031 880.085938 738.425781 882.90625 741.601562 C 885.726562 744.773438 887.140625 744.773438 887.140625 744.773438 L 888.90625 747.242188 L 890.679688 745.832031 C 890.679688 745.832031 892.464844 745.125 894.578125 744.066406 C 896.691406 743.011719 896.027344 744.421875 895.320312 741.246094 C 894.617188 738.074219 897.515625 734.898438 897.515625 734.898438 L 901.65625 733.394531 L 901.65625 731.375 C 901.65625 731.375 905.328125 729.609375 908.851562 727.144531 C 912.378906 724.675781 914.640625 723.265625 917.457031 721.5 C 920.28125 719.738281 920.632812 721.5 920.632812 721.5 L 922.746094 722.558594 L 922.042969 718.679688 L 924.511719 717.269531 L 925.921875 718.328125 L 927.332031 715.503906 L 929.09375 714.097656 C 929.09375 714.097656 931.207031 715.503906 931.207031 716.5625 C 931.207031 717.621094 930.855469 719.738281 930.855469 721.148438 C 930.855469 722.558594 931.914062 723.96875 932.972656 723.96875 C 934.03125 723.96875 935.792969 725.027344 935.792969 725.027344 C 935.792969 725.027344 936.851562 723.261719 937.203125 721.851562 C 937.554688 720.441406 939.316406 719.738281 940.375 719.738281 C 941.433594 719.738281 942.84375 718.679688 944.253906 719.03125 C 945.664062 719.386719 947.074219 719.03125 947.074219 719.03125 L 950.601562 719.386719 L 953.066406 716.566406 L 955.183594 714.800781 L 959.765625 712.6875 L 961.882812 715.859375 C 961.882812 715.859375 963.996094 716.210938 962.234375 717.972656 C 960.472656 719.738281 961.175781 722.207031 962.585938 722.910156 C 964 723.617188 963.996094 722.558594 965.40625 720.441406 C 966.816406 718.328125 965.054688 716.917969 965.054688 716.917969 C 965.054688 716.917969 967.171875 716.5625 968.933594 715.859375 C 970.695312 715.152344 970.347656 710.566406 970.347656 710.566406 C 970.347656 710.566406 968.589844 705.273438 967.882812 704.214844 C 967.179688 703.160156 967.535156 701.394531 968.945312 700.691406 C 970.355469 699.988281 971.773438 698.921875 971.773438 698.921875 L 976.378906 700.671875 L 982.765625 701.355469 L 986.375 703.070312 L 989.007812 704.386719 L 992.308594 706.613281 C 992.324219 706.613281 991.042969 708.949219 991.511719 712.632812 Z M 967.0625 700.898438 L 968.121094 699.339844 C 968.121094 699.339844 966.125 696.738281 965.535156 695.566406 C 964.949219 694.390625 963.890625 693.558594 963.304688 693.207031 C 962.714844 692.855469 962.480469 692.96875 962.011719 691.910156 C 961.539062 690.851562 960.953125 691.601562 960.71875 691.011719 C 960.484375 690.425781 960.015625 689.882812 960.015625 689.882812 L 958.835938 689.882812 C 958.835938 689.882812 957.660156 691.832031 957.308594 691.832031 C 956.957031 691.832031 958.457031 692.808594 958.457031 692.808594 L 956.3125 692.375 L 956.3125 693.667969 C 956.3125 693.667969 957.636719 695.429688 957.75 695.785156 C 957.871094 696.136719 958.882812 697.78125 958.882812 697.78125 C 958.882812 697.78125 960.035156 697.898438 960.386719 698.019531 C 960.738281 698.136719 963.136719 698.839844 963.371094 699.195312 C 963.609375 699.546875 963.277344 700.367188 963.277344 700.367188 C 963.277344 700.367188 964.351562 700.957031 964.703125 701.074219 C 965.054688 701.191406 967.0625 700.898438 967.0625 700.898438 Z M 908.957031 711.769531 L 908.957031 710.359375 L 908.628906 708.949219 L 908.34375 709.535156 L 907.96875 708.59375 C 907.96875 708.59375 906.015625 706.597656 905.191406 705.890625 C 904.371094 705.183594 903.570312 704.480469 903.570312 704.480469 L 902.054688 705.066406 L 901.0625 704.714844 C 901.0625 704.714844 899.363281 706.710938 898.890625 708.121094 C 898.421875 709.53125 897.714844 711.414062 897.953125 712.238281 C 898.1875 713.058594 897.71875 714.585938 897.71875 715.175781 C 897.71875 715.761719 898.304688 716.703125 898.304688 716.703125 C 898.304688 716.703125 898.425781 714.707031 899.011719 715.179688 C 899.597656 715.648438 900.070312 716.59375 900.070312 716.59375 L 901.246094 716.59375 L 902.421875 717.058594 C 902.421875 717.058594 903.476562 716.058594 904.066406 715.941406 C 904.652344 715.824219 905.945312 715.734375 906.652344 714.558594 C 907.355469 713.382812 908.097656 711.398438 908.449219 711.398438 C 908.804688 711.398438 908.957031 711.769531 908.957031 711.769531 Z M 605.042969 858.695312 C 603.867188 858.460938 599.402344 859.632812 599.402344 859.632812 L 600.105469 857.753906 L 599.402344 856.34375 L 602.929688 853.050781 L 604.808594 850.699219 L 604.574219 848.347656 C 604.574219 848.347656 600.109375 848.820312 599.167969 849.054688 C 598.226562 849.289062 594.464844 849.054688 594.464844 849.054688 L 593.289062 852.582031 L 591.644531 853.988281 L 592.585938 855.636719 L 589.761719 857.988281 L 589.527344 861.511719 L 591.410156 862.6875 L 589.527344 867.625 L 588.117188 869.269531 L 590.234375 871.148438 L 592.585938 870.210938 C 592.585938 870.210938 592.347656 872.796875 591.410156 875.382812 C 590.46875 877.96875 590.234375 881.730469 590.234375 881.730469 L 591.171875 881.964844 L 592.347656 875.851562 L 593.523438 874.207031 L 593.757812 876.792969 L 594.933594 875.144531 L 595.402344 877.023438 L 594.933594 879.601562 C 594.933594 879.601562 595.640625 881.238281 595.402344 882.175781 C 595.167969 883.117188 594.230469 884.976562 593.992188 886.386719 C 593.757812 887.796875 594.933594 888.6875 594.933594 888.6875 C 594.933594 888.6875 594.933594 888.59375 595.871094 888.359375 C 596.8125 888.125 597.988281 887.816406 597.988281 887.816406 C 597.988281 887.816406 599.632812 887.816406 601.042969 887.816406 C 602.457031 887.816406 602.925781 886.535156 602.925781 886.535156 L 604.570312 887.136719 C 604.570312 887.136719 604.570312 887.136719 603.628906 887.84375 C 602.691406 888.546875 602.453125 891.367188 602.453125 892.546875 C 602.453125 893.71875 604.804688 894.660156 604.804688 894.660156 C 604.804688 894.660156 607.15625 893.953125 606.921875 894.894531 C 606.683594 895.835938 606.449219 898.1875 606.449219 898.890625 C 606.449219 899.59375 605.746094 902.183594 605.746094 902.183594 C 605.746094 902.183594 603.394531 902.183594 601.277344 903.121094 C 599.164062 904.0625 597.28125 906.648438 597.28125 906.648438 C 597.28125 906.648438 598.695312 906.648438 599.398438 906.414062 C 600.105469 906.179688 600.339844 909.9375 600.339844 909.9375 L 599.398438 912.289062 L 592.816406 916.519531 L 595.167969 918.402344 L 597.28125 916.992188 L 597.515625 918.167969 L 599.398438 919.34375 L 601.042969 918.402344 L 603.394531 920.519531 L 605.039062 920.046875 L 607.859375 917.695312 L 605.980469 921.929688 L 600.808594 922.867188 L 597.28125 924.984375 L 590.699219 932.269531 C 590.699219 932.269531 592.34375 932.503906 593.050781 932.503906 C 593.757812 932.503906 595.636719 930.859375 597.046875 930.390625 C 598.457031 929.917969 600.339844 930.390625 601.984375 930.15625 C 603.628906 929.917969 603.628906 927.097656 603.628906 927.097656 L 606.683594 925.921875 L 607.859375 927.804688 C 607.859375 927.804688 609.976562 927.332031 612.089844 926.394531 C 614.207031 925.453125 614.675781 926.160156 617.261719 926.160156 C 619.847656 926.160156 621.257812 925.925781 624.785156 925.6875 C 628.3125 925.453125 630.429688 922.867188 630.429688 921.457031 C 630.429688 920.046875 627.371094 920.753906 627.371094 920.753906 L 628.078125 917.933594 C 628.078125 917.933594 631.367188 915.117188 631.367188 914.410156 C 631.367188 913.707031 633.246094 910.65625 632.777344 909.246094 C 632.308594 907.835938 630.425781 907.140625 628.78125 906.4375 C 627.136719 905.730469 625.726562 908.101562 625.726562 908.101562 L 622.667969 907.445312 C 622.667969 907.445312 623.84375 906.828125 624.785156 904.945312 C 624.785156 904.945312 624.550781 902.539062 623.84375 901.835938 C 623.140625 901.128906 622.199219 899.957031 622.199219 899.957031 L 623.84375 899.957031 C 623.84375 899.957031 622.199219 896.015625 621.492188 894.839844 C 620.789062 893.664062 619.613281 891.367188 618.4375 890.664062 C 617.261719 889.957031 616.554688 889.019531 615.382812 887.371094 C 614.207031 885.726562 613.5 880.554688 613.5 880.554688 L 609.269531 877.03125 L 606.449219 876.558594 C 606.449219 876.558594 604.097656 876.324219 605.039062 875.148438 C 605.976562 873.972656 607.625 873.503906 607.625 873.503906 L 605.742188 871.15625 L 607.625 870.925781 C 607.625 870.925781 609.503906 868.582031 609.976562 867.875 C 610.445312 867.171875 611.152344 864.128906 611.152344 863.191406 C 611.152344 862.25 612.324219 861.339844 612.324219 861.339844 L 611.621094 859.046875 M 588.933594 889.609375 C 588.933594 889.609375 589.410156 888.550781 589.765625 887.609375 C 590.117188 886.671875 588.824219 885.964844 588.238281 884.90625 C 587.648438 883.847656 586.472656 884.082031 585.296875 884.199219 C 584.125 884.316406 582.59375 885.257812 582.59375 885.257812 C 582.59375 885.257812 582.714844 884.199219 582.476562 883.378906 C 582.242188 882.554688 581.1875 882.789062 580.597656 883.378906 C 580.011719 883.964844 580.128906 885.964844 580.128906 885.964844 L 579.421875 883.730469 C 579.421875 883.730469 578.601562 883.964844 577.660156 883.964844 C 576.71875 883.964844 576.484375 884.90625 575.542969 885.492188 C 574.605469 886.078125 575.191406 887.136719 574.132812 888.078125 C 573.074219 889.019531 573.425781 889.960938 574.484375 889.960938 C 575.546875 889.960938 575.777344 889.84375 576.25 890.3125 C 576.71875 890.78125 575.191406 891.839844 574.484375 892.191406 C 573.78125 892.546875 574.015625 893.605469 574.015625 893.605469 C 574.015625 893.605469 570.84375 893.367188 570.375 893.25 C 569.902344 893.132812 568.726562 893.015625 567.433594 893.25 C 566.140625 893.484375 566.847656 895.71875 566.847656 895.71875 L 565.789062 896.070312 C 565.789062 896.070312 565.789062 896.777344 567.316406 896.894531 C 568.84375 897.011719 568.726562 897.71875 568.257812 897.835938 C 567.785156 897.953125 566.964844 899.246094 565.90625 900.421875 C 564.847656 901.59375 566.140625 901.710938 566.609375 902.300781 C 567.082031 902.890625 567.316406 902.300781 567.90625 902.300781 C 568.492188 902.300781 568.84375 903.359375 568.84375 903.359375 C 568.84375 903.359375 569.785156 903.359375 571.078125 903.125 C 572.371094 902.890625 572.605469 903.828125 570.960938 904.417969 C 569.3125 905.003906 568.960938 907.472656 568.960938 907.472656 L 567.667969 909.234375 L 570.371094 908.648438 L 572.371094 907.355469 L 572.488281 908.179688 L 573.3125 909.003906 L 567.90625 910.0625 L 567.199219 912.410156 C 567.199219 912.410156 566.023438 912.292969 564.613281 912.644531 C 563.203125 913 564.261719 914.175781 564.261719 914.175781 C 564.261719 914.175781 564.261719 914.175781 565.671875 914.058594 C 567.082031 913.9375 566.609375 914.292969 565.789062 914.644531 C 564.96875 914.996094 564.378906 916.523438 564.378906 916.523438 L 565.554688 917.113281 C 565.554688 917.113281 565.4375 916.523438 567.199219 916.40625 C 568.964844 916.289062 565.671875 918.523438 565.671875 918.523438 C 565.671875 918.523438 566.027344 918.050781 568.023438 917.699219 C 570.023438 917.347656 567.554688 918.875 567.554688 918.875 L 567.4375 919.816406 L 570.492188 919.109375 L 574.488281 917.699219 L 576.367188 916.757812 L 579.1875 914.878906 C 579.1875 914.878906 580.597656 914.171875 582.246094 913.46875 C 583.890625 912.761719 586.238281 913.703125 586.238281 913.703125 C 586.238281 913.703125 586.707031 912.058594 586.707031 910.882812 C 586.707031 909.707031 588.8125 905.945312 588.105469 904.535156 C 587.402344 903.125 587.855469 900.304688 587.855469 900.304688 L 587.03125 896.308594 L 589.582031 894.191406 L 590.808594 892.78125 L 590.808594 890.902344 C 590.800781 888.902344 588.933594 889.609375 588.933594 889.609375 Z M 585.765625 862.335938 L 587.179688 864.335938 L 588.824219 864.101562 L 589.175781 864.925781 L 590.117188 863.394531 C 590.117188 863.394531 589.292969 863.160156 588.707031 862.808594 C 588.117188 862.457031 588.589844 861.753906 587.765625 860.578125 C 586.941406 859.398438 586.355469 858.34375 586.355469 858.34375 L 586.472656 860.339844 L 585.296875 860.105469 L 584.476562 861.515625 Z M 582.945312 857.460938 L 584.472656 856.019531 L 585.882812 855.417969 L 586.238281 853.414062 L 587.53125 852.703125 L 587.539062 850.351562 L 584.730469 852.109375 L 584.730469 853.285156 L 583.308594 852.699219 C 583.308594 852.699219 582.480469 853.757812 582.832031 854.699219 C 583.1875 855.636719 582.945312 857.460938 582.945312 857.460938 Z M 579.8125 859.164062 C 579.578125 860.101562 581.929688 859.867188 581.929688 859.867188 L 581.929688 858.929688 C 581.929688 858.929688 580.050781 858.222656 579.8125 859.164062 Z M 587.414062 871.503906 C 588.355469 872.09375 587.179688 873.503906 587.179688 873.503906 C 588.355469 874.089844 590 872.328125 590 872.328125 L 588.121094 870.566406 C 586.589844 869.625 586.472656 870.917969 587.414062 871.503906 Z M 586.003906 877.761719 L 585.765625 879.316406 L 586.707031 879.316406 L 587.53125 880.113281 L 588.117188 879.261719 L 587.648438 877.382812 Z M 678.699219 882.828125 C 678.699219 883.0625 679.25 883.691406 679.5625 883.847656 C 679.875 884.003906 680.191406 884.710938 680.347656 884.945312 C 680.503906 885.179688 680.816406 884.867188 681.445312 884.867188 C 682.070312 884.867188 682.226562 885.414062 682.933594 885.496094 C 683.636719 885.574219 684.109375 884.867188 684.109375 884.867188 L 684.421875 883.222656 C 684.421875 883.222656 683.871094 882.203125 683.714844 881.261719 C 683.558594 880.324219 682.777344 879.695312 682.777344 879.695312 C 682.777344 879.695312 682.777344 880.558594 682.539062 880.558594 C 682.304688 880.558594 681.757812 880.242188 681.128906 880.167969 C 680.503906 880.089844 680.191406 880.402344 679.640625 880.714844 C 679.09375 881.027344 678.386719 880.792969 678.386719 880.792969 C 678.386719 880.792969 678.699219 882.59375 678.699219 882.828125 Z M 726.34375 865.039062 C 726.421875 864.804688 728.460938 862.296875 728.460938 862.296875 L 729.476562 861.203125 C 729.476562 861.203125 729.476562 858.929688 729.636719 858.300781 C 729.792969 857.675781 730.261719 856.890625 730.261719 856.890625 L 730.105469 855.558594 C 730.105469 855.558594 729.949219 856.578125 729.398438 856.421875 C 728.851562 856.265625 729.242188 855.558594 728.539062 855.949219 C 727.832031 856.34375 726.96875 857.285156 726.5 857.910156 C 726.03125 858.535156 725.714844 859.164062 725.558594 860.261719 C 725.402344 861.359375 724.933594 862.613281 725.402344 863.550781 C 725.871094 864.492188 725.871094 865.355469 725.714844 865.589844 C 725.5625 865.824219 726.34375 865.039062 726.34375 865.039062 Z M 747.03125 849.371094 C 747.03125 849.371094 747.109375 851.640625 747.582031 851.953125 C 748.050781 852.269531 748.519531 852.660156 748.597656 853.207031 C 748.675781 853.757812 748.050781 855.089844 748.050781 855.089844 C 748.050781 855.089844 749.695312 854.152344 750.085938 851.484375 C 750.085938 851.484375 751.027344 852.03125 751.261719 852.03125 C 751.5 852.03125 752.359375 850.9375 752.59375 850.855469 C 752.832031 850.78125 754.085938 850.621094 754.242188 850.308594 C 754.398438 849.996094 754.867188 849.496094 754.867188 849.496094 L 753.222656 847.742188 C 753.222656 847.742188 750.402344 847.742188 750.089844 847.742188 C 749.777344 847.742188 749.382812 848.636719 749.382812 848.636719 L 748.914062 849.277344 L 747.816406 849.164062 Z M 748.207031 844.902344 L 750.007812 844.980469 L 750.398438 846.703125 C 750.398438 846.703125 751.578125 846.390625 751.734375 846.15625 C 751.890625 845.921875 752.753906 845.765625 753.144531 845.527344 C 753.535156 845.292969 754.003906 844.667969 753.144531 844.117188 C 752.28125 843.570312 752.28125 843.179688 751.578125 842.941406 C 750.871094 842.707031 751.027344 842.472656 750.398438 843.257812 C 749.773438 844.039062 749.460938 844.277344 748.753906 844.433594 C 748.050781 844.589844 748.207031 844.902344 748.207031 844.902344 Z M 734.574219 831.503906 C 734.574219 831.503906 735.433594 831.894531 736.0625 832.207031 C 736.6875 832.523438 737.078125 832.207031 737.078125 832.207031 C 737.078125 832.207031 736.53125 831.894531 736.296875 831.347656 C 736.0625 830.796875 736.375 830.640625 736.609375 830.40625 C 736.84375 830.171875 737.472656 829.386719 737.003906 828.917969 C 736.53125 828.445312 735.355469 827.976562 735.355469 827.976562 L 734.574219 828.605469 L 734.964844 829.390625 L 734.496094 829.546875 Z M 686.617188 888.078125 L 687.910156 889.371094 C 687.910156 889.371094 688.496094 889.136719 688.847656 888.902344 C 689.203125 888.667969 690.023438 889.019531 690.023438 889.019531 L 689.4375 887.609375 C 689.4375 887.609375 688.847656 887.019531 688.378906 887.019531 C 687.910156 887.019531 687.320312 886.667969 686.96875 886.550781 C 686.613281 886.433594 685.675781 886.433594 686.027344 886.785156 C 686.382812 887.136719 685.792969 887.84375 685.792969 887.84375 Z M 684.148438 888.3125 C 684.851562 887.84375 685.675781 884.082031 685.675781 884.082031 L 684.734375 884.789062 C 684.734375 884.789062 683.558594 886.316406 683.441406 886.785156 C 683.324219 887.257812 683.5625 888.195312 683.5625 888.195312 C 683.5625 888.195312 683.441406 888.785156 684.148438 888.3125 Z M 689.90625 886.433594 C 689.671875 886.785156 690.730469 887.960938 690.730469 887.960938 L 691.082031 889.722656 C 691.082031 889.722656 691.4375 888.902344 691.4375 888.429688 C 691.4375 887.960938 691.789062 887.253906 691.789062 887.253906 L 690.730469 886.433594 C 690.730469 886.433594 690.140625 886.078125 689.90625 886.433594 Z M 706.363281 883.378906 C 706.363281 883.378906 705.539062 885.492188 706.832031 885.609375 C 708.125 885.730469 708.125 885.730469 708.125 885.730469 C 708.125 885.730469 708.597656 883.023438 706.363281 883.378906 Z M 681.445312 873.269531 L 682.03125 874.679688 C 682.03125 874.679688 683.914062 873.503906 684.382812 872.917969 C 684.851562 872.328125 684.03125 871.390625 683.914062 870.683594 C 683.796875 869.976562 682.03125 871.152344 682.03125 871.152344 M 678.152344 863.75 L 680.738281 864.925781 L 682.152344 862.335938 L 681.933594 858.3125 C 681.933594 858.3125 679.800781 859.164062 679.09375 859.519531 C 678.390625 859.871094 677.566406 861.28125 677.566406 861.28125 L 677.097656 862.457031 Z M 714.941406 716.238281 L 714.238281 716.355469 L 713.882812 717.765625 L 712.824219 718.234375 C 712.824219 718.234375 713.296875 716.003906 713.0625 715.53125 C 712.824219 715.0625 713.0625 713.769531 713.0625 713.769531 L 712.003906 713.886719 L 711.179688 716.589844 L 710.710938 718.589844 L 709.652344 720.351562 L 708.359375 721.410156 L 705.773438 722.117188 L 704.128906 723.292969 L 704.246094 725.171875 L 706.363281 724.234375 L 707.1875 723.527344 L 707.421875 724.820312 C 707.421875 724.820312 708.714844 723.175781 709.417969 722.707031 C 710.125 722.234375 710.949219 720.707031 710.949219 721.292969 C 710.949219 721.882812 711.769531 722.820312 711.769531 722.820312 L 712.359375 721.410156 L 713.0625 720.585938 L 713.769531 721.648438 C 713.769531 721.648438 714.355469 720.941406 714.59375 720.351562 C 714.824219 719.765625 715.179688 719.882812 715.648438 719.53125 C 716.121094 719.175781 716.589844 718.824219 716.707031 718.117188 C 716.824219 717.414062 716.941406 716.121094 716.941406 716.121094 L 715.414062 714.945312 Z M 707.890625 719.175781 L 709.65625 717.882812 L 709.773438 715.296875 L 708.480469 713.414062 L 708.714844 714.710938 L 708.007812 715.179688 L 707.1875 714.589844 L 705.773438 716.472656 L 705.1875 718 L 705.421875 718.820312 L 706.832031 717.765625 Z M 701.308594 723.640625 C 700.484375 723.523438 700.015625 723.40625 699.898438 724.230469 C 699.78125 725.050781 699.074219 724.933594 698.839844 725.523438 C 698.605469 726.109375 697.664062 726.226562 696.84375 726.34375 C 696.019531 726.460938 696.019531 727.519531 695.78125 728.929688 C 695.546875 730.339844 695.664062 730.457031 696.488281 729.871094 C 697.3125 729.28125 697.3125 728.222656 697.78125 727.871094 C 698.25 727.519531 698.839844 727.285156 698.839844 727.285156 L 699.898438 727.402344 L 701.308594 726.695312 L 701.777344 725.757812 L 702.601562 725.523438 L 703.1875 724.460938 C 703.1875 724.464844 702.132812 723.757812 701.308594 723.640625 Z M 711.769531 710.59375 L 711.535156 712.476562 C 711.535156 712.476562 713.179688 712.828125 713.652344 711.652344 C 714.121094 710.476562 714.828125 708.242188 714.828125 708.242188 C 714.828125 708.242188 714.355469 706.949219 713.886719 707.421875 C 713.417969 707.890625 714.003906 708.359375 713.296875 708.597656 C 712.59375 708.832031 711.769531 710.59375 711.769531 710.59375 Z M 719.058594 711.710938 L 721.171875 711.09375 L 722.347656 709.316406 L 723.289062 709.660156 L 724.582031 708.953125 L 725.167969 706.367188 L 723.992188 704.25 C 723.992188 704.25 723.523438 703.191406 723.289062 703.542969 C 723.050781 703.894531 722.582031 705.304688 722.582031 705.304688 L 721.109375 705.539062 L 719.519531 706.246094 L 719.519531 708.007812 L 719.460938 709.773438 Z M 725.875 703.308594 L 727.636719 703.777344 L 729.753906 702.484375 L 730.574219 700.371094 L 730.339844 698.960938 L 729.402344 700.371094 L 728.460938 699.664062 L 728.226562 700.957031 L 727.050781 701.191406 L 726.816406 702.601562 Z M 730.105469 697.546875 C 730.105469 697.546875 731.984375 699.78125 732.691406 699.074219 C 733.398438 698.367188 734.21875 696.839844 734.21875 696.839844 L 733.160156 695.898438 L 732.105469 696.136719 C 732.105469 696.136719 731.75 695.078125 731.398438 694.960938 C 731.042969 694.84375 729.636719 694.960938 729.636719 694.960938 L 729.988281 696.136719 Z M 749.027344 685.976562 L 749.617188 687.453125 C 749.617188 688.667969 750.792969 687.453125 750.792969 687.453125 L 751.96875 687.386719 L 752.671875 686.824219 C 752.671875 686.824219 753.613281 686.367188 753.964844 685.898438 C 754.316406 685.429688 754.316406 685.433594 754.316406 685.433594 L 752.90625 684.144531 L 752.554688 685.089844 L 751.730469 685.324219 L 751.378906 683.796875 C 751.378906 683.796875 751.027344 685.296875 750.320312 685.296875 C 749.617188 685.296875 749.027344 685.976562 749.027344 685.976562 Z M 753.613281 688.730469 C 753.613281 688.730469 754.320312 689.90625 754.199219 690.496094 C 754.082031 691.082031 754.433594 691.554688 755.023438 691.199219 C 755.609375 690.847656 756.667969 689.671875 756.90625 689.085938 C 757.140625 688.496094 756.550781 686.851562 756.550781 686.851562 C 756.550781 686.851562 755.492188 687.085938 755.140625 687.324219 C 754.789062 687.558594 753.613281 688.730469 753.613281 688.730469 Z M 757.960938 684.382812 L 758.902344 687.320312 L 759.84375 687.085938 C 759.84375 687.085938 760.550781 684.148438 757.960938 684.382812 Z M 752.203125 692.023438 C 753.730469 692.730469 753.261719 690.847656 753.261719 690.847656 L 751.261719 689.90625 C 750.441406 690.027344 750.675781 691.316406 752.203125 692.023438 Z M 675.410156 992.21875 L 674.3125 993.160156 L 671.960938 993.941406 L 671.335938 995.824219 L 671.960938 997.863281 L 672.277344 1000.214844 L 673.214844 1000.527344 L 673.371094 1001.78125 L 675.253906 1002.71875 C 675.253906 1002.71875 675.722656 1001.46875 676.195312 1000.527344 C 676.664062 999.585938 677.605469 995.667969 677.132812 994.414062 C 676.664062 993.160156 676.347656 990.964844 676.347656 990.964844 Z M 669.296875 1006.820312 C 669.296875 1006.820312 668.984375 1008.84375 670.238281 1009.316406 C 671.492188 1009.785156 670.707031 1009.929688 670.863281 1011.652344 C 671.023438 1013.375 671.023438 1014.316406 670.863281 1015.101562 C 670.707031 1015.882812 670.394531 1017.140625 670.394531 1017.921875 C 670.394531 1018.707031 671.492188 1020.429688 672.746094 1021.527344 C 674 1022.625 674.941406 1020.121094 675.566406 1019.179688 C 676.195312 1018.242188 677.445312 1019.027344 677.445312 1019.027344 C 677.445312 1019.027344 678.074219 1014.652344 678.074219 1013.710938 C 678.074219 1012.769531 677.601562 1007.777344 677.132812 1006.523438 C 676.664062 1005.269531 675.253906 1004.527344 674.625 1004.527344 C 674 1004.527344 672.273438 1006.179688 671.648438 1006.808594 C 671.023438 1007.433594 669.925781 1006.820312 669.925781 1006.820312 Z M 694.058594 1027.011719 C 694.058594 1027.011719 693.121094 1030.144531 695.15625 1030.929688 C 697.195312 1031.714844 698.605469 1032.027344 699.386719 1032.808594 C 700.171875 1033.59375 700.800781 1034.375 702.210938 1034.535156 C 703.621094 1034.691406 704.246094 1035.789062 705.34375 1036.414062 C 706.441406 1037.042969 708.792969 1037.199219 708.792969 1037.199219 C 708.792969 1037.199219 710.046875 1035.316406 709.421875 1033.90625 C 708.792969 1032.496094 708.792969 1031.871094 709.261719 1030.929688 C 709.734375 1029.992188 710.675781 1027.953125 710.675781 1027.953125 L 711.144531 1026.226562 C 711.144531 1026.226562 709.734375 1026.855469 708.792969 1026.699219 C 707.851562 1026.542969 706.753906 1026.699219 705.972656 1027.011719 C 705.1875 1027.324219 702.679688 1028.265625 701.898438 1028.265625 C 701.113281 1028.265625 700.957031 1027.953125 700.488281 1027.640625 C 700.015625 1027.324219 698.917969 1026.855469 698.449219 1026.699219 C 697.980469 1026.542969 697.039062 1027.640625 696.410156 1027.484375 C 695.785156 1027.324219 694.058594 1027.011719 694.058594 1027.011719 Z M 637.171875 1016.667969 L 638.738281 1017.136719 L 640.464844 1018.546875 C 640.464844 1018.546875 642.5 1016.980469 642.34375 1016.351562 C 642.1875 1015.726562 641.246094 1015.726562 641.402344 1014.785156 C 641.5625 1013.847656 641.5625 1013.847656 641.5625 1013.847656 L 638.113281 1014.785156 C 638.113281 1014.785156 636.859375 1016.355469 637.171875 1016.667969 Z M 752.164062 1027.988281 L 749.363281 1027.03125 L 748.273438 1026.070312 L 745.777344 1027.464844 L 744.445312 1027.464844 L 743.582031 1028.84375 L 748.125 1031.296875 Z M 757.84375 1045.347656 C 757.84375 1045.347656 755.964844 1047.226562 756.90625 1047.699219 C 757.84375 1048.167969 759.882812 1047.699219 760.824219 1047.855469 C 761.761719 1048.011719 763.800781 1048.480469 763.957031 1049.265625 C 764.113281 1050.046875 764.585938 1050.050781 766.464844 1049.738281 C 768.347656 1049.421875 771.324219 1049.109375 771.324219 1049.109375 C 771.324219 1049.109375 773.675781 1047.382812 772.578125 1048.011719 C 771.480469 1048.640625 770.382812 1048.011719 769.914062 1047.699219 C 769.441406 1047.382812 769.601562 1047.542969 768.1875 1047.699219 C 766.777344 1047.855469 765.835938 1047.382812 765.210938 1047.070312 C 764.585938 1046.757812 764.742188 1047.070312 763.332031 1047.070312 C 761.921875 1047.070312 760.980469 1047.226562 760.980469 1046.285156 C 760.980469 1045.347656 760.039062 1045.503906 760.039062 1045.503906 L 759.097656 1046.285156 Z M 951.320312 683.773438 C 951.320312 683.773438 944.621094 678.484375 943.914062 676.367188 C 943.210938 674.253906 941.800781 671.082031 941.09375 670.023438 C 940.390625 668.960938 941.449219 665.4375 940.390625 663.324219 C 939.332031 661.207031 939.683594 657.328125 939.332031 654.859375 C 938.980469 652.390625 939.683594 652.390625 940.742188 650.277344 C 941.800781 648.160156 943.5625 647.101562 943.914062 644.988281 C 944.269531 642.871094 945.324219 639.699219 945.324219 639.699219 L 941.449219 637.230469 L 938.628906 635.820312 L 935.453125 635.464844 L 932.632812 637.230469 L 928.050781 638.285156 C 928.050781 638.285156 925.230469 639.699219 925.582031 640.753906 C 925.933594 641.8125 925.230469 644.632812 925.230469 644.632812 L 922.054688 646.398438 L 923.113281 648.863281 L 924.878906 650.980469 L 921.703125 660.5 L 919.585938 660.148438 C 919.585938 660.148438 916.769531 659.441406 916.769531 663.675781 C 916.769531 667.90625 919.234375 671.785156 920.292969 671.078125 C 921.351562 670.375 923.464844 668.609375 923.464844 668.609375 L 925.230469 671.429688 L 928.050781 670.726562 C 928.050781 670.726562 927.34375 674.253906 928.753906 674.605469 C 930.164062 674.957031 932.28125 677.777344 932.28125 677.777344 L 930.519531 678.484375 C 930.519531 678.484375 928.402344 681.65625 930.164062 682.363281 C 931.925781 683.066406 935.101562 683.773438 935.101562 683.773438 L 937.214844 686.945312 C 937.214844 686.945312 940.390625 684.832031 941.449219 685.183594 C 942.503906 685.539062 945.324219 685.890625 945.324219 685.890625 C 945.324219 685.890625 946.734375 683.421875 947.441406 684.832031 C 948.144531 686.242188 949.203125 688.003906 949.203125 688.003906 C 949.203125 688.003906 950.96875 682.363281 951.320312 683.773438 Z M 933.042969 634.417969 C 933.042969 634.417969 936.1875 632.296875 939.007812 634.0625 C 941.828125 635.828125 944.636719 637.234375 944.636719 637.234375 L 947.097656 637.9375 L 948.503906 634.058594 L 948.148438 629.121094 L 950.617188 629.828125 L 949.558594 625.949219 L 952.027344 627.007812 L 952.730469 623.480469 L 950.613281 620.660156 L 953.082031 617.132812 L 954.492188 621.011719 L 958.371094 616.78125 L 956.253906 612.195312 L 959.078125 613.253906 L 960.839844 609.023438 L 963.308594 608.316406 L 966.832031 606.554688 L 968.949219 603.734375 L 968.59375 600.5625 C 968.59375 600.5625 970.007812 600.914062 972.121094 599.855469 C 974.238281 598.796875 978.117188 593.859375 978.117188 593.859375 C 978.117188 593.859375 981.640625 591.746094 982.699219 590.335938 C 983.757812 588.925781 986.578125 585.046875 986.578125 585.046875 C 986.578125 585.046875 986.929688 588.925781 990.457031 585.753906 C 993.980469 582.578125 997.507812 579.40625 998.917969 579.757812 C 1000.328125 580.109375 1004.207031 578.699219 1005.972656 577.289062 C 1007.734375 575.878906 1009.847656 572.707031 1011.257812 573.410156 C 1012.667969 574.117188 1015.84375 566.710938 1015.84375 566.710938 L 1016.898438 563.890625 C 1016.898438 563.890625 1016.898438 559.308594 1015.84375 557.898438 C 1014.785156 556.484375 1010.554688 555.429688 1010.554688 555.429688 L 1006.324219 554.722656 L 1003.503906 556.484375 L 998.917969 560.714844 C 998.917969 560.714844 998.917969 564.945312 997.863281 565.300781 C 996.804688 565.652344 995.042969 568.121094 993.277344 568.472656 C 991.515625 568.824219 991.515625 570.238281 989.402344 570.589844 C 987.285156 570.941406 986.578125 571.292969 985.167969 571.648438 C 983.761719 572 981.292969 573.410156 980.234375 573.410156 C 979.175781 573.410156 977.414062 572 977.414062 572 L 971.417969 571.644531 L 971.066406 575.875 L 968.597656 577.992188 L 968.949219 575.523438 C 968.949219 575.523438 966.128906 576.582031 964.71875 578.34375 C 963.308594 580.109375 961.546875 580.8125 960.488281 581.164062 C 959.429688 581.519531 955.90625 583.988281 956.257812 585.394531 C 956.609375 586.808594 954.144531 587.863281 954.144531 587.863281 L 952.378906 592.449219 L 950.96875 594.566406 C 950.96875 594.566406 947.796875 594.210938 946.738281 595.621094 C 945.679688 597.03125 945.222656 598.441406 943.457031 598.796875 C 941.695312 599.148438 940.53125 597.738281 940.53125 597.738281 L 940.53125 601.28125 C 940.53125 601.28125 943.050781 601.613281 941.640625 604.4375 C 940.230469 607.257812 942.601562 607.257812 942.601562 607.257812 L 945.375 609.019531 C 945.375 609.019531 940.769531 608.667969 940.769531 610.078125 C 940.769531 611.488281 942.519531 614.308594 942.519531 614.308594 L 937.929688 614.660156 L 939.691406 617.480469 L 937.222656 617.835938 L 941.800781 621.714844 L 937.21875 619.597656 L 934.398438 622.066406 C 934.398438 622.066406 933.691406 623.476562 931.578125 625.238281 C 929.460938 627 927.347656 627.355469 929.460938 628.765625 C 931.578125 630.175781 933.339844 629.472656 935.105469 629.472656 C 936.863281 629.472656 930.980469 631.253906 933.042969 634.417969 Z M 724.972656 463.003906 L 730.449219 465.867188 L 730.449219 468.933594 L 726.945312 471.15625 L 728.238281 475.035156 L 733.117188 476.445312 L 740.496094 475.035156 L 748.238281 473.976562 L 746.820312 477.855469 L 740.117188 477.148438 L 742.582031 480.675781 L 739.410156 481.027344 C 739.410156 481.027344 738.351562 478.558594 736.941406 479.265625 C 735.527344 479.96875 735.175781 481.730469 737.292969 483.496094 C 739.40625 485.257812 741.523438 486.171875 741.523438 486.171875 L 746.460938 487.085938 L 752.910156 487.085938 C 752.910156 487.085938 751.75 490.75 753.160156 492.511719 C 754.570312 494.277344 758.449219 493.117188 759.507812 492.765625 C 760.5625 492.410156 761.269531 488.835938 762.679688 488.480469 C 764.089844 488.128906 766.207031 488.105469 766.207031 488.105469 L 770.082031 484.214844 C 770.082031 484.214844 769.023438 480.328125 771.140625 479.269531 C 773.257812 478.214844 775.726562 473.625 775.726562 473.625 L 777.839844 471.15625 C 777.839844 471.15625 777.488281 466.925781 777.839844 464.808594 L 775.371094 461.632812 L 768.34375 459.164062 L 762.019531 458.105469 L 762.019531 455.300781 L 760.242188 454.230469 L 757.226562 461.636719 C 757.226562 461.636719 753.78125 464.105469 754.136719 462.695312 C 754.488281 461.285156 752.765625 459.875 754.527344 458.816406 C 756.289062 457.757812 755.960938 452.46875 755.960938 452.46875 L 753.148438 450 C 753.148438 450 749.980469 451.410156 749.980469 453.527344 C 749.980469 455.640625 750.6875 459.875 750.6875 459.875 L 749.632812 464.808594 L 747.871094 460.929688 L 747.167969 458.109375 L 743.640625 459.875 L 741.171875 459.519531 L 741.523438 457.054688 C 741.523438 457.054688 737.996094 451.058594 734.824219 450 L 733.765625 452.117188 L 736.589844 455.289062 L 734.472656 459.871094 C 734.472656 459.871094 731.300781 453.878906 731.300781 454.9375 C 731.300781 455.996094 730.59375 459.871094 730.59375 459.871094 L 726.125 460.578125 Z M 692.863281 472.566406 C 692.863281 472.566406 687.925781 475.035156 686.519531 475.738281 C 685.105469 476.445312 684.050781 482.4375 684.050781 482.4375 C 684.050781 482.4375 684.050781 486.316406 684.402344 489.84375 C 684.753906 493.371094 686.871094 494.425781 686.871094 494.425781 L 688.28125 490.546875 L 691.101562 491.960938 L 690.394531 498.308594 L 692.511719 498.660156 L 693.21875 501.832031 L 687.574219 499.363281 L 690.042969 504.300781 C 690.042969 504.300781 689.339844 506.769531 690.75 508.53125 C 692.160156 510.296875 697.097656 511.351562 697.097656 511.351562 L 697.800781 513.117188 C 697.800781 513.117188 693.921875 514.171875 694.273438 515.230469 C 694.628906 516.289062 696.742188 518.40625 696.742188 518.40625 L 697.800781 520.519531 L 703.09375 519.8125 C 703.09375 519.8125 705.914062 515.9375 705.5625 514.171875 C 705.207031 512.410156 705.917969 509.589844 705.917969 509.589844 L 709.09375 507.121094 C 709.09375 507.121094 711.21875 503.242188 711.21875 506.0625 C 711.21875 508.882812 710.886719 512.058594 710.886719 512.058594 L 712.6875 514.878906 L 714.878906 511 L 718.308594 507.015625 L 718.308594 509.941406 L 717.398438 514.171875 L 720.71875 515.582031 L 718.253906 516.289062 C 718.253906 516.289062 714.375 517.347656 712.609375 517.699219 C 710.847656 518.054688 711.554688 520.519531 711.554688 520.519531 L 709.085938 521.933594 C 709.085938 521.933594 708.027344 524.753906 706.96875 525.808594 C 705.910156 526.867188 702.738281 526.164062 701.328125 525.457031 C 699.917969 524.753906 700.972656 527.925781 700.972656 530.042969 C 700.972656 532.15625 701.328125 534.273438 701.328125 534.273438 C 701.328125 534.273438 704.5 533.566406 706.617188 533.566406 C 708.730469 533.566406 710.140625 532.15625 711.199219 531.449219 C 712.257812 530.746094 713.316406 531.449219 715.429688 531.804688 C 717.546875 532.15625 718.25 530.042969 718.25 530.042969 L 718.605469 533.214844 C 718.605469 533.214844 716.136719 534.625 715.078125 534.273438 C 714.019531 533.917969 707.671875 536.742188 707.671875 536.742188 C 707.671875 536.742188 707.671875 538.152344 709.789062 538.503906 C 711.90625 538.855469 713.316406 540.621094 713.316406 540.621094 C 713.316406 540.621094 706.617188 540.621094 705.558594 539.914062 C 704.5 539.207031 703.089844 539.558594 703.089844 539.558594 C 703.089844 539.558594 703.441406 546.613281 704.5 549.082031 C 705.558594 551.546875 708.730469 550.84375 708.730469 550.84375 L 709.4375 553.664062 C 709.4375 553.664062 712.609375 553.3125 714.726562 553.3125 C 716.839844 553.3125 715.78125 555.78125 715.78125 555.78125 L 711.90625 556.132812 C 711.90625 556.132812 714.019531 558.601562 715.429688 560.363281 C 716.839844 562.128906 717.191406 564.242188 717.191406 564.242188 L 719.308594 563.890625 C 719.308594 563.890625 719.660156 558.953125 720.71875 557.191406 C 721.777344 555.425781 721.074219 554.367188 721.425781 552.253906 C 721.777344 550.136719 722.484375 543.085938 722.484375 543.085938 L 726.007812 540.972656 C 726.007812 540.972656 727.066406 531.804688 727.066406 530.042969 C 727.066406 528.277344 729.535156 526.164062 729.886719 525.105469 C 730.238281 524.046875 730.945312 519.816406 730.945312 517.699219 C 730.945312 515.582031 732.355469 513.820312 734.46875 511.703125 C 736.585938 509.589844 734.46875 511.703125 736.585938 511 C 738.699219 510.292969 739.40625 508.53125 741.167969 507.828125 C 742.933594 507.121094 743.988281 507.472656 743.988281 507.472656 L 745.402344 503.59375 C 745.402344 503.59375 742.578125 502.183594 739.40625 501.125 C 736.234375 500.070312 736.234375 497.25 734.824219 495.132812 C 733.414062 493.015625 729.886719 492.664062 729.886719 492.664062 C 729.886719 492.664062 729.890625 490.902344 730.242188 488.433594 C 730.59375 485.964844 728.832031 483.496094 728.832031 482.441406 C 728.832031 481.382812 726.71875 480.675781 726.71875 480.675781 L 726.371094 484.554688 L 723.917969 487.023438 C 723.917969 487.023438 723.941406 481.734375 724.292969 478.914062 C 724.644531 476.09375 720.464844 469.394531 720.464844 469.394531 L 715.625 465.160156 L 713.449219 471.050781 L 713.449219 475.035156 C 713.449219 475.035156 712.851562 479.972656 713.203125 485.257812 C 713.558594 490.546875 716.839844 499.714844 716.839844 499.714844 L 711.550781 493.371094 C 711.550781 493.371094 711.550781 491.605469 710.847656 489.492188 C 710.140625 487.375 708.730469 477.855469 708.730469 476.796875 C 708.730469 475.738281 705.203125 473.976562 705.203125 473.976562 C 705.203125 473.976562 703.089844 478.914062 702.382812 481.382812 C 701.679688 483.847656 704.148438 492.3125 704.148438 492.3125 C 704.148438 492.3125 701.679688 488.785156 700.972656 487.375 C 700.269531 485.964844 699.566406 486.316406 698.507812 485.257812 C 697.449219 484.203125 698.507812 481.730469 698.507812 481.730469 C 698.507812 481.730469 696.746094 482.082031 695.6875 482.4375 C 694.628906 482.789062 693.222656 481.023438 693.222656 481.023438 C 693.222656 481.023438 695.695312 479.253906 697.105469 478.195312 C 698.519531 477.136719 699.234375 477.476562 700.996094 476.417969 C 702.761719 475.359375 700.316406 472.160156 700.316406 472.160156 L 696.488281 473.871094 C 692.710938 476.585938 692.863281 472.566406 692.863281 472.566406 Z M 736.9375 497.25 L 738.703125 498.304688 L 741.523438 496.542969 L 738.351562 494.074219 Z M 737.996094 514.171875 L 740.113281 515.585938 C 740.113281 515.585938 740.816406 521.226562 742.226562 521.578125 C 743.636719 521.933594 748.574219 519.816406 748.574219 519.816406 L 749.632812 514.878906 L 751.394531 513.46875 L 748.925781 511 L 745.753906 510.648438 L 742.226562 511.351562 Z M 743.636719 528.355469 C 743.992188 529.414062 745.402344 530.132812 745.402344 530.132812 C 745.402344 530.132812 744.34375 534.105469 743.992188 536.574219 C 743.636719 539.042969 741.167969 540.992188 741.167969 540.992188 L 743.035156 541.730469 C 743.035156 541.730469 746.457031 541.730469 748.574219 541.730469 C 750.6875 541.730469 751.042969 538.882812 751.042969 538.882812 L 752.453125 540.265625 L 750.335938 545.199219 L 752.453125 546.613281 L 755.976562 543.792969 L 758.09375 541.324219 C 758.09375 541.324219 760.558594 537.445312 761.617188 536.035156 C 762.675781 534.625 764.789062 535.332031 764.789062 535.332031 L 761.972656 530.75 L 758.796875 532.164062 C 758.796875 532.164062 756.328125 529 754.566406 526.53125 C 752.804688 524.0625 755.273438 522.667969 755.273438 522.667969 L 752.804688 519.171875 L 751.023438 522.304688 L 746.457031 522.304688 L 741.5625 524.714844 C 741.566406 524.714844 743.285156 527.296875 743.636719 528.355469 Z M 684.050781 506.0625 C 685.8125 508.53125 684.050781 506.0625 684.753906 509.234375 C 685.460938 512.410156 685.460938 513.820312 686.871094 515.230469 C 688.28125 516.640625 688.632812 518.050781 689.339844 519.816406 C 690.046875 521.578125 691.808594 520.519531 691.808594 520.519531 C 691.808594 520.519531 690.398438 516.640625 689.339844 515.585938 C 688.28125 514.527344 686.167969 509.238281 686.167969 509.238281 L 684.050781 502.890625 C 683.34375 501.832031 682.285156 503.59375 684.050781 506.0625 Z M 492.636719 783.957031 L 493.285156 786.222656 C 493.285156 786.222656 495.800781 786.648438 497.367188 786.332031 C 498.933594 786.019531 500.820312 785.371094 501.917969 785.84375 C 503.015625 786.3125 504.429688 788.496094 505.367188 788.964844 C 506.308594 789.433594 507.40625 790.058594 508.503906 789.902344 C 509.601562 789.742188 511.480469 791.152344 512.578125 791.308594 C 513.675781 791.464844 514.773438 791.933594 515.871094 791.308594 C 516.96875 790.679688 518.847656 790.835938 519.945312 790.050781 C 521.042969 789.269531 522.609375 787.382812 523.078125 787.382812 C 523.546875 787.382812 524.332031 785.8125 524.332031 785.8125 L 526.761719 785.8125 C 526.761719 785.8125 530.289062 785.171875 531.226562 783.605469 C 532.167969 782.039062 534.363281 780.167969 534.363281 780.167969 C 534.363281 780.167969 533.890625 777.585938 534.363281 778.058594 C 534.832031 778.53125 536.554688 780.214844 536.554688 780.214844 L 537.339844 780.511719 C 537.339844 780.511719 538.125 779.25 538.59375 779.089844 C 539.0625 778.933594 540.945312 775.953125 540.945312 775.953125 L 539.53125 775.792969 L 539.847656 774.382812 L 542.355469 773.441406 L 543.765625 771.875 L 544.703125 770.621094 L 545.175781 767.957031 L 543.921875 768.113281 L 543.449219 766.546875 C 543.449219 766.546875 544.328125 765.292969 543.855469 764.351562 C 543.386719 763.414062 542.226562 761.6875 542.226562 761.6875 L 542.226562 763.019531 L 539.796875 761.84375 L 539.796875 760.667969 L 537.921875 760.746094 C 537.921875 760.746094 538.101562 759.335938 538.257812 758.394531 C 538.414062 757.453125 538.347656 756.515625 538.347656 756.515625 C 538.347656 756.515625 536.980469 757.769531 536.824219 757.296875 C 536.667969 756.828125 535.277344 755.730469 536.6875 754.320312 C 538.097656 752.910156 539.207031 751.96875 539.207031 751.96875 C 539.207031 751.96875 537.960938 750.875 537.332031 751.5 C 536.707031 752.125 535.925781 752.910156 535.925781 752.910156 L 534.671875 753.378906 L 534.359375 754.789062 L 532.636719 753.222656 L 532.324219 751.65625 C 532.324219 751.65625 531.539062 751.65625 531.070312 750.871094 C 530.601562 750.085938 530.128906 749.714844 530.128906 749.714844 L 528.875 750.597656 L 527.9375 750.597656 L 528.40625 754.828125 C 528.40625 754.828125 526.683594 755.828125 525.898438 755.671875 C 525.113281 755.511719 524.800781 754.679688 524.800781 754.679688 L 523.234375 754.34375 C 523.234375 754.34375 523.390625 756.839844 522.292969 756.996094 C 521.199219 757.152344 519.003906 754.796875 519.003906 754.796875 C 519.003906 754.796875 517.75 755.578125 518.21875 756.675781 C 518.6875 757.773438 518.6875 761.375 518.6875 761.375 C 518.6875 761.375 517.277344 759.648438 516.808594 758.394531 C 516.339844 757.140625 516.179688 755.574219 516.179688 755.574219 L 514.929688 754.789062 C 514.929688 754.789062 513.046875 755.730469 512.578125 755.886719 C 512.105469 756.042969 511.167969 756.984375 511.167969 756.984375 C 511.167969 756.984375 511.949219 760.746094 511.007812 760.589844 C 510.070312 760.429688 509.753906 758.863281 508.972656 757.925781 C 508.1875 756.984375 506.777344 754.789062 506.308594 755.105469 C 505.835938 755.417969 505.679688 757.925781 505.679688 758.550781 C 505.679688 759.179688 506.308594 762.46875 505.679688 763.410156 C 505.054688 764.347656 504.269531 761.84375 504.269531 761.84375 L 503.332031 762.78125 L 503.171875 764.820312 L 501.921875 765.445312 L 501.136719 767.328125 L 500.351562 764.976562 L 500.507812 763.09375 L 499.570312 762.46875 L 498.628906 760.746094 L 500.195312 759.492188 L 499.726562 757.296875 L 496.75 753.847656 L 495.023438 752.753906 L 493.457031 751.183594 L 490.949219 750.871094 L 490.480469 751.96875 C 490.480469 751.96875 493.300781 752.753906 493.144531 753.222656 C 492.988281 753.691406 492.203125 753.691406 492.203125 753.691406 C 492.203125 753.691406 492.359375 754.632812 493.144531 755.261719 C 493.929688 755.886719 494.242188 758.550781 494.242188 758.550781 C 494.242188 758.550781 493.144531 758.550781 493.144531 758.078125 C 493.144531 757.609375 492.832031 757.453125 491.578125 757.140625 C 490.324219 756.828125 489.695312 755.105469 489.695312 755.105469 C 489.695312 755.105469 488.441406 754.320312 487.972656 754.789062 C 487.503906 755.261719 486.5625 757.296875 486.5625 757.296875 C 486.5625 757.296875 486.738281 759.492188 487.207031 759.648438 C 487.679688 759.804688 488.796875 760.117188 488.796875 760.117188 L 488.796875 761.609375 C 488.796875 761.609375 488.363281 762.15625 487.894531 761.84375 C 487.425781 761.53125 484.878906 759.960938 484.878906 759.960938 C 484.878906 759.960938 486.660156 762.625 486.191406 762.941406 C 485.722656 763.253906 483.085938 763.566406 483.085938 763.566406 L 486.707031 764.664062 C 486.707031 764.664062 489.691406 764.507812 490.472656 763.410156 C 491.257812 762.3125 492.671875 762.46875 492.671875 762.46875 L 494.867188 763.132812 L 495.183594 763.957031 L 496.90625 763.957031 C 496.90625 763.957031 497.378906 764.957031 496.28125 765.582031 C 495.183594 766.210938 493.773438 767.550781 493.773438 767.550781 L 495.183594 768.691406 L 497.535156 769.03125 L 498.003906 768.257812 L 496.75 770.769531 C 496.75 770.769531 494.085938 770.929688 492.988281 770.773438 C 491.890625 770.617188 490.011719 771.402344 489.382812 771.558594 C 488.757812 771.714844 485.152344 772.8125 485.152344 772.8125 L 485.152344 774.0625 C 485.152344 774.0625 486.625 773.28125 488.816406 773.125 C 491.011719 772.96875 492 773.4375 492.785156 773.28125 C 493.566406 773.125 494.140625 775.003906 494.609375 775.789062 C 495.082031 776.574219 495.761719 777.667969 495.761719 777.667969 L 497.507812 776.414062 L 496.269531 780.332031 L 498 779.550781 L 497.691406 782.058594 L 494.714844 783.308594 L 494.085938 784.40625 Z M 492.636719 783.957031 " fill-opacity="1" fill-rule="nonzero"/></svg>