<svg xmlns="http://www.w3.org/2000/svg" xmlns:xlink="http://www.w3.org/1999/xlink" width="2000" zoomAndPan="magnify" viewBox="400 400 700 700" height="2000" preserveAspectRatio="xMidYMid meet" version="1.0"><defs><clipPath id="c0736fa2de"><path d="M 450 450 L 1049 450 L 1049 1050 L 450 1050 Z M 450 450 " clip-rule="nonzero"/></clipPath></defs><g clip-path="url(#c0736fa2de)"><path fill="#ac6d46" d="M 770.175781 990.824219 C 770.175781 990.824219 780.605469 985.609375 785.34375 986.558594 C 790.085938 987.507812 795.296875 990.351562 798.617188 991.296875 C 801.933594 992.246094 809.042969 997.460938 809.042969 997.460938 C 809.042969 997.460938 805.726562 998.882812 803.828125 999.832031 C 801.933594 1000.777344 797.667969 1001.726562 798.140625 1000.304688 C 798.617188 998.882812 801.460938 997.460938 797.195312 996.039062 C 792.925781 994.617188 793.402344 992.722656 790.558594 992.722656 C 787.714844 992.722656 786.292969 992.722656 783.925781 991.773438 C 781.554688 990.828125 782.976562 988.457031 780.128906 988.457031 C 777.285156 988.457031 770.175781 990.824219 770.175781 990.824219 Z M 817.574219 1003.621094 L 809.992188 1005.992188 C 809.992188 1005.992188 812.359375 1006.941406 815.203125 1006.941406 C 818.046875 1006.941406 820.417969 1007.414062 822.3125 1006.941406 C 824.207031 1006.464844 825.15625 1006.464844 827.054688 1005.992188 C 828.949219 1005.515625 833.214844 1004.570312 833.214844 1004.570312 C 833.214844 1004.570312 831.320312 1003.148438 828.949219 1002.199219 C 826.578125 1001.253906 822.316406 999.355469 819.945312 999.828125 C 817.574219 1000.304688 814.730469 999.828125 814.730469 999.828125 Z M 784.457031 963.4375 C 784.140625 961.226562 781.929688 956.171875 782.875 952.695312 C 783.824219 949.21875 785.085938 946.375 785.085938 946.375 L 786.667969 946.691406 C 786.667969 946.691406 790.460938 943.214844 791.40625 942.585938 C 792.355469 941.953125 795.199219 940.691406 796.464844 939.109375 C 797.726562 937.527344 801.519531 935.316406 802.152344 934.054688 C 802.78125 932.789062 804.046875 929.945312 804.046875 928.683594 C 804.046875 927.417969 802.152344 925.839844 802.152344 923.941406 C 802.152344 922.046875 801.203125 916.992188 801.203125 915.414062 C 801.203125 913.835938 803.414062 913.835938 803.414062 913.835938 L 804.046875 918.574219 L 804.675781 920.785156 C 804.675781 920.785156 803.414062 923.941406 804.675781 924.578125 C 805.941406 925.207031 806.886719 919.207031 806.886719 919.207031 L 805.625 912.570312 L 808.46875 915.414062 C 808.46875 915.414062 810.679688 909.09375 810.679688 908.148438 C 810.679688 907.199219 812.574219 905.304688 814.472656 904.671875 C 816.367188 904.042969 820.789062 903.089844 823.003906 903.089844 C 825.214844 903.089844 825.847656 901.828125 825.847656 901.828125 C 825.847656 901.828125 823.636719 899.617188 823.316406 897.089844 C 823.003906 894.558594 826.480469 891.402344 827.429688 891.402344 C 828.375 891.402344 830.277344 888.875 830.910156 887.925781 C 831.539062 886.976562 833.445312 887.925781 833.445312 887.925781 L 838.441406 886.660156 L 838.441406 883.5 L 844.78125 882.53125 L 847.332031 880.300781 L 847.960938 881.523438 L 851.121094 882.382812 L 849.855469 883.558594 L 846.695312 883.558594 L 842.273438 887.164062 L 842.589844 890.136719 L 844.484375 892.664062 L 848.90625 886.976562 L 852.382812 886.347656 L 860.597656 883.820312 L 860.28125 881.605469 L 858.074219 880.660156 C 858.074219 880.660156 854.59375 881.605469 853.015625 880.976562 C 851.4375 880.34375 850.171875 879.082031 848.589844 877.816406 C 847.011719 876.550781 845.75 872.445312 845.75 872.445312 L 846.378906 869.285156 L 844.484375 869.601562 L 841.007812 867.390625 L 844.167969 867.074219 C 844.167969 867.074219 847.328125 866.757812 848.589844 865.179688 C 849.855469 863.597656 850.488281 863.597656 847.644531 861.703125 C 844.800781 859.808594 839.746094 862.019531 837.535156 862.652344 C 835.324219 863.285156 830.582031 866.128906 827.425781 869.601562 C 824.265625 873.078125 822.683594 874.027344 822.683594 874.027344 C 822.683594 874.027344 827.738281 866.757812 829 865.8125 C 830.265625 864.863281 832.160156 862.652344 833.425781 861.386719 C 834.6875 860.125 837.53125 859.808594 837.53125 859.808594 C 837.53125 859.808594 838.796875 856.648438 840.058594 855.382812 C 841.324219 854.121094 858.703125 854.753906 858.703125 854.753906 L 864.390625 855.070312 C 864.390625 855.070312 869.757812 850.015625 870.707031 849.066406 C 871.65625 848.117188 875.445312 847.171875 877.027344 847.484375 C 878.605469 847.800781 878.921875 846.222656 881.132812 844.328125 C 883.34375 842.429688 880.816406 840.851562 880.816406 840.851562 L 881.449219 835.164062 L 877.65625 833.898438 L 875.445312 835.164062 L 876.390625 832.003906 L 874.496094 829.792969 C 874.496094 829.792969 871.96875 831.058594 868.492188 833.585938 C 865.019531 836.113281 863.4375 835.164062 863.4375 835.164062 C 863.4375 835.164062 862.488281 833.902344 860.910156 832.953125 C 859.328125 832.007812 863.753906 832.953125 863.753906 832.953125 C 863.753906 832.953125 866.28125 832.007812 868.175781 831.058594 C 870.074219 830.109375 870.074219 829.160156 871.652344 829.160156 C 873.230469 829.160156 874.808594 827.898438 874.808594 827.898438 L 873.863281 826.320312 L 870.386719 825.371094 L 866.910156 824.738281 L 864.699219 821.898438 C 864.699219 821.898438 863.121094 820.949219 861.855469 820 C 860.59375 819.054688 859.328125 816.527344 858.382812 814.628906 C 857.433594 812.734375 857.433594 812.734375 858.699219 811.789062 C 859.960938 810.839844 859.328125 809.890625 858.382812 808.625 C 857.433594 807.363281 856.800781 805.785156 855.855469 803.890625 C 854.90625 801.992188 854.90625 801.359375 854.273438 800.097656 C 853.640625 798.832031 852.691406 795.988281 850.480469 793.144531 C 848.269531 790.300781 847.324219 787.457031 847.324219 787.457031 L 845.429688 787.773438 C 845.429688 787.773438 844.164062 789.988281 843.53125 790.933594 C 842.898438 791.882812 844.164062 793.460938 844.164062 793.460938 L 841.636719 797.566406 L 840.054688 798.515625 L 839.425781 800.726562 L 835.632812 801.992188 L 834.683594 800.410156 L 833.421875 800.726562 L 831.527344 797.566406 L 828.367188 799.148438 L 826.15625 798.515625 L 827.734375 797.570312 L 829.628906 796.304688 C 829.628906 796.304688 828.367188 794.722656 828.050781 792.828125 C 827.734375 790.933594 828.050781 790.300781 825.523438 789.671875 C 822.992188 789.039062 821.097656 788.40625 822.992188 788.40625 C 824.890625 788.40625 828.679688 788.089844 828.679688 788.089844 C 828.679688 788.089844 828.679688 788.089844 828.363281 785.878906 C 828.046875 783.667969 828.679688 781.773438 828.679688 781.773438 L 827.101562 782.402344 L 823.308594 781.140625 L 820.148438 779.558594 L 819.832031 777.03125 L 817.9375 775.136719 L 816.992188 772.921875 L 815.09375 772.292969 C 815.09375 772.292969 812.253906 769.765625 810.671875 770.398438 C 809.09375 771.027344 807.828125 771.660156 806.878906 771.660156 C 805.933594 771.660156 802.777344 770.082031 802.777344 770.082031 L 797.40625 769.449219 L 795.195312 771.660156 L 796.148438 774.191406 L 797.105469 777.03125 L 795.546875 782.71875 L 797.480469 783.667969 L 797.242188 784.929688 L 798.578125 789.355469 L 798.578125 792.511719 L 796.164062 792.828125 L 796.164062 794.09375 L 793.621094 795.355469 L 792.980469 797.886719 L 797.71875 802.308594 L 800.5625 814 L 802.144531 814.316406 L 802.773438 816.84375 L 800.878906 817.792969 C 800.878906 817.792969 798.984375 820.949219 797.085938 822.847656 C 795.191406 824.742188 790.136719 827.902344 790.136719 827.902344 C 790.136719 827.902344 791.082031 829.484375 792.03125 831.0625 C 792.980469 832.640625 793.296875 836.117188 792.980469 838.960938 C 792.664062 841.804688 794.242188 843.066406 794.242188 843.066406 L 792.03125 845.277344 L 793.296875 847.171875 L 792.664062 848.753906 L 790.136719 847.488281 L 788.875 849.703125 L 786.34375 848.4375 L 784.449219 845.59375 L 781.289062 841.171875 C 781.289062 841.171875 781.289062 841.171875 780.339844 839.90625 C 779.394531 838.644531 778.761719 837.695312 779.078125 836.433594 C 779.394531 835.167969 779.078125 832.640625 779.078125 831.375 C 779.078125 830.113281 779.394531 824.425781 779.394531 824.425781 C 779.394531 824.425781 776.550781 823.792969 775.605469 823.160156 C 774.65625 822.527344 770.546875 823.792969 768.019531 823.476562 C 765.492188 823.160156 766.757812 822.210938 765.492188 821.265625 C 764.230469 820.316406 761.070312 819.371094 759.175781 818.738281 C 757.28125 818.105469 757.28125 815.894531 756.015625 814.945312 C 754.75 814 750.957031 813.050781 749.378906 812.101562 C 747.800781 811.15625 745.589844 809.574219 745.589844 809.574219 L 741.164062 810.839844 L 739.585938 810.207031 C 739.585938 810.207031 739.902344 807.050781 739.269531 804.207031 C 738.636719 801.363281 737.058594 799.46875 737.058594 799.46875 C 737.058594 799.46875 734.847656 799.15625 733.265625 798.839844 C 731.6875 798.523438 730.425781 796.324219 730.425781 796.324219 C 730.425781 796.324219 732.003906 784.335938 733.265625 782.441406 C 734.53125 780.546875 732.949219 778.371094 732.949219 778.371094 C 734.53125 778.691406 736.425781 775.289062 736.425781 775.289062 L 738.953125 771.339844 L 740.21875 767.621094 L 742.113281 767.621094 C 742.113281 767.621094 744.324219 767.269531 746.535156 765.6875 C 748.75 764.109375 746.222656 761.550781 746.222656 761.550781 L 743.0625 759.023438 C 743.0625 759.023438 739.902344 759.652344 738.324219 758.707031 C 736.742188 757.757812 736.109375 756.179688 736.109375 756.179688 L 744.324219 758.390625 L 748.433594 759.96875 L 749.378906 758.074219 L 751.589844 755.546875 C 751.589844 755.546875 751.589844 755.546875 753.804688 756.492188 C 756.015625 757.441406 755.386719 755.546875 756.332031 754.914062 C 757.28125 754.28125 757.910156 752.386719 758.859375 751.753906 C 759.808594 751.121094 760.125 747.964844 761.070312 746.699219 C 762.019531 745.4375 759.175781 746.066406 757.910156 746.066406 C 756.648438 746.066406 753.804688 744.171875 752.855469 743.539062 C 751.90625 742.90625 750.328125 741.960938 749.378906 740.695312 C 748.433594 739.433594 751.59375 739.75 751.59375 739.75 L 757.597656 743.539062 L 759.492188 743.855469 L 760.753906 742.589844 C 760.753906 742.589844 762.335938 741.011719 763.914062 740.066406 C 765.496094 739.117188 764.863281 736.273438 764.863281 736.273438 C 764.863281 736.273438 763.597656 736.273438 762.335938 735.324219 C 761.070312 734.378906 762.652344 732.796875 764.230469 733.429688 C 765.808594 734.0625 767.707031 732.480469 767.707031 732.480469 L 768.652344 734.691406 L 770.546875 736.273438 L 771.8125 734.691406 L 773.707031 735.640625 L 773.390625 731.851562 L 775.289062 735.007812 L 776.867188 733.746094 L 780.660156 728.691406 L 782.554688 726.792969 L 783.1875 724.265625 C 783.1875 724.265625 780.972656 721.738281 780.339844 719.210938 C 779.710938 716.683594 779.394531 714.789062 779.078125 713.523438 C 778.761719 712.257812 781.605469 713.839844 781.605469 713.839844 L 781.925781 709.101562 C 781.925781 709.101562 782.554688 707.519531 780.339844 705.941406 C 778.132812 704.359375 777.816406 702.148438 777.816406 702.148438 C 777.816406 702.148438 774.65625 702.148438 771.8125 700.253906 C 768.96875 698.359375 767.074219 699.621094 767.074219 699.621094 L 767.386719 701.515625 L 768.019531 705.941406 L 769.285156 709.734375 L 767.386719 711.945312 C 767.386719 711.945312 766.441406 715.738281 765.492188 717 C 764.542969 718.265625 762.964844 722.371094 762.648438 724.582031 C 762.332031 726.792969 759.808594 726.480469 759.808594 726.480469 C 759.808594 726.480469 757.910156 723.003906 756.964844 721.738281 C 756.015625 720.476562 756.332031 717.316406 756.332031 716.054688 C 756.332031 714.789062 758.226562 714.789062 758.226562 714.789062 L 756.015625 710.367188 L 752.859375 705.941406 L 751.277344 708.15625 C 751.277344 708.15625 750.328125 710.683594 750.328125 711.945312 C 750.328125 713.210938 748.117188 714.789062 748.117188 714.789062 C 748.117188 714.789062 747.484375 710.050781 747.167969 708.785156 C 746.851562 707.523438 745.589844 705.625 745.589844 705.625 L 745.90625 703.730469 L 744.640625 702.46875 L 742.121094 702.777344 C 742.121094 702.777344 740.855469 701.828125 739.277344 701.199219 C 737.695312 700.566406 741.804688 698.039062 741.804688 698.039062 L 740.226562 696.457031 L 740.855469 695.195312 L 744.015625 696.140625 L 742.121094 694.246094 L 741.171875 690.773438 C 741.171875 690.773438 738.328125 689.824219 738.644531 687.929688 C 738.960938 686.035156 737.695312 683.191406 736.433594 680.976562 C 735.167969 678.765625 735.167969 677.503906 735.167969 677.503906 L 732.957031 676.871094 L 731.375 674.34375 L 733.585938 674.027344 C 733.585938 674.027344 734.21875 671.1875 734.847656 670.238281 C 735.480469 669.289062 735.792969 667.398438 735.160156 666.449219 C 734.53125 665.503906 733.574219 663.609375 733.574219 663.609375 L 741.140625 664.253906 L 745.851562 655.109375 L 748.636719 649.148438 C 748.636719 649.148438 745.59375 648.4375 743.703125 647.171875 C 741.804688 645.910156 738.328125 646.542969 735.484375 646.226562 C 732.640625 645.910156 731.695312 647.179688 729.484375 648.125 C 727.273438 649.074219 727.273438 652.871094 727.585938 656.03125 C 727.902344 659.191406 727.902344 661.726562 728.535156 664.253906 C 729.167969 666.78125 730.117188 672.492188 730.117188 672.492188 C 730.117188 672.492188 729.484375 675.0625 728.535156 677.273438 C 727.585938 679.488281 728.851562 681.867188 728.851562 681.867188 L 726.324219 681.867188 C 726.324219 681.867188 725.691406 689.636719 725.375 691.214844 C 725.058594 692.796875 724.425781 693.617188 724.113281 695.195312 C 723.796875 696.773438 726.324219 698.039062 726.957031 698.988281 C 727.585938 699.9375 730.429688 700.882812 732.328125 702.144531 C 734.222656 703.410156 735.171875 703.09375 735.171875 703.09375 C 735.171875 703.09375 733.589844 704.988281 732.640625 706.253906 C 731.695312 707.515625 732.640625 710.992188 732.640625 710.992188 L 735.171875 708.78125 C 735.171875 708.78125 735.484375 710.992188 735.484375 712.574219 C 735.484375 714.152344 732.324219 717.3125 732.324219 717.3125 L 729.167969 717.941406 L 728.535156 721.734375 L 729.484375 725.839844 L 726.324219 724.894531 C 726.324219 724.894531 725.691406 723.628906 726.640625 721.417969 C 727.585938 719.207031 726.324219 716.675781 726.324219 716.675781 C 726.324219 716.675781 723.796875 716.042969 721.269531 714.464844 C 718.742188 712.882812 717.476562 714.460938 717.476562 714.460938 L 718.742188 717.925781 L 722.214844 719.804688 L 721.265625 721.664062 C 721.265625 721.664062 717.792969 719.699219 716.210938 720.332031 C 714.632812 720.960938 712.105469 720.820312 708.945312 720.503906 C 705.785156 720.1875 701.675781 720.222656 701.675781 720.222656 L 697.886719 716.890625 C 697.886719 716.890625 697.886719 716.890625 694.410156 716.890625 C 690.933594 716.890625 692.828125 715.523438 691.566406 715.207031 C 690.304688 714.890625 690.933594 713.519531 689.988281 711.308594 C 689.039062 709.097656 686.828125 708.78125 686.828125 708.78125 C 686.828125 708.78125 683.351562 711.308594 681.457031 711.308594 C 679.558594 711.308594 677.347656 713.519531 677.347656 713.519531 C 677.347656 713.519531 677.347656 715.730469 678.613281 716.363281 C 679.875 716.996094 681.140625 714.46875 681.140625 714.46875 C 681.140625 714.46875 685.246094 714.785156 685.878906 713.519531 L 688.089844 712.253906 L 686.511719 716.679688 L 682.089844 717.941406 L 680.191406 720.785156 L 681.773438 723.945312 L 683.355469 727.417969 L 683.039062 728.679688 L 681.457031 730.257812 L 679.246094 727.726562 L 679.875 726.136719 L 677.664062 722.007812 C 677.664062 722.007812 676.085938 721.648438 674.820312 721.015625 C 673.558594 720.382812 671.976562 718.714844 671.976562 718.714844 L 669.132812 720.511719 C 669.132812 720.511719 666.289062 720.511719 661.234375 720.511719 C 656.179688 720.511719 651.757812 719.070312 651.757812 719.070312 L 652.703125 717.308594 L 654.601562 715.730469 L 657.128906 714.78125 L 655.867188 712.570312 L 652.078125 709.09375 L 649.242188 709.410156 C 649.242188 709.410156 645.777344 710.359375 642.933594 708.460938 C 640.089844 706.566406 640.429688 705.933594 637.269531 705.304688 C 634.109375 704.671875 634.15625 703.40625 629.734375 701.511719 C 625.3125 699.617188 623.195312 700.246094 623.195312 700.246094 L 621.175781 703.40625 L 618.632812 703.722656 L 618.632812 700.5625 L 616.710938 697.40625 L 614.472656 700.5625 C 614.472656 700.5625 612.261719 704.039062 610.683594 703.722656 C 609.105469 703.40625 607.523438 698.667969 606.890625 696.773438 C 606.257812 694.875 604.046875 692.035156 604.046875 692.035156 C 604.046875 692.035156 603.414062 695.824219 603.414062 697.089844 C 603.414062 698.355469 600.574219 700.25 600.574219 700.25 L 599.625 698.035156 L 595.832031 700.25 L 592.355469 703.410156 L 589.828125 704.355469 L 585.40625 707.199219 L 588.25 702.777344 L 592.355469 701.195312 L 594.566406 699.617188 L 596.460938 697.089844 C 596.460938 697.089844 597.410156 695.191406 596.148438 695.191406 C 594.882812 695.191406 592.039062 697.40625 590.144531 698.667969 C 588.25 699.933594 586.984375 700.878906 585.40625 702.140625 C 583.824219 703.40625 581.296875 705.304688 579.085938 706.882812 C 576.875 708.460938 580.035156 711.304688 580.035156 711.304688 C 580.035156 711.304688 576.558594 710.675781 574.347656 710.042969 C 572.136719 709.410156 569.609375 708.460938 566.765625 707.832031 C 563.921875 707.199219 561.078125 702.460938 558.867188 701.828125 C 556.65625 701.195312 554.761719 700.566406 552.863281 700.566406 C 550.96875 700.566406 544.648438 696.460938 542.753906 696.777344 C 540.859375 697.09375 538.015625 697.730469 536.433594 696.78125 C 534.855469 695.835938 532.640625 695.527344 530.429688 695.527344 C 528.21875 695.527344 524.425781 692.386719 521.269531 691.753906 C 518.109375 691.125 513.371094 690.84375 512.421875 690.84375 C 511.472656 690.84375 510.839844 689.023438 510.839844 689.023438 C 510.839844 689.023438 508.628906 687.914062 507.367188 687.28125 C 506.101562 686.648438 503.574219 688.21875 502.625 687.902344 C 501.679688 687.585938 501.363281 686.691406 501.363281 686.691406 L 499.46875 686.691406 C 499.46875 686.691406 498.835938 688.257812 495.992188 687.941406 C 493.148438 687.625 497.257812 685.082031 497.890625 683.816406 C 498.519531 682.554688 493.78125 682.238281 493.78125 682.238281 L 491.570312 683.1875 C 491.570312 683.1875 489.671875 687.292969 488.09375 688.238281 C 486.515625 689.191406 483.988281 687.292969 482.722656 687.925781 C 481.457031 688.554688 482.722656 691.085938 482.722656 691.085938 L 480.507812 693.296875 L 480.191406 690.453125 L 474.492188 694.558594 L 471.320312 697.40625 L 469.707031 700.878906 C 469.707031 700.878906 466.800781 704.984375 465.851562 707.828125 C 464.90625 710.671875 456.800781 709.410156 456.800781 709.410156 L 456.800781 713.515625 L 455.070312 714.464844 C 455.070312 714.464844 457.449219 716.675781 461.242188 719.519531 C 465.03125 722.363281 466.925781 727.734375 466.925781 727.734375 C 466.925781 727.734375 469.769531 728.683594 471.664062 728.367188 C 473.558594 728.050781 474.824219 729.316406 474.824219 729.316406 C 474.824219 729.316406 473.875 730.894531 474.507812 732.789062 C 475.140625 734.6875 476.71875 732.476562 476.71875 732.476562 L 479.5625 732.164062 L 481.773438 731.855469 L 482.40625 733.453125 L 479.5625 735.066406 L 476.40625 736.390625 L 475.140625 736.835938 L 474.191406 739.617188 L 473.242188 738.625 L 466.609375 738.625 C 466.609375 738.625 463.765625 737.84375 465.34375 736.578125 C 466.925781 735.316406 465.34375 732.957031 465.34375 732.957031 C 465.34375 732.957031 461.871094 733.4375 461.238281 734.386719 C 460.605469 735.335938 459.027344 735.984375 459.027344 735.984375 L 458.710938 738.625 L 456.183594 738.625 L 452.707031 740.445312 L 450.179688 741.324219 L 453.339844 744.167969 L 456.5 745.429688 L 454.605469 747.640625 L 456.816406 750.484375 L 461.242188 751.75 L 465.664062 751.117188 L 470.089844 752.382812 L 473.246094 750.484375 C 473.246094 750.484375 474.828125 749.222656 476.722656 749.222656 C 478.617188 749.222656 475.144531 752.066406 475.144531 752.066406 L 477.039062 753.011719 C 477.039062 753.011719 477.667969 757.4375 477.667969 759.648438 C 477.667969 761.859375 473.246094 761.226562 473.246094 761.226562 L 469.769531 764.074219 L 467.242188 764.703125 C 467.242188 764.703125 465.347656 765.652344 464.398438 766.597656 C 463.453125 767.542969 460.609375 769.441406 459.660156 771.96875 C 458.710938 774.496094 457.765625 777.023438 459.34375 778.605469 C 460.925781 780.183594 459.34375 778.605469 460.609375 780.5 C 461.871094 782.394531 462.503906 780.816406 462.503906 780.816406 L 464.082031 782.710938 L 466.609375 783.660156 C 466.609375 783.660156 465.03125 783.976562 463.769531 784.921875 C 462.503906 785.871094 463.453125 787.449219 464.398438 789.03125 C 465.347656 790.609375 467.558594 791.558594 469.453125 791.242188 C 471.351562 790.925781 471.667969 786.816406 471.667969 786.816406 C 471.667969 786.816406 473.5625 790.609375 473.5625 791.558594 C 473.5625 792.503906 473.5625 794.398438 473.878906 795.980469 C 474.191406 797.558594 473.246094 798.824219 473.246094 798.824219 C 473.246094 798.824219 475.773438 797.558594 477.039062 796.929688 C 478.300781 796.296875 479.882812 794.085938 479.882812 794.085938 L 480.195312 796.929688 L 482.726562 797.878906 L 484.621094 800.40625 C 484.621094 800.40625 487.148438 795.347656 486.199219 796.296875 C 485.253906 797.246094 487.78125 798.195312 489.042969 799.140625 C 490.308594 800.089844 492.835938 795.664062 492.835938 795.664062 C 492.835938 795.664062 492.203125 797.246094 491.570312 799.773438 C 490.941406 802.300781 490.308594 803.5625 489.992188 804.828125 C 489.675781 806.09375 488.414062 807.988281 486.832031 810.515625 C 485.253906 813.042969 483.042969 812.410156 479.882812 815.253906 C 476.722656 818.097656 477.039062 817.464844 475.144531 818.097656 C 473.246094 818.730469 469.773438 822.839844 469.773438 822.839844 C 469.773438 822.839844 467.558594 822.207031 463.136719 825.046875 C 458.714844 827.894531 463.453125 828.207031 463.453125 828.207031 C 463.453125 828.207031 463.453125 828.207031 464.402344 827.894531 C 465.347656 827.574219 468.507812 825.679688 468.507812 825.679688 L 470.089844 825.046875 C 470.089844 825.046875 472.300781 823.152344 473.246094 821.890625 C 474.195312 820.625 474.828125 822.207031 474.828125 822.207031 C 474.828125 822.207031 477.671875 820.625 478.621094 820.308594 C 479.566406 819.992188 481.460938 819.046875 482.726562 819.046875 C 483.992188 819.046875 485.570312 816.203125 487.464844 814.941406 C 489.363281 813.675781 491.257812 812.726562 491.257812 812.726562 L 494.417969 809.886719 L 494.101562 808.621094 C 494.101562 808.621094 495.679688 807.039062 497.257812 806.410156 C 498.839844 805.777344 500.101562 804.195312 501.367188 803.882812 C 502.628906 803.5625 502.945312 801.667969 503.578125 800.722656 C 504.210938 799.773438 504.84375 797.5625 504.84375 797.5625 L 503.261719 795.347656 L 505.476562 791.875 C 505.476562 791.875 508.003906 789.980469 508.316406 788.714844 C 508.632812 787.449219 508.949219 787.136719 510.53125 785.871094 C 512.109375 784.609375 511.792969 781.765625 512.742188 781.445312 C 513.691406 781.132812 516.535156 778.921875 516.535156 778.921875 L 519.0625 779.867188 L 521.90625 782.082031 L 517.164062 781.445312 L 514.007812 784.292969 C 514.007812 784.292969 513.375 786.503906 513.058594 787.765625 C 512.742188 789.03125 512.425781 791.875 512.425781 791.875 L 514.953125 790.925781 L 512.109375 793.769531 L 511.164062 795.035156 L 513.058594 795.347656 C 513.058594 795.347656 515.585938 793.453125 516.851562 792.824219 C 518.113281 792.191406 520.011719 789.980469 520.957031 789.03125 C 521.90625 788.082031 522.539062 788.714844 523.800781 788.714844 C 525.0625 788.714844 525.0625 786.1875 524.746094 784.921875 C 524.433594 783.660156 524.433594 782.078125 526.011719 781.445312 C 527.589844 780.816406 527.90625 780.5 529.171875 780.816406 C 530.4375 781.132812 531.382812 781.765625 533.910156 783.027344 C 536.4375 784.292969 536.4375 784.609375 538.015625 786.1875 C 539.597656 787.765625 540.230469 787.765625 541.492188 788.714844 C 542.757812 789.660156 544.335938 788.714844 546.546875 789.03125 C 546.546875 789.03125 549.390625 789.347656 552.234375 789.347656 C 555.078125 789.347656 556.339844 791.558594 557.605469 790.609375 C 558.867188 789.664062 559.183594 789.664062 559.183594 789.664062 L 558.238281 792.507812 L 559.816406 793.769531 L 563.925781 796.300781 C 563.925781 796.300781 563.925781 796.300781 565.503906 798.515625 C 567.085938 800.726562 569.925781 800.734375 571.507812 800.734375 C 573.089844 800.734375 571.191406 797.269531 571.191406 797.269531 L 574.351562 800.222656 L 575.929688 800.222656 L 575.613281 794.78125 C 575.613281 794.78125 577.824219 799.457031 578.773438 801.039062 C 579.722656 802.617188 581.300781 803.25 582.25 804.828125 C 583.195312 806.410156 585.40625 810.832031 586.671875 812.410156 C 587.9375 813.992188 587.9375 817.46875 588.886719 819.363281 C 589.832031 821.257812 589.832031 817.152344 591.414062 818.414062 C 592.992188 819.679688 593.941406 825.996094 593.941406 825.996094 L 595.835938 825.683594 L 594.574219 827.578125 L 595.835938 830.738281 L 598.363281 834.527344 L 600.574219 836.109375 L 600.257812 839.582031 L 603.101562 841.476562 L 606.261719 849.691406 L 611.003906 852.539062 L 616.6875 854.117188 L 621.113281 858.855469 L 625.21875 864.859375 L 625.851562 868.019531 L 623.640625 867.070312 L 616.6875 866.125 C 616.6875 866.125 618.585938 874.652344 620.164062 877.816406 C 621.742188 880.972656 618.585938 886.976562 618.902344 891.085938 C 619.214844 895.191406 616.6875 897.085938 618.269531 901.828125 C 619.847656 906.566406 618.269531 908.777344 618.269531 908.777344 L 619.847656 911.9375 L 621.113281 916.042969 L 625.851562 922.679688 L 627.746094 927.734375 C 627.746094 927.734375 629.640625 930.894531 631.222656 932.476562 C 632.800781 934.054688 632.800781 936.582031 632.800781 936.582031 C 632.800781 936.582031 639.4375 939.425781 642.59375 941.320312 C 645.757812 943.214844 646.386719 946.691406 646.386719 946.691406 L 649.230469 952.378906 L 651.757812 957.746094 C 651.757812 957.746094 651.757812 959.328125 653.652344 960.59375 C 655.550781 961.855469 656.8125 963.75 657.761719 965.648438 C 658.707031 967.542969 653.652344 967.226562 653.652344 967.226562 C 661.234375 973.546875 661.234375 971.019531 661.234375 971.019531 C 661.234375 971.019531 662.183594 973.230469 663.761719 974.496094 C 665.34375 975.761719 665.660156 980.5 665.660156 980.5 L 671.980469 985.871094 L 673.558594 987.765625 L 675.140625 984.921875 C 675.140625 984.921875 672.925781 982.394531 671.664062 982.078125 C 670.398438 981.761719 670.398438 979.234375 670.082031 978.285156 C 669.769531 977.335938 667.554688 973.230469 667.554688 973.230469 C 667.554688 973.230469 664.710938 969.4375 663.761719 968.175781 C 662.816406 966.910156 661.867188 963.75 660.921875 962.488281 C 659.972656 961.222656 656.496094 959.011719 655.550781 957.117188 C 654.601562 955.222656 655.234375 949.21875 655.234375 949.21875 L 661.550781 953.324219 C 661.550781 953.324219 663.445312 957.746094 665.027344 961.539062 C 666.605469 965.332031 669.132812 965.648438 669.132812 965.648438 L 670.714844 966.910156 L 671.664062 968.492188 L 672.925781 971.019531 L 675.136719 972.285156 L 677.03125 973.546875 L 676.402344 976.390625 L 680.191406 978.601562 L 681.773438 980.496094 L 684.617188 983.339844 L 690.621094 990.609375 C 690.621094 990.609375 691.566406 993.769531 691.566406 994.714844 C 691.566406 995.664062 690.304688 998.824219 690.304688 998.824219 L 692.199219 1002.296875 L 695.675781 1003.878906 L 697.570312 1005.773438 L 703.890625 1007.984375 L 706.730469 1009.882812 C 706.730469 1009.882812 716.210938 1014.304688 719.371094 1015.886719 C 722.527344 1017.464844 726.320312 1016.832031 731.058594 1015.253906 C 735.796875 1013.675781 742.75 1022.835938 744.011719 1023.78125 C 745.277344 1024.730469 747.804688 1024.414062 749.699219 1024.730469 C 751.59375 1025.046875 753.808594 1026.3125 755.070312 1026.628906 C 756.335938 1026.941406 759.175781 1026.308594 759.175781 1026.308594 L 759.492188 1028.207031 C 759.492188 1028.207031 763.917969 1033.578125 765.8125 1034.839844 C 767.707031 1036.105469 766.441406 1039.261719 766.441406 1039.261719 L 769.605469 1039.894531 L 773.078125 1041.789062 C 773.078125 1041.789062 773.078125 1043.371094 774.027344 1044.316406 C 774.976562 1045.265625 775.292969 1044.632812 776.554688 1045.265625 C 777.820312 1045.894531 779.082031 1046.53125 780.34375 1046.53125 C 781.609375 1046.53125 784.136719 1048.109375 784.136719 1048.109375 L 784.769531 1050.003906 L 787.613281 1049.058594 L 785.90625 1047.367188 C 785.90625 1047.367188 787.800781 1045.472656 788.988281 1044.996094 C 790.171875 1044.523438 791.117188 1043.101562 791.117188 1043.101562 L 794.4375 1045.234375 L 795.859375 1045.472656 C 795.859375 1045.472656 795.859375 1045.472656 794.910156 1046.894531 C 793.964844 1048.316406 796.421875 1049.164062 796.421875 1049.164062 C 796.421875 1049.164062 797.515625 1048.789062 798.464844 1047.367188 C 799.414062 1045.945312 797.933594 1045.265625 797.933594 1045.265625 L 795.191406 1042.425781 L 789.824219 1041.160156 L 787.613281 1042.738281 C 787.613281 1042.738281 785.082031 1043.6875 783.507812 1044.003906 C 781.925781 1044.320312 779.714844 1042.425781 778.765625 1041.792969 C 777.820312 1041.160156 776.554688 1038.316406 774.660156 1035.789062 C 772.761719 1033.261719 774.34375 1033.261719 774.027344 1030.730469 C 773.710938 1028.207031 775.292969 1024.730469 775.292969 1023.464844 C 775.292969 1022.203125 774.660156 1018.726562 774.660156 1018.726562 C 774.660156 1018.726562 773.394531 1018.09375 771.1875 1016.832031 C 768.972656 1015.566406 763.289062 1016.515625 763.289062 1016.515625 L 755.390625 1017.144531 L 754.125 1015.882812 C 754.125 1015.882812 756.335938 1012.089844 756.335938 1011.140625 C 756.335938 1010.195312 756.019531 1006.71875 756.019531 1006.71875 L 756.335938 1004.824219 L 758.230469 1007.667969 C 758.230469 1007.667969 759.492188 1002.613281 759.175781 1000.71875 C 758.859375 998.824219 760.757812 997.5625 761.390625 996.296875 C 762.023438 995.035156 761.074219 993.460938 761.074219 993.460938 L 758.230469 992.835938 C 758.230469 992.835938 756.335938 993.171875 753.171875 993.804688 C 750.015625 994.433594 748.433594 994.789062 748.117188 997.953125 C 747.800781 1001.109375 745.90625 1001.503906 745.589844 1003.085938 C 745.277344 1004.664062 743.378906 1005.53125 743.378906 1005.53125 C 743.378906 1005.53125 740.851562 1005.53125 739.90625 1005.53125 C 738.957031 1005.53125 735.164062 1006.285156 733.902344 1006.914062 C 732.636719 1007.546875 730.742188 1006.085938 729.476562 1005.453125 C 728.214844 1004.824219 725.371094 1001.03125 724.738281 1000.085938 C 724.105469 999.136719 722.84375 995.976562 722.527344 994.714844 C 722.210938 993.449219 720.628906 992.820312 720.628906 991.554688 C 720.628906 990.289062 720.3125 983.972656 720.3125 982.078125 C 720.3125 980.179688 721.894531 977.96875 721.894531 976.074219 C 721.894531 974.175781 721.578125 968.175781 721.578125 968.175781 C 721.578125 968.175781 723.789062 965.960938 724.738281 964.382812 C 725.6875 962.800781 726.949219 964.382812 728.210938 963.75 C 729.476562 963.117188 731.054688 959.644531 731.054688 959.644531 C 731.054688 959.644531 734.847656 958.0625 736.425781 957.746094 C 738.007812 957.429688 741.164062 958.695312 742.113281 957.746094 C 743.0625 956.800781 745.273438 959.960938 745.273438 959.960938 C 745.273438 959.960938 748.433594 960.90625 750.011719 960.90625 C 751.59375 960.90625 751.910156 959.960938 751.910156 959.960938 L 749.695312 957.429688 L 748.117188 955.851562 C 748.117188 955.851562 753.171875 955.21875 754.121094 955.535156 C 755.066406 955.851562 758.542969 955.851562 759.808594 955.539062 C 761.070312 955.21875 763.597656 954.90625 765.175781 955.855469 C 766.757812 956.800781 767.386719 958.386719 768.96875 958.386719 C 770.546875 958.386719 772.125 957.441406 773.390625 958.707031 C 774.652344 959.96875 776.546875 960.925781 777.179688 964.085938 C 777.8125 967.246094 778.4375 966.632812 779.386719 969.476562 C 780.332031 972.320312 780.324219 973.308594 782.21875 975.203125 C 784.117188 977.097656 784.726562 978.128906 784.726562 978.128906 C 784.726562 978.128906 786.269531 975.441406 787.214844 972.597656 M 882.507812 847.210938 L 877.769531 850.527344 C 877.769531 850.527344 874.449219 855.742188 873.976562 858.113281 C 873.5 860.480469 872.078125 863.800781 870.65625 866.171875 C 869.234375 868.539062 869.234375 868.539062 869.234375 868.539062 C 869.234375 868.539062 873.976562 869.488281 877.765625 869.960938 C 881.558594 870.4375 884.402344 870.910156 884.402344 870.910156 C 884.402344 870.910156 887.246094 867.117188 888.195312 869.488281 C 889.140625 871.859375 889.140625 871.859375 889.140625 871.859375 C 889.140625 871.859375 892.933594 876.125 892.933594 874.699219 C 892.933594 873.28125 894.355469 870.433594 892.933594 869.011719 C 891.511719 867.589844 888.667969 866.171875 889.140625 862.851562 C 889.617188 859.535156 892.933594 859.535156 889.617188 859.535156 C 886.296875 859.535156 885.824219 859.535156 883.929688 857.636719 C 882.035156 855.742188 880.136719 856.214844 880.136719 856.214844 C 880.136719 856.214844 875.871094 857.636719 877.765625 854.792969 C 879.664062 851.949219 882.507812 847.210938 882.507812 847.210938 Z M 868.339844 876.308594 L 864.496094 876.308594 L 863.089844 872.707031 L 860.730469 878.109375 C 862.179688 884.726562 868.339844 876.308594 868.339844 876.308594 Z M 857.859375 860.957031 C 860.230469 859.058594 850.277344 856.691406 850.277344 856.691406 C 850.277344 856.691406 855.492188 862.851562 857.859375 860.957031 Z M 765.4375 746.910156 L 764.015625 750.519531 L 764.960938 754.3125 L 762.59375 755.257812 L 760.699219 760 L 763.066406 759.527344 L 766.382812 758.105469 L 765.910156 762.367188 L 769.703125 762.84375 L 774.917969 755.738281 L 777.757812 755.265625 L 780.605469 759.535156 L 785.816406 760.972656 L 786.289062 756.253906 L 782.976562 755.351562 L 780.605469 750.707031 L 775.390625 748.042969 L 772.136719 744.667969 L 769.226562 744.667969 L 766.890625 739.085938 Z M 751.21875 685.113281 C 747.898438 684.640625 753.113281 690.800781 755.484375 692.695312 C 757.851562 694.589844 760.695312 693.171875 762.59375 693.644531 C 764.488281 694.117188 767.808594 696.960938 767.808594 696.960938 C 767.808594 696.960938 774.441406 696.960938 776.335938 697.4375 C 778.230469 697.910156 781.074219 698.386719 781.074219 698.386719 C 781.074219 698.386719 781.074219 696.492188 782.96875 696.015625 C 784.867188 695.539062 788.183594 697.4375 788.183594 697.4375 L 790.078125 699.808594 L 793.390625 697.4375 C 793.390625 697.4375 792.4375 694.59375 790.542969 693.171875 C 788.648438 691.75 797.164062 693.644531 797.164062 693.644531 L 797.609375 698.859375 L 800.398438 700.28125 C 800.398438 700.28125 803.132812 704.546875 804.554688 705.96875 C 805.976562 707.390625 801 708.308594 801 708.308594 L 801 711.183594 L 808.8125 708.339844 L 809.988281 710.710938 C 809.988281 710.710938 812.832031 714.03125 815.203125 716.875 C 815.203125 716.875 816.625 723.039062 817.097656 725.410156 C 817.574219 727.777344 816.148438 730.15625 816.148438 730.15625 C 816.148438 730.15625 812.355469 734.910156 810.460938 736.808594 C 808.566406 738.703125 812.832031 743.472656 812.832031 743.472656 C 812.832031 743.472656 807.621094 744.476562 804.300781 744.949219 C 800.984375 745.425781 798.613281 745.539062 798.613281 745.539062 C 798.613281 745.539062 798.613281 745.769531 796.71875 749.558594 C 794.824219 753.351562 798.671875 754.332031 798.671875 754.332031 L 802.878906 754.332031 L 805.570312 751.953125 L 808.246094 751.910156 L 808.246094 748.152344 L 813.617188 752.417969 L 817.570312 759.054688 L 819.464844 757.628906 L 821.363281 760.003906 L 819.464844 761.421875 L 825.625 766.164062 L 828.472656 766.640625 C 828.472656 766.640625 830.839844 769.480469 835.582031 771.851562 C 840.320312 774.222656 841.742188 774.695312 841.742188 774.695312 C 841.742188 774.695312 841.269531 770.902344 839.375 769.007812 C 837.476562 767.113281 831.789062 760.003906 831.789062 758.578125 C 831.789062 757.15625 837.476562 762.371094 841.269531 764.742188 C 845.0625 767.113281 846.480469 766.164062 846.480469 766.164062 L 847.90625 762.371094 L 848.382812 757.15625 L 845.535156 755.734375 L 846.011719 753.367188 C 846.011719 753.367188 845.535156 750.046875 840.796875 746.257812 C 836.058594 742.464844 837.007812 738.671875 837.007812 738.671875 C 837.007812 738.671875 834.636719 736.300781 835.109375 734.40625 C 835.585938 732.511719 838.902344 735.355469 841.273438 736.300781 C 843.640625 737.25 844.117188 739.144531 846.484375 742.464844 C 848.855469 745.78125 851.699219 746.730469 851.699219 746.730469 L 857.386719 734.878906 C 857.386719 734.878906 858.808594 731.089844 856.914062 730.140625 C 855.015625 729.191406 854.070312 727.296875 854.070312 727.296875 L 851.226562 726.824219 L 850.277344 723.980469 C 850.277344 723.980469 846.011719 719.714844 842.695312 718.292969 C 839.375 716.871094 837.007812 713.554688 837.007812 713.554688 L 834.164062 709.289062 L 834.640625 705.496094 L 837.480469 706.445312 L 840.324219 705.496094 L 837.480469 704.074219 L 832.269531 702.652344 L 834.164062 700.28125 L 837.007812 699.335938 L 835.113281 695.070312 L 830.371094 694.59375 L 832.265625 691.277344 L 829.898438 689.378906 L 825.15625 687.484375 C 825.15625 687.484375 822.3125 686.0625 822.3125 682.742188 C 822.3125 679.425781 815.679688 678.476562 815.679688 678.476562 L 814.257812 681.320312 L 811.414062 677.527344 L 809.519531 673.738281 L 806.671875 672.316406 L 805.25 667.101562 C 805.25 667.101562 800.988281 665.207031 797.195312 664.730469 C 793.402344 664.257812 794.351562 669.472656 794.351562 669.472656 L 789.609375 669.945312 L 785.34375 673.265625 L 786.292969 664.257812 L 783.921875 659.992188 L 783.449219 653.832031 L 780.605469 650.988281 C 780.605469 650.988281 774.917969 653.355469 771.601562 655.726562 C 768.28125 658.09375 766.859375 662.363281 766.859375 662.363281 L 768.757812 670.894531 L 766.859375 674.6875 L 770.652344 678.953125 L 768.757812 684.640625 L 764.015625 684.164062 L 767.335938 681.320312 C 767.335938 681.320312 764.015625 671.367188 763.070312 669.945312 C 762.125 668.523438 764.015625 659.992188 764.964844 657.621094 C 765.914062 655.25 768.757812 650.039062 768.757812 650.039062 C 768.757812 650.039062 760.699219 649.5625 759.277344 650.511719 C 757.855469 651.460938 751.695312 660.941406 751.695312 660.941406 L 750.273438 671.839844 L 751.222656 680.371094 L 756.910156 683.210938 L 760.234375 685.105469 C 760.234375 685.101562 754.535156 685.585938 751.21875 685.113281 Z M 798.613281 722.082031 C 796.71875 726.820312 800.511719 726.820312 803.828125 725.875 C 807.144531 724.925781 807.144531 718.765625 807.144531 718.765625 L 803.828125 715.445312 C 803.828125 715.445312 800.511719 717.34375 798.613281 722.082031 Z M 780.128906 765.6875 C 772.074219 765.6875 774.441406 772.324219 774.441406 772.324219 C 774.441406 772.324219 788.1875 765.6875 780.128906 765.6875 Z M 623.242188 683.691406 C 623.242188 683.691406 626.5625 679.898438 628.933594 679.425781 C 631.300781 678.949219 631.300781 675.15625 633.195312 672.3125 C 635.09375 669.472656 636.988281 665.679688 638.886719 664.257812 C 640.78125 662.835938 652.15625 653.828125 652.15625 653.828125 C 652.15625 653.828125 646.941406 644.824219 644.574219 644.351562 C 642.203125 643.875 639.359375 645.296875 635.566406 643.402344 C 631.773438 641.507812 628.457031 638.664062 628.457031 638.664062 C 628.457031 638.664062 620.398438 640.558594 618.976562 641.03125 C 617.558594 641.507812 618.976562 643.402344 618.976562 646.722656 C 618.976562 650.039062 617.558594 656.199219 616.609375 659.042969 C 615.660156 661.886719 614.710938 668.523438 613.765625 670.417969 C 612.816406 672.3125 614.238281 672.789062 617.082031 675.632812 C 619.925781 678.476562 623.242188 683.691406 623.242188 683.691406 Z M 645.523438 683.214844 C 639.835938 685.113281 641.730469 688.429688 644.574219 690.324219 C 647.417969 692.222656 652.628906 690.324219 659.265625 689.851562 C 665.902344 689.375 664.007812 694.589844 660.6875 694.589844 C 657.371094 694.589844 648.839844 694.589844 645.523438 696.960938 C 642.203125 699.332031 650.261719 704.542969 655 704.542969 C 659.742188 704.542969 658.792969 708.335938 659.265625 710.707031 C 659.742188 713.074219 664.953125 712.601562 668.746094 713.074219 C 672.539062 713.550781 673.011719 711.179688 676.328125 710.707031 C 679.648438 710.234375 678.226562 708.335938 682.019531 707.863281 C 685.808594 707.390625 686.285156 702.175781 686.285156 702.175781 L 688.179688 705.496094 L 691.5 708.339844 L 694.816406 710.234375 C 694.816406 710.234375 699.554688 710.234375 703.347656 708.8125 C 707.140625 707.390625 703.347656 702.648438 703.347656 702.648438 L 700.503906 704.546875 L 699.554688 702.175781 C 699.554688 702.175781 702.875 699.808594 703.347656 698.382812 C 703.820312 696.960938 708.5625 700.753906 708.5625 700.753906 L 708.085938 697.4375 L 705.242188 693.171875 C 705.242188 693.171875 700.03125 689.851562 697.1875 687.957031 C 694.339844 686.058594 694.816406 684.640625 694.816406 680.847656 C 694.816406 677.054688 692.917969 674.210938 692.917969 674.210938 L 690.074219 663.308594 C 690.074219 663.308594 684.855469 657.148438 681.0625 655.726562 C 677.273438 654.304688 681.058594 662.835938 681.058594 662.835938 C 681.058594 662.835938 681.996094 672.789062 681.046875 677.527344 C 680.097656 682.269531 678.179688 666.628906 676.285156 663.785156 C 674.386719 660.941406 671.972656 661.414062 671.972656 661.414062 L 672.351562 666.152344 L 666.941406 668.496094 L 666.941406 664.257812 C 666.941406 664.257812 662.867188 660.941406 659.550781 661.417969 C 656.230469 661.890625 657.84375 666.632812 657.84375 666.632812 C 657.84375 666.632812 655.476562 666.636719 656.894531 662.371094 C 658.320312 658.105469 655 657.644531 655 657.644531 C 655 657.644531 647.417969 660.988281 644.101562 663.355469 C 640.78125 665.726562 642.203125 669.566406 640.78125 670.511719 C 639.359375 671.460938 639.4375 678.242188 639.4375 678.242188 L 642.203125 678.242188 L 641.738281 681.917969 L 645.0625 681.328125 C 645.0625 681.328125 650.769531 680.386719 652.191406 679.910156 C 652.191406 679.910156 651.207031 681.320312 645.523438 683.214844 Z M 685.058594 654.304688 L 691.832031 661.886719 L 693.558594 654.777344 L 692.765625 651.933594 L 688.4375 650.984375 L 685.058594 651.460938 Z M 713.367188 709.640625 L 716.140625 709.640625 L 720.882812 712.070312 L 726.097656 713.074219 L 727.992188 709.753906 C 727.992188 709.753906 727.996094 707.382812 726.101562 706.433594 C 724.203125 705.484375 721.839844 698.84375 719.46875 698.84375 C 717.097656 698.84375 716.632812 705.9375 716.632812 705.9375 L 713.808594 707.332031 Z M 720.082031 680.847656 L 720.082031 678.449219 L 723.796875 676.582031 C 723.796875 676.582031 723.707031 672.789062 723.707031 671.367188 C 723.707031 669.945312 723.707031 669.921875 723.707031 669.921875 L 724.671875 665.679688 L 722.300781 664.734375 L 720.410156 660.941406 L 717.5625 662.363281 L 721.355469 656.199219 L 722.777344 651.933594 L 721.355469 648.617188 L 717.089844 650.984375 L 709.035156 650.511719 L 707.609375 652.882812 L 708.558594 657.621094 L 711.878906 658.570312 L 710.929688 663.308594 L 707.140625 665.207031 L 702.875 661.414062 L 704.292969 666.152344 L 708.085938 671.839844 L 712.433594 675.15625 Z M 737.941406 612.109375 L 740.3125 620.171875 L 742.210938 625.863281 L 740.789062 630.128906 L 741.261719 636.292969 L 747.425781 638.660156 L 753.113281 637.242188 L 756.429688 640.558594 L 766.859375 639.136719 C 766.859375 639.136719 773.019531 639.136719 774.917969 637.242188 C 776.8125 635.34375 776.339844 641.035156 779.65625 640.085938 C 782.972656 639.136719 787.714844 636.765625 787.714844 636.765625 C 787.714844 636.765625 786.289062 631.078125 788.1875 630.132812 C 790.082031 629.183594 790.558594 624.917969 787.714844 623.96875 C 784.871094 623.023438 782.972656 620.175781 781.078125 620.175781 C 779.179688 620.175781 774.917969 621.597656 774.917969 621.597656 C 774.917969 621.597656 769.703125 622.074219 767.808594 623.496094 C 765.910156 624.917969 764.960938 627.761719 764.960938 627.761719 C 764.960938 627.761719 762.59375 625.867188 761.171875 625.390625 C 759.746094 624.917969 756.429688 624.441406 756.429688 624.441406 L 753.113281 624.917969 L 752.164062 621.601562 L 747.898438 618.757812 L 745.054688 615.4375 C 745.054688 615.4375 750.269531 616.859375 751.21875 615.4375 C 752.164062 614.015625 751.21875 614.015625 748.847656 612.59375 C 746.476562 611.175781 746.476562 608.804688 746.476562 608.804688 L 743.160156 607.382812 L 739.234375 608.328125 C 739.234375 608.328125 735.785156 612.121094 735.785156 609.753906 C 735.785156 607.382812 735.785156 603.570312 735.785156 603.570312 C 735.785156 603.570312 734.976562 604.0625 732.132812 602.167969 C 729.289062 600.273438 728.402344 601.21875 726.507812 601.695312 C 724.613281 602.167969 721.324219 603.589844 723.695312 605.011719 C 726.066406 606.433594 726.082031 610.699219 728.925781 611.648438 C 731.769531 612.597656 733.675781 615.914062 735.09375 614.492188 C 736.515625 613.070312 737.941406 612.109375 737.941406 612.109375 Z M 785.34375 652.882812 C 785.34375 652.882812 784.867188 655.253906 785.34375 656.675781 C 785.816406 658.097656 787.714844 659.519531 787.714844 659.519531 C 787.714844 659.519531 787.238281 663.785156 788.660156 664.257812 C 790.082031 664.730469 793.402344 662.835938 794.824219 662.363281 C 796.246094 661.886719 800.035156 663.308594 801.933594 662.835938 C 803.828125 662.363281 802.410156 658.570312 800.035156 656.671875 C 797.667969 654.777344 796.246094 652.882812 794.824219 652.882812 C 793.402344 652.882812 788.191406 651.460938 788.191406 651.460938 Z M 735.578125 637.714844 C 735.578125 637.714844 736.523438 630.132812 735.101562 627.761719 C 733.679688 625.390625 729.890625 622.550781 729.890625 622.550781 L 727.519531 627.289062 C 727.519531 627.289062 724.203125 630.132812 725.152344 631.554688 C 726.097656 632.976562 728.941406 635.820312 729.890625 637.242188 C 730.839844 638.664062 735.578125 637.714844 735.578125 637.714844 Z M 719.023438 631.070312 C 719.023438 631.070312 718.53125 628.703125 719.003906 626.808594 C 719.476562 624.914062 721.367188 623.019531 721.367188 623.019531 C 721.367188 623.019531 720.886719 616.386719 720.886719 614.964844 C 720.886719 613.542969 719.9375 609.75 719.9375 609.75 L 716.617188 607.378906 L 715.671875 609.277344 C 715.671875 609.277344 711.644531 605.484375 710.699219 606.90625 C 709.75 608.332031 712.835938 615.441406 712.835938 615.441406 L 712.835938 618.261719 L 706.871094 612.121094 L 704.875 611.175781 L 703.398438 614.015625 L 706.21875 619.230469 C 706.21875 619.230469 702.886719 617.808594 700.515625 613.542969 C 698.148438 609.277344 693.875 604.535156 694.347656 608.804688 C 694.824219 613.070312 698.609375 621.601562 702.402344 623.496094 C 706.195312 625.390625 709.984375 621.601562 710.457031 623.96875 C 710.933594 626.339844 708.089844 630.132812 709.511719 631.554688 C 710.929688 632.976562 715.261719 633.902344 719.023438 631.070312 Z M 695.761719 627.289062 C 692.917969 627.289062 692.917969 631.082031 692.917969 631.082031 C 700.027344 635.347656 698.605469 627.289062 695.761719 627.289062 Z M 687.703125 631.082031 C 687.703125 631.082031 690.546875 626.339844 690.074219 623.023438 C 689.601562 619.707031 686.757812 614.492188 686.28125 616.859375 C 685.808594 619.230469 685.808594 619.230469 685.808594 619.230469 C 685.808594 619.230469 683.910156 618.757812 681.070312 616.859375 C 678.226562 614.964844 680.59375 614.492188 679.644531 611.648438 C 678.699219 608.804688 679.171875 604.0625 676.328125 604.539062 C 673.484375 605.011719 675.378906 607.855469 673.957031 608.804688 C 672.539062 609.753906 670.640625 610.226562 673.957031 613.542969 C 677.277344 616.859375 676.328125 616.859375 675.382812 618.28125 C 674.433594 619.703125 677.277344 620.652344 676.804688 623.023438 C 676.328125 625.390625 670.640625 624.445312 668.746094 623.972656 C 666.847656 623.496094 667.324219 619.707031 665.902344 618.757812 C 664.480469 617.808594 661.164062 613.542969 661.164062 613.542969 L 657.371094 614.015625 C 657.371094 614.015625 655.476562 607.855469 653.105469 609.753906 C 650.734375 611.648438 650.261719 613.542969 648.367188 615.914062 C 646.46875 618.28125 644.574219 621.601562 644.101562 623.496094 C 643.625 625.390625 643.152344 632.027344 648.839844 631.554688 C 654.527344 631.078125 669.21875 629.183594 667.796875 631.554688 C 666.375 633.921875 660.6875 633.449219 658.320312 635.34375 C 655.949219 637.242188 655.949219 645.300781 664.480469 640.558594 C 673.011719 635.820312 675.855469 632.976562 679.648438 632.503906 C 683.441406 632.027344 687.703125 631.082031 687.703125 631.082031 Z M 636.042969 617.335938 C 639.359375 616.386719 638.886719 612.121094 638.886719 609.277344 C 638.886719 606.433594 641.257812 608.804688 642.675781 611.644531 C 644.101562 614.492188 645.046875 611.171875 647.417969 609.277344 C 649.789062 607.382812 649.3125 603.113281 647.890625 601.21875 C 646.46875 599.324219 647.417969 599.324219 649.789062 596.953125 C 652.15625 594.585938 648.839844 593.160156 646.941406 592.6875 C 645.046875 592.214844 640.78125 596.007812 637.9375 596.007812 C 635.09375 596.007812 632.726562 605.011719 628.457031 609.277344 C 624.191406 613.542969 623.246094 614.964844 623.246094 614.964844 C 622.769531 621.601562 632.726562 618.285156 636.042969 617.335938 Z M 642.675781 617.335938 C 643.152344 614.492188 636.515625 621.125 636.515625 621.125 C 639.359375 631.082031 642.203125 620.179688 642.675781 617.335938 Z M 664.957031 594.585938 C 664.957031 594.585938 671.117188 595.058594 671.117188 592.214844 C 671.117188 589.371094 670.640625 587.949219 667.324219 587.949219 C 664.007812 587.949219 669.21875 585.578125 671.589844 585.105469 C 673.960938 584.632812 673.488281 579.890625 665.902344 583.683594 C 658.320312 587.472656 659.742188 592.691406 659.742188 592.691406 Z M 652.632812 586.527344 L 656.421875 589.371094 L 657.84375 587 L 655.476562 583.683594 Z M 659.265625 605.484375 C 662.109375 604.0625 655 603.117188 655 603.117188 C 650.734375 605.011719 656.421875 606.90625 659.265625 605.484375 Z M 752.640625 610.226562 L 758.324219 611.175781 L 769.703125 613.070312 L 768.753906 611.175781 L 772.546875 608.804688 L 780.605469 609.277344 L 784.394531 610.226562 L 785.34375 615.441406 C 785.34375 615.441406 791.507812 611.648438 793.402344 610.226562 C 795.296875 608.804688 795.296875 604.539062 795.296875 604.539062 C 795.296875 604.539062 792.925781 601.222656 790.085938 599.800781 C 787.242188 598.378906 782.027344 599.324219 782.027344 599.324219 L 782.5 595.058594 C 782.5 595.058594 786.765625 597.429688 788.664062 596.957031 C 790.558594 596.480469 793.875 596.480469 795.300781 594.109375 C 796.722656 591.742188 796.25 585.105469 796.25 585.105469 L 801.9375 584.15625 L 803.835938 583.207031 C 803.835938 583.207031 805.261719 577.996094 807.160156 573.730469 C 809.054688 569.464844 809.066406 564.722656 809.066406 564.722656 L 807.664062 559.984375 L 803.417969 559.496094 L 803.417969 557.613281 L 806.230469 556.667969 C 806.230469 556.667969 808.570312 554.769531 812.359375 552.402344 C 816.152344 550.03125 813.78125 549.558594 813.78125 549.558594 C 819.945312 552.875 818.523438 550.980469 819.472656 548.136719 C 820.417969 545.292969 823.734375 541.023438 823.734375 541.023438 L 819.941406 541.972656 L 818.996094 539.605469 C 818.996094 539.605469 823.734375 537.707031 825.628906 536.761719 C 827.527344 535.8125 828.949219 534.867188 829.425781 532.96875 C 829.898438 531.074219 834.636719 524.910156 836.058594 522.066406 C 837.480469 519.222656 840.796875 516.855469 844.117188 514.007812 C 847.433594 511.164062 848.859375 509.269531 846.484375 506.898438 C 844.117188 504.53125 829.898438 516.378906 826.578125 517.328125 C 823.261719 518.277344 837.957031 506.898438 837.957031 506.898438 L 831.320312 505.003906 C 831.320312 505.003906 845.539062 501.210938 848.859375 500.265625 C 852.175781 499.316406 857.390625 490.3125 859.757812 485.570312 C 862.128906 480.832031 859.285156 480.832031 855.492188 477.515625 C 851.699219 474.195312 850.753906 469.457031 850.753906 469.457031 L 845.539062 468.507812 C 845.539062 468.507812 840.328125 471.828125 835.585938 474.671875 C 830.847656 477.515625 837.007812 469.929688 839.378906 467.5625 C 841.75 465.191406 838.90625 465.664062 832.742188 464.71875 C 826.582031 463.769531 829.425781 461.875 823.738281 461.402344 C 818.050781 460.925781 809.992188 462.347656 805.253906 463.296875 C 800.515625 464.246094 793.878906 464.242188 787.714844 467.5625 C 781.554688 470.878906 782.503906 471.828125 780.132812 475.144531 C 777.761719 478.464844 778.238281 480.359375 777.289062 483.675781 C 776.34375 486.992188 769.230469 478.9375 766.863281 480.832031 C 764.492188 482.730469 765.914062 485.097656 763.542969 487.941406 C 761.175781 490.785156 754.539062 493.15625 750.273438 495.527344 C 746.007812 497.894531 742.691406 499.792969 743.164062 503.109375 C 743.636719 506.425781 750.273438 512.589844 750.273438 512.589844 L 749.796875 514.957031 C 749.796875 514.957031 748.851562 517.800781 752.644531 523.492188 C 756.433594 529.175781 765.914062 531.074219 770.179688 531.074219 C 774.445312 531.074219 776.34375 530.597656 782.976562 529.175781 C 789.613281 527.757812 791.507812 515.90625 791.507812 515.90625 L 797.671875 511.167969 C 794.351562 514.484375 794.351562 523.964844 791.980469 528.230469 C 789.613281 532.496094 775.867188 536.285156 775.867188 536.285156 C 775.867188 536.285156 780.609375 545.292969 782.027344 548.136719 C 783.453125 550.976562 787.242188 551.453125 787.242188 551.453125 L 784.398438 552.875 L 781.082031 551.925781 C 781.082031 551.925781 774.921875 540.550781 772.550781 538.65625 C 770.179688 536.757812 765.914062 536.285156 764.019531 536.285156 C 762.125 536.285156 762.597656 545.765625 764.019531 547.1875 C 765.441406 548.609375 767.335938 550.03125 767.335938 550.03125 L 773.027344 561.40625 L 770.65625 562.828125 C 770.65625 562.828125 770.65625 565.199219 774.921875 566.144531 C 779.183594 567.09375 781.082031 565.671875 781.082031 565.671875 L 777.765625 571.835938 C 777.765625 571.835938 772.078125 568.042969 769.234375 567.570312 C 766.390625 567.09375 762.125 569.464844 762.125 569.464844 C 762.125 569.464844 761.175781 571.359375 760.226562 574.679688 C 759.28125 577.996094 760.703125 581.789062 760.703125 581.789062 L 767.339844 580.839844 L 769.234375 582.261719 L 765.917969 586.054688 L 770.179688 592.214844 L 774.449219 591.742188 L 772.550781 594.109375 C 772.550781 594.109375 772.550781 594.109375 769.234375 594.585938 C 765.917969 595.058594 764.019531 588.421875 762.125 586.527344 C 760.226562 584.628906 757.382812 587.949219 755.488281 588.421875 C 753.59375 588.894531 758.332031 595.53125 758.332031 595.53125 L 760.703125 596.007812 L 761.175781 597.902344 C 761.175781 597.902344 758.328125 600.269531 755.484375 601.21875 C 752.640625 602.164062 750.738281 606.902344 750.738281 606.902344 Z M 768.773438 557.632812 L 766.394531 553.359375 L 762.597656 551.457031 C 762.597656 551.457031 762.121094 549.085938 761.171875 547.191406 C 760.222656 545.292969 758.324219 534.390625 758.324219 534.390625 L 756.429688 533.441406 C 756.429688 533.441406 754.535156 535.339844 755.484375 537.707031 C 756.429688 540.078125 756.429688 540.078125 756.429688 540.078125 C 756.429688 540.078125 752.640625 537.707031 753.113281 535.339844 C 753.589844 532.96875 753.113281 534.390625 750.269531 531.074219 C 747.425781 527.753906 745.054688 525.386719 743.632812 521.121094 C 742.210938 516.855469 742.683594 515.433594 739.367188 513.0625 C 736.050781 510.691406 733.207031 511.640625 733.207031 511.640625 L 733.914062 514.011719 L 736.992188 514.957031 L 736.992188 517.789062 L 731.550781 519.222656 L 728.824219 523.015625 C 728.824219 523.015625 731.726562 524.914062 733.144531 526.335938 C 734.566406 527.757812 735.070312 531.074219 735.070312 531.074219 L 727.503906 528.230469 L 726.089844 535.339844 C 726.089844 535.339844 726.566406 541.027344 729.410156 539.605469 C 732.253906 538.183594 734.769531 538.183594 732.871094 540.554688 C 730.976562 542.921875 727.328125 542.449219 727.328125 542.449219 L 727.328125 546.226562 L 731.785156 550.222656 L 735.640625 550.222656 L 730.835938 553.414062 L 733.679688 558.832031 L 740.316406 556.566406 L 744.578125 558.039062 L 740.316406 561.382812 L 736.996094 563.765625 C 736.996094 563.765625 737.945312 577.042969 742.683594 580.363281 C 747.425781 583.679688 747.425781 583.683594 747.425781 583.683594 L 749.320312 579.417969 L 752.164062 578.472656 L 755.007812 579.894531 C 755.007812 579.894531 755.957031 576.574219 755.957031 572.785156 C 755.957031 568.992188 758.796875 570.886719 758.796875 570.886719 L 761.640625 564.253906 C 761.644531 564.25 768.792969 561.917969 768.773438 557.632812 Z M 663.53125 576.4375 L 665.027344 579.207031 L 667.324219 579.207031 L 667.800781 576.46875 L 671.589844 577.996094 L 674.4375 578.472656 C 674.4375 578.472656 674.4375 573.261719 673.015625 571.839844 C 671.59375 570.417969 669.230469 568.523438 669.230469 568.523438 C 666.386719 572.316406 664.5 572.796875 664.5 572.796875 L 659.777344 577.078125 Z M 688.179688 588.898438 C 688.179688 588.898438 690.546875 601.21875 693.867188 599.796875 C 697.183594 598.375 692.445312 587.949219 688.179688 588.898438 Z M 689.125 559.035156 C 689.125 559.035156 686.28125 565.199219 689.125 564.722656 C 691.972656 564.25 695.289062 566.144531 695.289062 566.144531 L 696.238281 570.886719 L 696.710938 573.253906 L 692.917969 573.726562 C 692.917969 573.726562 692.445312 577.046875 694.816406 577.046875 C 697.183594 577.046875 700.976562 577.996094 700.976562 577.996094 C 700.976562 577.996094 704.769531 577.046875 706.191406 579.417969 C 707.609375 581.785156 709.03125 586.527344 710.457031 586.054688 C 711.875 585.578125 715.195312 585.105469 713.773438 581.785156 C 712.351562 578.46875 711.878906 574.675781 711.878906 572.78125 C 711.878906 570.886719 709.035156 566.621094 709.035156 566.621094 L 705.71875 567.566406 L 705.242188 562.355469 L 701.925781 560.457031 L 700.503906 564.25 L 698.609375 559.984375 L 695.765625 557.613281 Z M 713.773438 541.5 C 713.773438 541.5 711.878906 546.238281 713.773438 546.710938 C 715.671875 547.1875 716.617188 550.976562 716.617188 550.976562 C 716.617188 550.976562 720.882812 538.65625 713.773438 541.5 Z M 718.511719 572.308594 L 721.355469 578.46875 C 725.621094 578.945312 723.253906 581.789062 721.832031 581.789062 C 720.410156 581.789062 722.777344 587.949219 722.777344 587.949219 L 725.148438 585.105469 L 731.308594 584.160156 C 731.308594 584.160156 730.363281 579.421875 730.363281 577.523438 C 730.363281 575.628906 728.941406 573.730469 727.519531 574.207031 C 726.097656 574.679688 726.570312 571.359375 726.570312 571.359375 L 719.460938 565.675781 C 716.144531 564.722656 718.511719 572.308594 718.511719 572.308594 Z M 727.992188 589.371094 C 727.992188 589.371094 727.519531 593.164062 731.785156 593.636719 C 736.050781 594.109375 736.050781 594.109375 736.050781 594.109375 L 736.523438 588.425781 Z M 746.003906 591.265625 C 746.003906 591.265625 745.054688 598.375 749.320312 597.429688 C 753.589844 596.480469 750.742188 588.421875 746.003906 591.265625 Z M 707.136719 587 L 703.820312 584.628906 L 700.976562 585.105469 C 699.554688 590.320312 707.136719 587 707.136719 587 Z M 885.890625 484.742188 C 885.890625 484.742188 880.171875 488 877.328125 488.945312 C 874.484375 489.894531 867.832031 493.65625 867.832031 493.65625 C 867.832031 493.65625 867.824219 495.066406 864.980469 496.484375 C 862.136719 497.90625 859.761719 499.796875 859.761719 502.167969 C 859.761719 504.535156 861.183594 516.855469 861.183594 516.855469 C 861.183594 516.855469 857.863281 516.378906 855.492188 515.90625 C 853.125 515.433594 850.28125 517.800781 847.910156 521.121094 C 845.539062 524.4375 838.902344 533.441406 837.007812 536.285156 C 835.113281 539.128906 838.429688 541.5 838.429688 541.5 C 838.429688 541.5 842.695312 542.921875 847.433594 541.023438 L 846.488281 544.34375 L 845.539062 549.558594 C 845.539062 549.558594 847.910156 552.875 845.539062 555.71875 C 843.171875 558.5625 842.222656 561.878906 842.222656 561.878906 C 842.222656 561.878906 839.851562 559.039062 837.484375 560.933594 C 835.113281 562.828125 829.898438 564.722656 829.898438 564.722656 C 829.898438 564.722656 828.003906 568.042969 825.160156 569.9375 C 822.316406 571.835938 816.628906 575.152344 816.628906 575.152344 L 816.15625 581.789062 C 816.15625 581.789062 821.367188 584.15625 822.789062 586.054688 C 824.210938 587.949219 824.210938 591.269531 827.53125 591.742188 C 830.847656 592.214844 834.164062 591.269531 834.164062 591.269531 C 834.164062 591.269531 838.90625 587.003906 840.328125 588.898438 C 841.75 590.792969 841.273438 594.585938 841.273438 594.585938 C 841.273438 594.585938 835.113281 594.585938 831.324219 596.480469 C 827.53125 598.375 824.6875 598.375 824.6875 598.375 L 821.84375 600.746094 C 821.84375 600.746094 823.265625 604.0625 825.160156 604.539062 C 827.054688 605.011719 835.113281 606.433594 833.21875 607.382812 C 831.324219 608.328125 828.480469 611.648438 828.480469 611.648438 C 828.480469 611.648438 834.164062 619.230469 838.90625 618.757812 C 838.90625 618.757812 837.484375 615.914062 841.277344 615.4375 C 845.070312 614.964844 852.175781 613.542969 852.175781 613.542969 L 858.8125 614.964844 C 858.8125 614.964844 871.136719 620.652344 871.609375 623.972656 C 872.085938 627.289062 870.1875 628.710938 872.558594 631.082031 C 874.929688 633.449219 877.296875 637.242188 878.71875 642.929688 C 880.140625 648.617188 883.460938 655.253906 883.460938 658.570312 C 883.460938 661.890625 887.25 661.414062 886.304688 666.628906 C 885.355469 671.839844 882.511719 676.582031 882.511719 676.582031 C 882.511719 676.582031 880.613281 677.527344 882.039062 679.898438 C 883.457031 682.269531 887.726562 682.269531 887.726562 682.269531 L 889.144531 676.105469 C 889.144531 676.105469 893.886719 677.054688 896.730469 685.113281 C 899.574219 693.171875 902.417969 694.59375 897.203125 691.273438 C 891.992188 687.957031 887.25 688.433594 887.25 688.433594 C 887.25 688.433594 886.777344 690.800781 890.09375 692.695312 C 893.410156 694.59375 892.9375 697.4375 896.257812 697.4375 C 899.574219 697.4375 901.945312 697.910156 901.945312 697.910156 C 901.945312 697.910156 901.46875 703.597656 900.523438 705.492188 C 899.574219 707.390625 898.152344 711.65625 898.152344 711.65625 C 898.152344 711.65625 895.78125 711.183594 893.886719 714.972656 C 891.992188 718.765625 889.144531 725.402344 889.144531 725.402344 L 890.570312 729.667969 L 892.464844 730.613281 C 892.464844 730.613281 889.144531 732.511719 890.09375 734.40625 C 891.042969 736.300781 895.308594 746.730469 895.308594 753.367188 C 895.308594 753.367188 898.152344 749.101562 901.941406 750.996094 L 898.625 757.628906 C 898.625 757.628906 900.519531 763.792969 903.367188 769.957031 C 906.207031 776.117188 912.371094 781.328125 912.371094 781.328125 C 912.371094 781.328125 917.109375 780.382812 919.480469 782.277344 C 921.851562 784.171875 923.746094 788.441406 923.746094 788.441406 L 928.488281 787.964844 L 933.226562 775.167969 L 932.75 768.058594 L 936.542969 765.214844 L 939.859375 754.789062 L 937.492188 746.730469 L 940.808594 745.308594 L 941.757812 742.464844 L 947.917969 739.621094 L 950.761719 735.828125 L 953.132812 735.804688 L 952.183594 738.628906 L 956.492188 738.628906 C 956.492188 738.628906 962.609375 734.363281 964.507812 731.042969 C 966.402344 727.726562 968.300781 721.351562 968.300781 721.351562 L 971.144531 718.402344 L 970.195312 712.1875 L 975.882812 716.425781 C 975.882812 716.425781 988.207031 714.988281 992.472656 711.671875 C 996.738281 708.355469 1009.535156 697.445312 1009.535156 697.445312 C 1009.535156 697.445312 1006.214844 696.496094 1003.847656 695.546875 C 1001.476562 694.597656 994.839844 694.597656 993.417969 695.070312 C 991.996094 695.542969 992.472656 692.699219 992.472656 692.699219 L 985.359375 692.226562 L 988.203125 686.0625 C 988.203125 686.0625 994.367188 687.484375 995.3125 685.117188 C 996.261719 682.746094 996.738281 680.851562 996.738281 680.851562 L 991.050781 680.375 L 990.101562 674.6875 C 990.101562 674.6875 996.265625 678.480469 999.105469 679.902344 C 1001.949219 681.324219 1004.320312 688.90625 1004.320312 688.90625 L 1006.214844 691.75 L 1011.90625 691.277344 L 1010.480469 677.53125 C 1010.480469 677.53125 1006.6875 675.164062 1004.792969 673.265625 C 1002.898438 671.371094 1001 668.527344 1001 668.527344 L 997.683594 662.363281 L 995.3125 658.574219 L 1002.421875 650.515625 L 1009.058594 656.675781 L 1015.222656 654.308594 L 1016.167969 649.09375 L 1010.007812 646.722656 L 1011.429688 641.039062 L 1018.539062 643.40625 L 1020.90625 640.5625 L 1016.644531 638.667969 L 1013.324219 624.921875 C 1013.324219 624.921875 1019.011719 627.289062 1019.488281 629.660156 L 1019.011719 621.128906 L 1018.539062 614.492188 L 1013.800781 613.074219 L 1010.480469 609.753906 L 1009.535156 605.015625 C 1009.535156 605.015625 1016.644531 601.222656 1019.011719 602.644531 C 1021.382812 604.066406 1025.648438 604.539062 1025.648438 604.539062 L 1023.753906 596.007812 L 1020.941406 595.0625 L 1017.1875 592.691406 L 1017.1875 588.40625 L 1021.910156 590.796875 L 1022.835938 587.480469 L 1018.078125 584.160156 L 1015.230469 585.582031 C 1015.230469 585.582031 1014.277344 589.847656 1013.332031 588.425781 C 1012.382812 587.003906 1014.277344 580.371094 1014.75 576.578125 C 1015.226562 572.785156 1014.75 568.519531 1014.75 568.519531 L 1018.542969 566.148438 L 1020.4375 549.558594 L 1025.175781 548.136719 L 1028.019531 542.453125 L 1021.859375 541.503906 L 1019.015625 546.714844 C 1019.015625 546.714844 1016.171875 545.292969 1017.59375 540.554688 C 1019.015625 535.816406 1020.4375 537.238281 1025.652344 537.710938 C 1030.863281 538.1875 1033.234375 531.550781 1033.234375 531.550781 L 1026.597656 529.804688 L 1018.066406 530.902344 L 1014.785156 530.902344 L 1019.488281 527.875 C 1019.488281 527.875 1022.808594 528.765625 1024.703125 527.34375 C 1026.597656 525.921875 1028.019531 525.417969 1029.914062 525.417969 C 1031.808594 525.417969 1034.65625 523.507812 1036.550781 523.03125 C 1038.445312 522.558594 1038.445312 520.183594 1038.445312 520.183594 L 1037.5 516.859375 L 1041.761719 515.910156 C 1041.761719 515.910156 1045.082031 509.746094 1047.453125 506.902344 C 1049.820312 504.058594 1045.554688 502.164062 1042.238281 498.847656 C 1038.921875 495.527344 1030.863281 496.476562 1029.441406 496.949219 C 1028.019531 497.425781 1025.175781 508.800781 1025.175781 508.800781 L 1022.332031 506.429688 L 1018.539062 508.324219 L 1016.167969 505.007812 L 1010.007812 516.855469 L 1004.320312 525.390625 C 1004.320312 525.390625 1003.847656 519.226562 1006.214844 515.433594 C 1008.585938 511.644531 1011.902344 503.585938 1011.902344 501.214844 C 1011.902344 498.847656 1010.007812 492.210938 1010.007812 492.210938 L 1004.320312 494.105469 C 1004.320312 494.105469 1000.054688 505.957031 991.996094 509.273438 L 990.101562 508.796875 L 989.628906 506.429688 L 997.210938 500.265625 L 999.105469 494.578125 L 987.253906 492.683594 C 987.253906 492.683594 982.992188 495.527344 978.722656 496.949219 C 974.457031 498.371094 970.195312 502.164062 970.195312 502.164062 C 970.195312 502.164062 964.980469 499.792969 968.773438 498.371094 C 972.5625 496.949219 974.933594 490.789062 980.148438 490.3125 C 985.359375 489.839844 992.945312 489.839844 997.210938 489.367188 C 1001.476562 488.890625 1003.371094 487.945312 1005.742188 486.523438 C 1008.109375 485.101562 1013.800781 476.09375 1013.800781 476.09375 C 1013.800781 476.09375 1007.164062 468.039062 1005.265625 468.039062 C 1003.371094 468.039062 997.683594 469.933594 997.683594 469.933594 C 997.683594 469.933594 1000.527344 465.191406 1000.054688 462.824219 C 999.582031 460.453125 991.996094 462.824219 991.996094 462.824219 C 989.152344 462.824219 989.152344 461.875 986.308594 461.402344 C 983.464844 460.929688 979.671875 461.402344 976.828125 462.351562 C 973.984375 463.296875 965.929688 466.617188 965.929688 466.617188 L 971.140625 460.929688 C 971.140625 460.929688 972.5625 450.972656 964.503906 450.5 C 956.449219 450.027344 946.019531 450.5 945.546875 457.136719 C 945.074219 463.773438 946.96875 469.933594 946.96875 469.933594 C 946.96875 469.933594 944.125 466.617188 941.753906 465.667969 C 939.386719 464.71875 937.492188 458.558594 937.492188 458.558594 C 937.492188 458.558594 924.21875 454.292969 920.902344 456.664062 C 917.585938 459.03125 915.214844 465.960938 915.214844 465.960938 C 915.214844 465.960938 917.109375 470.515625 924.21875 470.515625 C 931.332031 470.515625 935.167969 470.515625 935.167969 470.515625 L 940.808594 474.457031 L 942.703125 481.4375 C 942.703125 481.4375 937.964844 475.210938 936.542969 474.261719 C 935.117188 473.316406 920.425781 471.390625 920.425781 471.390625 C 920.425781 471.390625 923.742188 477.0625 925.640625 478.957031 C 927.535156 480.855469 929.90625 486.058594 929.90625 486.058594 L 923.746094 481.316406 L 917.109375 474.675781 L 910.945312 475.152344 C 910.945312 475.152344 915.6875 483.679688 917.582031 485.105469 C 919.476562 486.523438 921.847656 491.226562 922.792969 493.597656 C 923.742188 495.964844 924.21875 498.296875 924.21875 498.296875 L 921.894531 498.296875 C 921.894531 498.296875 918.054688 492.140625 916.632812 490.71875 C 915.210938 489.296875 911.894531 486.015625 909.523438 484.121094 C 907.152344 482.222656 904.785156 479.871094 904.785156 479.871094 L 899.09375 479.40625 C 899.09375 479.40625 901.464844 488.890625 903.363281 492.683594 C 905.257812 496.472656 901.464844 496.476562 901.464844 496.476562 L 896.726562 491.265625 L 892.933594 485.578125 Z M 885.824219 700.753906 L 889.140625 705.019531 C 889.140625 705.019531 891.039062 705.019531 893.410156 703.597656 C 895.777344 702.175781 895.777344 699.808594 895.777344 699.808594 L 890.566406 696.488281 L 886.300781 694.59375 Z M 885.824219 700.753906 " fill-opacity="1" fill-rule="nonzero"/></g></svg>