<svg xmlns="http://www.w3.org/2000/svg" xmlns:xlink="http://www.w3.org/1999/xlink" width="2000" zoomAndPan="magnify" viewBox="400 400 700 700" height="2000" preserveAspectRatio="xMidYMid meet" version="1.0"><path fill="#ac6d46" d="M 645.445312 466.839844 C 643.9375 465.117188 646.304688 462.320312 647.378906 462.105469 C 648.457031 461.890625 648.671875 461.027344 649.746094 460.382812 C 650.824219 459.738281 655.773438 458.230469 655.773438 458.230469 L 660.074219 457.585938 L 669.113281 460.167969 C 669.328125 462.320312 672.117188 465.546875 672.117188 465.546875 L 687.382812 464.902344 C 688.027344 467.054688 690.582031 468.777344 693.808594 468.992188 C 697.039062 469.207031 701.28125 466.195312 701.28125 466.195312 C 701.28125 466.195312 703.097656 465.980469 704.820312 465.765625 C 706.542969 465.550781 703.027344 464.796875 701.839844 464.796875 C 700.648438 464.796875 701.839844 464.042969 701.839844 464.042969 L 718.730469 464.257812 C 718.730469 464.257812 714.746094 465.546875 713.457031 465.765625 C 712.164062 465.980469 711.734375 466.839844 711.734375 466.839844 C 711.734375 466.839844 713.886719 467.703125 714.746094 468.347656 C 715.609375 468.992188 715.824219 469.425781 715.824219 469.425781 L 716.898438 471.148438 C 716.898438 471.148438 719.914062 471.148438 720.988281 471.578125 C 722.066406 472.007812 722.496094 471.792969 726.371094 474.160156 C 730.242188 476.527344 728.308594 480.832031 728.308594 480.832031 C 728.308594 480.832031 728.308594 480.832031 727.015625 481.046875 C 725.722656 481.261719 728.953125 482.335938 728.953125 482.335938 L 731.535156 482.121094 C 731.535156 482.121094 732.394531 480.832031 734.117188 480.832031 C 735.839844 480.832031 736.914062 483.414062 736.914062 483.414062 L 738.636719 482.769531 C 738.636719 482.769531 743.15625 486.855469 745.308594 489.4375 C 747.460938 492.019531 746.816406 494.605469 746.816406 494.605469 C 747.460938 494.605469 752.625 495.679688 753.273438 496.972656 C 753.917969 498.265625 755.425781 499.125 756.285156 499.984375 C 757.144531 500.847656 758.007812 502.78125 758.007812 502.78125 L 759.515625 501.707031 C 759.515625 501.707031 760.589844 502.136719 762.742188 502.351562 C 764.894531 502.566406 768.769531 502.351562 770.492188 502.351562 C 772.214844 502.351562 774.582031 501.492188 774.582031 501.492188 L 782.328125 503.214844 C 782.328125 503.214844 784.480469 504.289062 786.203125 504.933594 C 787.925781 505.582031 790.507812 506.871094 790.507812 506.871094 C 790.507812 506.871094 793.949219 508.378906 795.671875 509.667969 C 797.394531 510.960938 798.472656 512.25 799.546875 513.328125 C 800.625 514.40625 801.914062 515.480469 801.914062 515.480469 L 803.207031 515.050781 L 805.574219 518.710938 L 807.082031 523.875 L 810.09375 533.992188 C 810.09375 533.992188 810.953125 533.992188 812.246094 534.636719 C 813.539062 535.28125 814.398438 535.5 814.398438 535.5 C 813.753906 537.21875 813.324219 541.09375 813.324219 541.09375 L 811.601562 541.957031 L 810.742188 543.894531 C 810.742188 543.894531 808.375 545.398438 806.21875 547.121094 C 804.066406 548.84375 803.421875 551.425781 803.421875 551.425781 L 803.207031 553.578125 C 804.070312 553.792969 803.851562 556.589844 803.851562 556.589844 L 805.359375 557.023438 L 806.222656 555.085938 L 808.375 554.871094 L 807.945312 555.730469 L 806.867188 556.375 L 808.804688 558.3125 L 809.453125 562.832031 L 818.707031 562.617188 L 818.492188 566.921875 L 819.996094 566.707031 C 819.996094 566.707031 820.429688 565.203125 821.074219 564.34375 C 821.71875 563.480469 821.289062 562.195312 822.363281 561.121094 C 823.441406 560.046875 826.453125 559.410156 826.453125 559.410156 L 827.097656 556.421875 L 828.390625 555.824219 C 828.390625 555.824219 829.464844 553.121094 832.480469 552.90625 C 835.492188 552.691406 841.304688 556.054688 841.304688 556.054688 L 844.101562 556.054688 C 844.101562 556.054688 847.113281 557.613281 848.835938 558.261719 C 850.558594 558.90625 850.34375 561.324219 850.34375 561.324219 L 853.574219 559.601562 C 854.863281 559.601562 856.585938 562.617188 856.585938 562.617188 L 855.722656 565.414062 L 857.230469 565.203125 L 858.523438 566.28125 L 857.230469 569.523438 C 859.597656 570.597656 864.335938 566.316406 864.335938 566.316406 L 865.839844 567.863281 L 867.996094 567.730469 C 867.996094 567.730469 871.222656 569.183594 874.878906 570.261719 C 878.539062 571.335938 885.535156 571.503906 885.535156 571.503906 L 892.960938 571.503906 C 892.960938 571.503906 897.265625 573.085938 900.921875 575.667969 C 904.582031 578.25 907.59375 581.339844 909.964844 583.492188 C 912.328125 585.644531 914.914062 587.367188 914.914062 587.367188 L 916.417969 587.148438 L 918.140625 587.582031 C 918.140625 587.582031 919.863281 587.796875 924.167969 588.226562 C 928.472656 588.65625 930.191406 592.746094 930.625 595.542969 C 931.054688 598.339844 932.777344 600.0625 932.777344 600.0625 C 932.777344 600.0625 931.703125 609.746094 929.546875 617.28125 C 927.394531 624.8125 918.355469 631.054688 916.417969 632.992188 C 914.484375 634.929688 911.683594 636.007812 910.609375 640.527344 C 909.535156 645.046875 904.367188 649.136719 904.367188 649.136719 C 904.367188 649.136719 904.367188 649.136719 902.214844 649.566406 C 900.0625 649.996094 899.417969 655.164062 899.203125 660.113281 C 898.984375 665.0625 900.492188 672.382812 900.492188 672.382812 L 897.261719 687.878906 L 895.328125 689.816406 L 893.605469 702.945312 L 891.023438 705.957031 L 889.945312 709.832031 L 883.488281 717.792969 C 882.84375 725.328125 880.476562 725.328125 878.109375 726.402344 C 875.742188 727.480469 875.742188 729.632812 874.878906 730.707031 C 874.019531 731.785156 867.5625 731.136719 867.5625 731.136719 L 863.472656 731.570312 L 860.460938 732 C 860.460938 732 857.664062 731.78125 856.371094 731.78125 C 855.082031 731.78125 855.726562 734.796875 855.726562 734.796875 C 855.726562 734.796875 852.929688 734.582031 851.851562 735.65625 C 850.777344 736.734375 847.976562 738.238281 847.976562 738.238281 C 847.976562 738.238281 846.472656 738.023438 845.179688 738.882812 C 843.890625 739.746094 840.875 740.390625 840.875 740.390625 C 840.875 740.390625 834.417969 745.988281 831.191406 748.140625 C 827.964844 750.292969 823.65625 758.46875 823.65625 758.46875 L 824.304688 763.636719 L 824.949219 769.664062 L 823.441406 778.273438 C 823.441406 778.273438 821.722656 780.425781 818.277344 783.4375 C 814.832031 786.449219 811.390625 797.210938 810.097656 798.933594 C 808.804688 800.65625 804.070312 807.757812 804.070312 807.757812 C 804.070312 807.757812 797.832031 812.492188 795.894531 814 C 793.957031 815.503906 793.738281 819.378906 793.738281 819.378906 L 789.21875 825.191406 C 789.21875 825.191406 787.710938 825.835938 784.269531 831.648438 C 780.828125 837.460938 775.445312 839.179688 773.941406 838.75 C 772.433594 838.320312 764.902344 837.890625 764.902344 837.890625 L 756.078125 834.875 L 750.910156 833.585938 L 747.035156 829.925781 L 746.605469 833.15625 L 748.972656 836.382812 C 748.972656 836.382812 757.367188 842.195312 756.71875 843.917969 C 756.074219 845.636719 755.214844 848.222656 756.503906 850.589844 C 757.796875 852.957031 760.59375 852.957031 760.59375 852.957031 L 760.378906 858.335938 C 760.378906 858.335938 756.503906 864.148438 754.996094 866.085938 C 753.492188 868.023438 753.058594 871.464844 753.058594 871.464844 L 745.3125 874.480469 L 734.980469 877.0625 C 734.980469 877.0625 726.15625 878.351562 722.066406 878.566406 C 717.980469 878.785156 716.902344 876.414062 716.902344 876.414062 L 717.332031 881.582031 C 719.484375 884.378906 718.195312 887.175781 718.195312 887.175781 L 717.117188 887.824219 C 717.117188 887.824219 715.824219 889.761719 716.039062 891.480469 C 716.253906 893.203125 716.6875 893.203125 717.117188 896.003906 C 717.546875 898.800781 714.964844 899.015625 713.457031 899.445312 C 711.953125 899.875 710.875 900.953125 709.152344 901.167969 C 707.433594 901.378906 704.636719 900.738281 703.34375 900.304688 C 702.050781 899.875 700.976562 898.585938 699.46875 898.152344 C 697.960938 897.722656 697.101562 896.644531 696.242188 895.785156 C 695.378906 894.925781 694.734375 897.722656 694.734375 897.722656 C 694.734375 897.722656 694.304688 900.734375 694.734375 902.457031 C 695.164062 904.179688 695.378906 907.40625 695.59375 909.34375 C 695.8125 911.28125 697.316406 911.710938 697.316406 911.710938 L 699.253906 913.21875 C 698.394531 914.511719 699.898438 914.292969 701.621094 913.863281 C 703.34375 913.433594 701.621094 911.710938 701.621094 911.710938 L 703.988281 911.496094 L 705.925781 910.636719 C 705.925781 910.636719 706.789062 913.863281 706.789062 916.445312 C 706.789062 919.027344 703.773438 918.8125 702.484375 918.597656 C 701.191406 918.382812 701.621094 919.039062 700.332031 917.964844 C 699.039062 916.886719 697.535156 915.585938 696.242188 916.878906 C 694.949219 918.167969 697.316406 919.03125 699.46875 919.890625 C 701.621094 920.75 700.761719 921.613281 699.253906 922.042969 C 697.75 922.472656 696.027344 924.410156 694.519531 926.132812 C 693.015625 927.855469 694.734375 930.867188 694.734375 930.867188 C 694.734375 930.867188 694.089844 935.601562 693.015625 936.890625 C 691.9375 938.183594 690.214844 938.402344 691.292969 939.476562 C 692.367188 940.550781 691.722656 942.703125 691.722656 942.703125 C 691.722656 942.703125 688.0625 942.488281 686.554688 942.488281 C 685.050781 942.488281 683.972656 944.425781 683.972656 944.425781 C 683.972656 944.425781 682.253906 944.855469 681.175781 945.285156 C 680.101562 945.71875 679.238281 947.441406 676.65625 952.175781 C 674.074219 956.910156 676.871094 958.847656 678.164062 960.136719 C 679.457031 961.429688 681.609375 964.011719 683.976562 965.519531 C 686.34375 967.027344 687.847656 965.734375 689.140625 966.164062 C 690.433594 966.59375 690.433594 968.101562 690.863281 969.605469 C 691.292969 971.113281 689.574219 972.835938 689.574219 972.835938 L 689.789062 976.277344 L 688.710938 976.496094 L 688.5 978.429688 C 688.5 978.429688 687.210938 978.003906 686.132812 978.648438 C 685.058594 979.292969 680.117188 984.242188 677.75 986.824219 C 675.382812 989.410156 674.320312 992.421875 674.320312 992.421875 L 675.425781 992.636719 C 675.425781 992.636719 673.121094 999.953125 671.398438 1000.816406 C 669.675781 1001.679688 667.378906 997.480469 667.378906 997.480469 L 667.378906 1000.386719 L 668.574219 1002.320312 C 668.574219 1002.320312 668.476562 1002.316406 666.324219 1004.039062 C 664.171875 1005.761719 663.527344 1007.046875 663.097656 1008.984375 C 662.664062 1010.921875 661.589844 1013.0625 661.589844 1013.0625 L 663.097656 1013.257812 C 664.386719 1016.269531 664.0625 1019.511719 664.0625 1019.511719 L 661.371094 1019.511719 L 662.878906 1020.820312 L 664.386719 1021.261719 C 665.03125 1022.769531 669.335938 1029.226562 669.335938 1029.226562 C 669.335938 1029.226562 666.753906 1029.441406 665.464844 1029.011719 C 664.171875 1028.578125 663.742188 1028.363281 662.019531 1029.011719 C 660.296875 1029.65625 660.730469 1030.085938 659.222656 1030.730469 C 657.714844 1031.378906 655.132812 1032.453125 653.410156 1033.316406 C 651.6875 1034.175781 650.613281 1034.824219 650.613281 1034.824219 C 650.613281 1034.824219 650.398438 1037.835938 649.96875 1038.695312 C 649.535156 1039.558594 649.105469 1042.355469 648.890625 1044.292969 C 648.675781 1046.230469 648.460938 1047.089844 647.382812 1048.597656 C 646.308594 1050.105469 641.574219 1046.660156 639.417969 1045.367188 C 637.265625 1044.078125 638.34375 1042.140625 638.34375 1042.140625 L 639.851562 1041.277344 L 640.066406 1043.429688 C 640.066406 1043.429688 641.140625 1043.648438 642.003906 1042.140625 C 642.863281 1040.632812 643.722656 1040.632812 645.660156 1039.988281 C 647.597656 1039.339844 648.03125 1036.113281 648.03125 1036.113281 C 648.03125 1036.113281 646.738281 1035.679688 645.660156 1033.960938 C 644.585938 1032.238281 645.015625 1032.667969 642.863281 1031.804688 C 640.710938 1030.945312 637.269531 1033.097656 637.269531 1033.097656 L 636.621094 1031.804688 L 634.902344 1030.945312 C 634.902344 1030.945312 634.902344 1031.804688 636.839844 1029.4375 C 638.773438 1027.070312 635.761719 1024.703125 635.761719 1024.703125 L 636.621094 1024.058594 C 638.128906 1022.550781 635.761719 1022.121094 635.761719 1022.121094 C 634.898438 1023.84375 633.609375 1021.476562 632.53125 1021.257812 C 631.457031 1021.042969 633.394531 1021.691406 632.960938 1023.625 C 632.53125 1025.5625 631.457031 1023.625 631.457031 1023.625 C 631.457031 1023.625 631.457031 1023.625 630.59375 1025.5625 C 629.734375 1027.5 629.085938 1024.703125 628.871094 1021.476562 C 628.65625 1018.246094 626.71875 1016.09375 625.429688 1014.804688 C 624.140625 1013.511719 624.566406 1011.574219 624.566406 1011.574219 C 624.566406 1011.574219 626.503906 1011.144531 627.582031 1010.714844 C 628.660156 1010.28125 627.367188 1007.914062 626.71875 1008.777344 C 626.074219 1009.636719 624.785156 1008.5625 624.351562 1007.484375 C 623.921875 1006.410156 626.289062 1006.625 626.289062 1006.625 C 626.289062 1006.625 624.566406 1004.902344 623.277344 1004.6875 C 621.984375 1004.46875 621.125 1002.75 621.125 1001.671875 C 621.125 1000.597656 622.199219 1001.027344 622.847656 1000.382812 C 623.492188 999.734375 623.277344 996.9375 623.492188 995.863281 C 623.707031 994.785156 625.429688 995.433594 625.429688 995.433594 L 627.152344 995.003906 L 626.074219 993.28125 L 626.71875 989.84375 C 626.71875 989.84375 625.429688 991.140625 623.921875 993.292969 C 622.417969 995.445312 623.0625 985.773438 623.0625 985.773438 L 624.140625 984.9375 L 623.277344 983.910156 L 623.707031 982.671875 L 625.429688 982.671875 L 627.152344 982.917969 L 626.507812 980.582031 C 625.644531 981.226562 622.417969 981.441406 622.417969 981.441406 L 621.125 975.847656 L 621.988281 975.632812 C 623.277344 975.847656 623.710938 978.644531 623.710938 978.644531 L 624.140625 976.492188 C 624.140625 976.492188 625 976.277344 626.292969 976.921875 C 627.582031 977.566406 629.734375 978.429688 629.734375 978.429688 C 629.734375 978.429688 628.226562 976.707031 627.582031 974.984375 C 626.9375 973.265625 627.152344 972.617188 627.152344 972.617188 C 627.152344 972.617188 625.859375 973.910156 624.566406 973.265625 C 623.277344 972.617188 625.214844 971.542969 625.214844 971.542969 C 625.214844 971.542969 625.214844 971.542969 623.277344 970.46875 C 621.339844 969.390625 621.125 968.960938 622.199219 968.097656 C 623.277344 967.238281 624.78125 966.589844 624.78125 966.589844 C 623.492188 965.945312 623.921875 966.160156 624.996094 965.085938 C 626.074219 964.007812 624.566406 963.148438 623.273438 962.074219 C 621.984375 961 621.769531 961.644531 620.476562 962.722656 C 619.1875 963.796875 617.25 961 616.390625 960.355469 C 615.527344 959.710938 614.238281 961.652344 614.238281 961.652344 C 615.3125 962.082031 614.453125 964.246094 614.453125 964.246094 C 612.945312 964.246094 612.730469 962.757812 612.730469 962.757812 L 613.589844 960 C 615.957031 958.0625 617.25 956.636719 617.25 956.636719 C 617.25 956.636719 617.25 956.796875 618.324219 956.367188 C 619.402344 955.9375 619.1875 955.339844 619.1875 955.339844 L 618.109375 955.339844 C 616.390625 955.339844 616.820312 952.574219 616.820312 952.574219 L 619.1875 951.527344 C 619.1875 951.527344 620.046875 952.386719 620.691406 952.386719 C 621.339844 952.386719 622.414062 951.742188 622.414062 951.742188 L 623.707031 952.605469 C 622.632812 954.113281 624.566406 954.539062 624.566406 954.539062 L 624.351562 955.402344 C 622.632812 956.910156 625.214844 958.414062 625.214844 958.414062 L 626.71875 957.125 C 626.71875 957.125 627.152344 959.707031 627.582031 958.847656 C 628.011719 957.984375 629.734375 956.046875 629.734375 956.046875 C 629.734375 956.046875 630.808594 952.605469 631.023438 951.960938 C 631.238281 951.3125 628.65625 955.617188 628.65625 955.617188 L 629.085938 951.097656 L 630.375 950.882812 L 630.15625 950.019531 L 631.441406 949.160156 L 631.644531 948.085938 L 629.464844 948.945312 C 629.464844 948.945312 628.550781 948.085938 629.628906 946.792969 C 630.703125 945.5 631.246094 946.363281 632.96875 947.222656 C 634.6875 948.085938 634.101562 947.761719 634.101562 947.761719 L 634.101562 946.792969 C 634.101562 946.792969 633.425781 946.148438 632.347656 945.71875 C 631.273438 945.285156 630.164062 945.070312 630.164062 945.070312 L 631.023438 942.703125 C 631.023438 942.703125 631.023438 942.703125 632.746094 942.488281 C 634.46875 942.273438 633.175781 943.5625 635.113281 940.335938 C 637.050781 937.105469 634.035156 935.382812 632.53125 934.09375 C 631.023438 932.800781 631.023438 932.371094 631.023438 932.371094 L 632.097656 931.941406 L 632.746094 930.003906 L 633.601562 928.496094 C 633.601562 928.496094 635.105469 928.28125 633.386719 926.5625 C 631.664062 924.839844 633.378906 923.761719 634.242188 922.257812 C 635.101562 920.75 634.875 916.875 634.875 916.875 L 636.140625 915.800781 C 636.140625 915.800781 634.804688 914.292969 635.449219 913.003906 C 636.09375 911.710938 637.078125 913.863281 637.078125 913.863281 L 636.675781 910.207031 L 634.101562 909.667969 L 634.101562 908.265625 L 637.941406 906.332031 C 636.21875 907.40625 636.1875 905.683594 634.679688 904.824219 C 633.171875 903.964844 632.957031 905.46875 632.097656 906.761719 C 631.234375 908.050781 628.007812 906.761719 628.007812 906.761719 C 628.007812 905.039062 626.285156 904.609375 626.285156 904.609375 C 624.996094 902.023438 627.363281 894.707031 627.363281 894.707031 L 627.792969 888.035156 C 632.527344 880.933594 628.007812 874.90625 628.007812 874.90625 C 629.730469 872.109375 627.792969 867.375 627.792969 867.375 L 628.222656 861.992188 C 628.222656 861.992188 628.867188 860.703125 629.730469 860.917969 C 630.589844 861.132812 631.238281 861.132812 631.238281 861.132812 C 631.238281 861.132812 631.238281 858.980469 631.667969 856.398438 C 632.097656 853.816406 632.960938 855.96875 632.960938 855.96875 L 635.328125 849.296875 C 635.328125 849.296875 637.050781 844.5625 638.988281 840.6875 C 640.925781 836.8125 642.003906 829.28125 642.003906 829.28125 L 643.300781 827.988281 L 643.527344 822.609375 C 646.324219 818.304688 643.605469 812.816406 643.605469 812.816406 L 643.605469 809.265625 L 643.015625 805.390625 L 642.644531 796.136719 C 645.226562 794.84375 645.011719 794.84375 645.226562 791.402344 C 645.441406 787.957031 644.363281 788.820312 643.71875 787.097656 C 643.070312 785.375 644.792969 783.007812 646.085938 781.070312 C 647.378906 779.132812 647.378906 773.96875 647.378906 773.96875 L 648.453125 772.03125 L 648.023438 768.804688 C 648.023438 768.804688 648.882812 770.09375 650.175781 765.789062 C 651.464844 761.484375 650.171875 758.472656 649.957031 757.394531 C 649.742188 756.320312 652.109375 752.445312 652.109375 752.445312 C 652.109375 752.445312 651.890625 742.332031 652.105469 739.746094 C 652.320312 737.164062 651.882812 737.164062 651.238281 736.089844 C 650.59375 735.011719 652.082031 733.507812 652.945312 732.429688 C 653.804688 731.351562 653.992188 729.203125 653.992188 727.265625 C 653.992188 725.328125 655.007812 722.3125 655.222656 719.945312 C 655.4375 717.578125 654.300781 715.640625 654.300781 715.640625 L 654.300781 706.171875 C 654.300781 704.878906 653.53125 701.867188 653.316406 699.28125 C 653.097656 696.699219 651.898438 692.179688 651.898438 692.179688 C 651.898438 692.179688 648.238281 690.242188 647.378906 689.382812 C 646.515625 688.523438 644.582031 685.722656 643.503906 684.648438 C 642.425781 683.574219 637.90625 681.203125 637.90625 681.203125 C 637.90625 681.203125 635.109375 680.128906 632.742188 678.835938 C 630.375 677.546875 626.070312 676.253906 624.992188 675.179688 C 623.917969 674.101562 621.765625 673.027344 617.675781 670.875 C 613.585938 668.722656 608.636719 662.265625 607.558594 660.972656 C 606.484375 659.683594 604.761719 659.035156 606.269531 657.097656 C 607.773438 655.164062 606.484375 654.085938 606.050781 652.578125 C 605.621094 651.074219 603.683594 649.566406 603.039062 647.414062 C 602.390625 645.261719 599.59375 643.109375 599.378906 641.171875 C 599.164062 639.234375 597.226562 638.804688 596.152344 637.945312 C 595.074219 637.082031 595.074219 632.992188 594.429688 631.058594 C 593.785156 629.121094 590.339844 622.234375 589.695312 620.726562 C 589.050781 619.21875 587.757812 617.5 587.113281 614.484375 C 586.46875 611.472656 585.390625 612.332031 584.101562 611.257812 C 582.808594 610.179688 581.300781 607.167969 580.871094 605.660156 C 580.441406 604.15625 578.71875 601.785156 576.78125 599.847656 C 574.84375 597.910156 569.679688 595.113281 569.679688 595.113281 L 569.25 593.824219 C 572.476562 591.886719 570.109375 590.808594 569.464844 590.164062 C 568.820312 589.519531 568.820312 588.65625 568.820312 587.582031 C 568.820312 586.503906 567.742188 584.996094 567.527344 583.0625 C 567.3125 581.125 571.402344 578.542969 573.125 576.820312 C 574.84375 575.097656 577.640625 574.023438 578.71875 572.300781 C 579.792969 570.578125 579.363281 567.566406 579.363281 567.566406 C 579.363281 567.566406 578.933594 566.703125 578.289062 565.628906 C 577.640625 564.550781 575.492188 569.070312 575.492188 569.070312 L 574.414062 568.640625 L 571.402344 566.488281 C 571.402344 566.488281 571.402344 560.460938 571.1875 557.878906 C 570.972656 555.296875 573.125 555.296875 574.199219 554.21875 C 575.273438 553.144531 573.769531 553.359375 575.492188 550.34375 C 577.210938 547.332031 577.210938 546.042969 576.996094 543.242188 C 576.78125 540.445312 579.148438 542.8125 581.085938 541.519531 C 583.023438 540.230469 583.882812 539.582031 585.175781 539.152344 C 586.46875 538.722656 586.898438 538.078125 586.898438 538.078125 C 585.175781 536.140625 586.683594 534.203125 587.972656 534.203125 C 589.265625 534.203125 589.046875 532.265625 589.480469 529.253906 C 589.910156 526.238281 593.566406 528.390625 595.289062 527.53125 C 597.011719 526.671875 597.011719 524.085938 598.300781 522.152344 C 599.59375 520.214844 601.527344 518.0625 601.527344 518.0625 C 599.589844 518.0625 597.429688 519.351562 597.859375 515.695312 C 598.292969 512.035156 598.277344 511.175781 598.0625 509.023438 C 597.847656 506.871094 597.820312 504.71875 598.464844 504.289062 C 599.113281 503.855469 598.410156 500.84375 598.410156 498.476562 C 598.410156 496.109375 597.007812 496.324219 595.929688 495.03125 C 594.855469 493.742188 594.199219 490.511719 594.199219 490.511719 L 594.882812 489.652344 L 594.882812 488.359375 L 597.027344 488.792969 L 599.8125 485.347656 L 597.660156 482.550781 L 598.304688 480.398438 C 598.304688 480.398438 602.179688 484.488281 603.039062 485.777344 C 603.902344 487.070312 602.609375 480.613281 602.609375 480.613281 C 602.609375 480.613281 603.472656 480.398438 604.976562 479.324219 C 606.484375 478.246094 608.851562 474.585938 608.851562 474.585938 L 611.21875 473.941406 C 611.21875 473.941406 612.082031 465.761719 612.511719 465.117188 C 612.941406 464.46875 617.246094 462.320312 617.246094 462.320312 C 617.246094 462.320312 619.613281 460.597656 620.257812 462.105469 C 620.90625 463.609375 621.765625 462.75 622.410156 461.242188 C 623.058594 459.738281 623.703125 459.523438 624.992188 459.738281 C 626.285156 459.953125 630.589844 459.523438 632.527344 458.445312 C 634.464844 457.367188 637.046875 456.078125 638.984375 455.003906 C 640.921875 453.925781 640.273438 452.421875 640.273438 452.421875 C 642.210938 453.496094 641.566406 450.914062 641.566406 450.914062 C 641.566406 450.914062 642.640625 451.128906 643.5 451.128906 C 644.363281 451.128906 645.222656 450.054688 647.160156 451.992188 C 649.097656 453.929688 645.003906 455.65625 643.714844 456.515625 C 642.421875 457.378906 641.773438 457.171875 643.066406 460.828125 C 644.355469 464.488281 643.058594 466.222656 641.980469 467.300781 C 640.90625 468.378906 640.457031 471.207031 641.101562 472.710938 C 641.75 474.21875 642.363281 473.847656 643.4375 476 C 644.511719 478.152344 646.648438 478.292969 647.675781 476.769531 C 650.132812 473.136719 646.949219 468.558594 645.445312 466.839844 Z M 645.445312 466.839844 " fill-opacity="1" fill-rule="nonzero"/></svg>